<svg width="446" height="52" viewBox="0 0 446 52" fill="none" xmlns="http://www.w3.org/2000/svg">
<path fill-rule="evenodd" clip-rule="evenodd" d="M167.344 0.0027104C169.819 3.09739 195.556 1.42394 206.56 9.67641C208.944 11.4644 209.906 13.0003 211.305 15.1781C212.451 13.711 209.563 10.1807 208.623 9.28671C204.978 5.84818 200.21 3.73922 195.488 2.38673C194.571 2.11165 193.631 1.95118 192.783 1.65318C193.814 1.24056 197.321 2.40966 198.536 2.75351C200.324 3.25783 202.433 4.0143 204.153 4.81663C209.654 7.38406 216.119 13.4359 211.649 20.3129C210.594 21.9405 209.333 21.8488 208.714 22.1697C206.285 23.3847 210.892 28.1069 215.087 24.8289C217.448 22.9721 217.082 20.6339 217.609 19.1209C218.067 20.2442 217.265 23.0867 216.898 24.2558C216.279 26.0897 216.073 24.6913 215.569 27.6943C213.849 37.8265 203.35 36.7262 201.975 31.4538C201.723 30.5368 201.792 30.4222 202.777 29.6886C201.402 28.6342 197.895 30.0096 199.041 33.1959C199.385 34.1817 200.118 34.5484 200.783 35.4424C197.826 34.4797 196.725 28.4508 201.333 28.4508C202.135 28.4508 202.8 28.4508 203.557 28.7946C204.542 29.2302 204.955 30.4451 205.597 30.5139C207.775 30.7431 208.99 24.7142 204.29 22.376C197.321 18.8917 192.53 27.3046 195.671 33.9295C197.528 37.8494 204.084 40.5773 208.21 39.7521C213.368 38.7434 217.517 35.0527 219.053 29.6199L219.878 26.3877C219.97 25.8604 219.947 25.7229 220.107 25.2186C220.818 26.9837 218.617 33.1042 217.723 34.8006C216.44 37.2534 214.491 38.4913 214.399 39.2936C214.331 39.9355 214.995 42.0215 216.508 42.7321C217.402 43.1677 217.013 42.7551 217.815 42.9843C217.953 45.1849 217.838 45.6893 219.122 47.9816C219.626 48.8756 220.36 49.8613 221.07 50.6407C221.758 51.4431 222.331 51.764 223.133 51.764H223.179C224.096 51.764 224.669 51.2826 225.242 50.6407C225.953 49.8384 226.686 48.8756 227.191 47.9816C228.475 45.6893 228.36 45.162 228.497 42.9843C229.3 42.7551 228.91 43.1677 229.804 42.7321C231.294 42.0215 231.982 39.9355 231.913 39.2936C231.821 38.4913 229.873 37.2534 228.589 34.8006C227.695 33.0813 225.494 26.9607 226.205 25.2186C226.388 25.7229 226.343 25.8604 226.434 26.3877L227.26 29.6199C228.795 35.0527 232.945 38.7434 238.102 39.7521C242.229 40.5544 248.762 37.8494 250.642 33.9295C253.782 27.3046 248.991 18.8917 242.022 22.376C237.323 24.7142 238.538 30.7431 240.716 30.5139C241.358 30.4451 241.77 29.2302 242.756 28.7946C243.512 28.4508 244.177 28.4508 244.979 28.4508C249.587 28.4737 248.487 34.4797 245.53 35.4424C246.217 34.5484 246.928 34.1817 247.272 33.1959C248.418 30.0096 244.888 28.6112 243.535 29.6886C244.498 30.4222 244.567 30.5368 244.338 31.4538C242.962 36.7262 232.463 37.8265 230.744 27.6943C230.24 24.6913 230.033 26.0897 229.414 24.2558C229.025 23.0867 228.222 20.2671 228.704 19.1209C229.231 20.6339 228.841 22.9721 231.225 24.8289C235.397 28.1069 240.005 23.3847 237.598 22.1697C236.979 21.8717 235.741 21.9634 234.664 20.3129C230.194 13.4129 236.681 7.38406 242.16 4.81663C243.879 4.0143 245.965 3.25783 247.776 2.75351C248.968 2.40966 252.498 1.24056 253.53 1.65318C252.659 1.95118 251.742 2.11165 250.825 2.38673C246.126 3.73922 241.335 5.82526 237.69 9.28671C236.75 10.1807 233.884 13.711 235.008 15.1781C236.383 13.0003 237.369 11.4644 239.753 9.67641C250.756 1.42394 276.203 3.09736 278.656 0.00268555C277.344 0.00268555 260.312 0.00268555 251.1 0.00268555C248.166 0.0485326 246.676 0.55285 244.383 0.827932C240.303 1.33225 235.008 3.57875 231.615 6.42127C225.265 11.7166 224.234 17.287 223.408 24.6684L223.133 27.6255L222.858 24.6684C222.033 17.287 221.001 11.7166 214.652 6.42127C211.259 3.60168 205.964 1.33225 201.883 0.827932C199.591 0.55285 198.101 0.0256091 195.167 0.00268555C185.906 0.00268424 178.125 0.00269973 167.344 0.0027104Z" fill="#EBEBEB"/>
<path d="M266.912 0.00268555H445.912V2.00269H266.912V0.00268555Z" fill="#EBEBEB"/>
<path d="M0.0883789 0.00268555H179.088V2.00269H0.0883789V0.00268555Z" fill="#EBEBEB"/>
</svg>
