<?xml version="1.0" encoding="utf-8"?>
<!DOCTYPE svg PUBLIC "-//W3C//DTD SVG 1.1//EN" "http://www.w3.org/Graphics/SVG/1.1/DTD/svg11.dtd">
<svg version="1.1" xmlns="http://www.w3.org/2000/svg" xmlns:xlink="http://www.w3.org/1999/xlink" x="0px" y="0px" viewBox="0 0 24 48" enable-background="new 0 0 24 48" xml:space="preserve">
    <defs>
        <symbol id="icon-instagram" viewBox="0 0 21 21" fill="none" xmlns="http://www.w3.org/2000/svg">
            <path fill="currentColor" d="M10.3394 2.13091C13.0168 2.13091 13.3394 2.13091 14.3716 2.19543C15.3394 2.22769 15.8877 2.38898 16.2426 2.55027C16.6942 2.74382 17.049 2.93737 17.4039 3.2922C17.7587 3.64704 17.9845 3.96962 18.1458 4.4535C18.2748 4.80833 18.4361 5.32446 18.5006 6.32446C18.5329 7.38898 18.5652 7.6793 18.5652 10.3567C18.5652 13.0341 18.5652 13.3567 18.5006 14.389C18.4684 15.3567 18.3071 15.9051 18.1458 16.2599C17.9523 16.7116 17.7587 17.0664 17.4039 17.4212C17.049 17.7761 16.7265 18.0019 16.2426 18.1632C15.8877 18.2922 15.3716 18.4535 14.3716 18.518C13.3071 18.5503 13.0168 18.5825 10.3394 18.5825C7.66194 18.5825 7.33936 18.5825 6.3071 18.518C5.33936 18.4858 4.79097 18.3245 4.43613 18.1632C3.98452 17.9696 3.62968 17.7761 3.27484 17.4212C2.92 17.0664 2.69419 16.7438 2.5329 16.2599C2.40387 15.9051 2.24258 15.389 2.17807 14.389C2.14581 13.3245 2.14581 13.0019 2.14581 10.3245C2.14581 7.64704 2.14581 7.32446 2.21032 6.2922C2.24258 5.32446 2.40387 4.77608 2.56516 4.42124C2.75871 3.96962 2.95226 3.61479 3.3071 3.25995C3.66194 2.90511 3.98452 2.6793 4.46839 2.51801C4.82323 2.38898 5.33936 2.22769 6.33936 2.16317C7.33936 2.13091 7.66194 2.13091 10.3394 2.13091ZM10.3394 0.324463C7.62968 0.324463 7.27484 0.324463 6.21032 0.388979C5.14581 0.453495 4.40387 0.614785 3.79097 0.840592C3.14581 1.09866 2.56516 1.4535 2.01677 2.00188C1.46839 2.55027 1.11355 3.13091 0.855485 3.77608C0.59742 4.42124 0.43613 5.13091 0.403872 6.19543C0.339355 7.25995 0.339355 7.61479 0.339355 10.3245C0.339355 13.0341 0.339355 13.389 0.403872 14.4535C0.468388 15.518 0.629678 16.2599 0.855485 16.8729C1.11355 17.518 1.46839 18.0987 2.01677 18.647C2.56516 19.1954 3.14581 19.5503 3.79097 19.8083C4.43613 20.0664 5.14581 20.2277 6.21032 20.2599C7.27484 20.3245 7.62968 20.3245 10.3394 20.3245C13.049 20.3245 13.4039 20.3245 14.4684 20.2599C15.5329 20.1954 16.2748 20.0341 16.8877 19.8083C17.5329 19.5503 18.1135 19.1954 18.6619 18.647C19.2103 18.0987 19.5652 17.518 19.8232 16.8729C20.0813 16.2277 20.2426 15.518 20.2748 14.4535C20.3394 13.389 20.3394 13.0341 20.3394 10.3245C20.3394 7.61479 20.3394 7.25995 20.2748 6.19543C20.2103 5.13091 20.049 4.38898 19.8232 3.77608C19.5652 3.13091 19.2103 2.55027 18.6619 2.00188C18.1135 1.4535 17.5329 1.09866 16.8877 0.840592C16.2426 0.582527 15.5329 0.421237 14.4684 0.388979C13.4039 0.324463 13.049 0.324463 10.3394 0.324463Z"/>
            <path fill="currentColor" d="M10.3393 5.19539C7.5006 5.19539 5.21028 7.48571 5.21028 10.3244C5.21028 13.1631 7.5006 15.4535 10.3393 15.4535C13.178 15.4535 15.4683 13.1631 15.4683 10.3244C15.4683 7.48571 13.178 5.19539 10.3393 5.19539ZM10.3393 13.647C8.5006 13.647 7.01673 12.1631 7.01673 10.3244C7.01673 8.48571 8.5006 7.00184 10.3393 7.00184C12.178 7.00184 13.6619 8.48571 13.6619 10.3244C13.6619 12.1631 12.178 13.647 10.3393 13.647Z"/>
            <path fill="currentColor" d="M15.6619 6.19541C16.3211 6.19541 16.8555 5.66104 16.8555 5.00186C16.8555 4.34268 16.3211 3.80831 15.6619 3.80831C15.0027 3.80831 14.4684 4.34268 14.4684 5.00186C14.4684 5.66104 15.0027 6.19541 15.6619 6.19541Z"/>
        </symbol>
        <symbol id="icon-vk" viewBox="0 0 23 14" fill="none" xmlns="http://www.w3.org/2000/svg">
            <path fill="currentColor" fill-rule="evenodd" clip-rule="evenodd" d="M22.2204 0.928988C22.3752 0.41623 22.2204 0.0568848 21.5017 0.0568848H19.1065C18.4901 0.0568848 18.2165 0.381677 18.063 0.741023C18.063 0.741023 16.8482 3.71668 15.1206 5.63364C14.5567 6.19754 14.3162 6.36892 14.0094 6.36892C13.8559 6.36892 13.6334 6.19754 13.6334 5.68478V0.928988C13.6334 0.312573 13.462 0.0568848 12.9493 0.0568848H9.18722C8.81129 0.0568848 8.5708 0.347125 8.5708 0.604195C8.5708 1.18606 9.42632 1.32289 9.5286 2.93026V6.45461C9.5286 7.22444 9.39177 7.36127 9.08356 7.36127C8.27918 7.36127 6.29587 4.38561 5.13215 0.96354C4.89304 0.33054 4.67053 0.0568848 4.05549 0.0568848H1.66032C0.976183 0.0568848 0.839355 0.381677 0.839355 0.741023C0.839355 1.37402 1.64374 4.52106 4.61939 8.6784C6.60408 11.5172 9.39177 13.0569 11.9238 13.0569C13.4455 13.0569 13.6348 12.7141 13.6348 12.1336V9.97757C13.6348 9.29344 13.7716 9.15661 14.2678 9.15661C14.6272 9.15661 15.2256 9.32799 16.645 10.6963C18.2704 12.3216 18.544 13.0569 19.4507 13.0569H21.8458C22.53 13.0569 22.8727 12.7141 22.6668 12.048C22.4443 11.3804 21.6745 10.406 20.6489 9.2423C20.0851 8.57475 19.2461 7.87402 19.007 7.51468C18.6477 7.05306 18.7499 6.84713 19.007 6.45461C19.0056 6.43664 21.9301 2.33182 22.2204 0.928988Z"/>
        </symbol>
        <symbol id="icon-facebook" viewBox="0 0 11 21" fill="none" xmlns="http://www.w3.org/2000/svg">
            <path fill="currentColor" d="M0.513672 7.16813H2.58018V5.16496C2.58018 4.27818 2.60393 2.91635 3.24526 2.06916C3.92618 1.16654 4.86047 0.556885 6.45983 0.556885C9.06474 0.556885 10.1653 0.929015 10.1653 0.929015L9.65065 3.99315C9.65065 3.99315 8.78762 3.7477 7.98794 3.7477C7.18034 3.7477 6.45983 4.03274 6.45983 4.84034V7.16813H9.75358L9.52396 10.161H6.45983V20.5569H2.58018V10.161H0.513672V7.16813Z"/>
        </symbol>
        <symbol id="icon-hamburger" viewBox="0 0 20 12" fill="none" xmlns="http://www.w3.org/2000/svg">
            <line x1="19.5" y1="0.644043" x2="0.5" y2="0.644041" stroke="black" stroke-linecap="square" stroke-linejoin="round"/>
            <line x1="19.5" y1="5.64404" x2="0.5" y2="5.64404" stroke="black" stroke-linecap="square" stroke-linejoin="round"/>
            <line x1="19.5" y1="10.644" x2="0.5" y2="10.644" stroke="black" stroke-linecap="square" stroke-linejoin="round"/>
        </symbol>
        <symbol id="icon-cross" viewBox="0 0 15 15" fill="none" xmlns="http://www.w3.org/2000/svg">
            <path d="M13.8639 1.28008L1.13593 14.008M13.8639 14.008L1.13593 1.28008" stroke="black" stroke-linecap="square" stroke-linejoin="round"/>
        </symbol>
        <symbol id="icon-zerno-1" viewBox="0 0 70 90" fill="none" xmlns="http://www.w3.org/2000/svg">
            <path d="M17.253 71.1277C16.9036 69.7881 15.5232 66.2702 12.7974 62.9154C9.39016 58.7219 8.34178 54.5284 8.60388 51.9074C8.86597 49.2865 12.1407 47.5471 14.2826 51.9074C16.7288 56.8873 18.7382 59.0714 23.1938 62.9154C27.0173 66.2141 31.0567 68.4194 31.144 73.0497C31.2314 77.6801 29.3967 84.3313 29.4841 88.8743" stroke-width="2" stroke-linecap="round" stroke-linejoin="round"/>
            <path d="M15.5057 88.7753C15.7096 86.7368 14.2773 80.7553 11.487 77.4179C7.03137 72.0886 3.88626 67.633 2.66315 62.0417C1.44003 56.4503 1.78946 40.4624 2.66311 33.3859C3.16362 29.3318 7.73025 29.2798 7.73025 33.9975C7.73025 40.2214 8.51656 43.7824 8.95339 46.4907" stroke-width="2" stroke-linecap="round" stroke-linejoin="round"/>
            <path d="M53.263 71.1277C53.6124 69.7881 54.9928 66.2702 57.7186 62.9154C61.1258 58.7219 62.1742 54.5284 61.9121 51.9074C61.65 49.2865 58.3753 47.5471 56.2334 51.9074C53.7872 56.8873 51.7778 59.0714 47.3222 62.9154C43.4987 66.2141 39.4593 68.4194 39.372 73.0497C39.2846 77.6801 41.1193 84.3313 41.0319 88.8743" stroke-width="2" stroke-linecap="round" stroke-linejoin="round"/>
            <path d="M55.0102 88.7753C54.8064 86.7368 56.2387 80.7553 59.029 77.4179C63.4846 72.0886 66.6297 67.633 67.8528 62.0417C69.076 56.4503 68.7265 40.4624 67.8529 33.3859C67.3524 29.3318 62.7857 29.2798 62.7857 33.9975C62.7857 40.2214 61.9994 43.7824 61.5626 46.4907" stroke-width="2" stroke-linecap="round" stroke-linejoin="round"/>
            <path d="M35.4279 1.86816C29.9508 7.95377 29.7479 15.7298 35.4279 19.584C41.108 15.7298 40.9051 7.95377 35.4279 1.86816Z" stroke-width="2" stroke-linecap="round" stroke-linejoin="round"/>
            <path d="M22.2436 16.9793C21.3642 25.1194 25.7508 31.5432 32.6121 31.3441C34.962 24.8946 30.2465 18.7082 22.2436 16.9793Z" stroke-width="2" stroke-linecap="round" stroke-linejoin="round"/>
            <path d="M48.6121 16.9793C49.4915 25.1194 45.1049 31.5432 38.2436 31.3441C35.8937 24.8946 40.6093 18.7082 48.6121 16.9793Z" stroke-width="2" stroke-linecap="round" stroke-linejoin="round"/>
            <path d="M22.2436 32.9793C21.3642 41.1194 25.7508 47.5432 32.6121 47.3441C34.962 40.8946 30.2465 34.7082 22.2436 32.9793Z" stroke-width="2" stroke-linecap="round" stroke-linejoin="round"/>
            <path d="M48.6121 32.9793C49.4915 41.1194 45.1049 47.5432 38.2436 47.3441C35.8937 40.8946 40.6093 34.7082 48.6121 32.9793Z" stroke-width="2" stroke-linecap="round" stroke-linejoin="round"/>
            <line x1="35.5256" y1="51.4629" x2="35.5256" y2="59.6517" stroke="#E8B562" stroke-width="2" stroke-linecap="round"/>
        </symbol>
        <symbol id="icon-zerno-2" viewBox="0 0 76 94" fill="none" xmlns="http://www.w3.org/2000/svg">
            <path d="M53.5574 50.7374C53.5574 59.4677 46.4801 66.545 37.7499 66.545C29.0196 66.545 21.9423 59.4677 21.9423 50.7374C21.9423 42.0072 31.2093 31.9848 37.7499 21.8252C45.1642 32.2028 53.5574 42.0072 53.5574 50.7374Z" stroke-width="2"/>
            <path d="M74.2507 53.4004C64.9812 53.4003 61.8919 60.8681 60.3492 64.1159C56.3362 72.5643 47.7252 78.4055 37.75 78.4055C27.7747 78.4055 19.1638 72.5643 15.1508 64.1159C13.6081 60.8681 10.5205 53.4004 1.24927 53.4004" stroke-width="2" stroke-linecap="round"/>
            <path d="M58.6568 86.6001C52.6621 90.5656 45.4757 92.8745 37.7501 92.8745C35.2368 92.8745 32.7805 92.6301 30.4038 92.1639" stroke-width="2" stroke-linecap="round"/>
            <path d="M16.5156 77.0723C21.9972 82.4173 29.489 85.7103 37.7499 85.7103C41.3237 85.7103 44.7535 85.094 47.9388 83.9619" stroke-width="2" stroke-linecap="round"/>
            <path d="M37.7498 60.9172C32.1147 60.9172 27.5464 56.349 27.5464 50.7139" stroke-width="2" stroke-linecap="round"/>
            <path d="M71.9524 25.6378C71.9524 30.7174 67.8345 34.8353 62.7549 34.8353C57.6752 34.8353 53.5574 30.7174 53.5574 25.6378C53.5574 20.5582 58.9493 14.7267 62.7549 8.81543C67.0688 14.8536 71.9524 20.5582 71.9524 25.6378Z" stroke-width="2"/>
            <path d="M25.9678 16.2922C25.9678 20.419 22.6224 23.7644 18.4956 23.7644C14.3688 23.7644 11.0234 20.419 11.0234 16.2922C11.0234 12.1655 15.4039 7.42789 18.4956 2.62549C22.0003 7.53096 25.9678 12.1655 25.9678 16.2922Z" stroke-width="2"/>
        </symbol>
        <symbol id="icon-zerno-3" viewBox="0 0 65 93" fill="none" xmlns="http://www.w3.org/2000/svg">
            <path d="M57.2846 80.7773H63.5022V1.86816H1.5022V80.7773H26.8482" stroke-width="2" stroke-linecap="round" stroke-linejoin="round"/>
            <line x1="13.2111" y1="16.6499" x2="51.7929" y2="16.6499" stroke-width="2" stroke-linecap="round"/>
            <path d="M17.8475 24.4136H47.1566" stroke-width="2" stroke-linecap="round"/>
            <line x1="13.2111" y1="32.4321" x2="51.7929" y2="32.4321" stroke-width="2" stroke-linecap="round"/>
            <path d="M17.8475 40.1953H47.1566" stroke-width="2" stroke-linecap="round"/>
            <path d="M39.2518 53.7753C40.3789 52.7527 42.0981 52.7527 43.2252 53.7753C44.1862 54.6472 45.4509 55.1075 46.7475 55.0573C48.2682 54.9984 49.5852 56.1035 49.7913 57.6114C49.9671 58.897 50.6399 60.0625 51.6655 60.8576C52.8683 61.79 53.1668 63.4831 52.3555 64.7706C51.6637 65.8684 51.43 67.1938 51.7046 68.462C52.0266 69.9494 51.167 71.4383 49.7179 71.9031C48.4823 72.2994 47.4513 73.1645 46.8465 74.3125C46.1371 75.6589 44.5215 76.2469 43.1127 75.6715C41.9114 75.1808 40.5656 75.1808 39.3643 75.6715C37.9554 76.2469 36.3399 75.6589 35.6305 74.3125C35.0257 73.1645 33.9947 72.2994 32.7591 71.9031C31.31 71.4383 30.4504 69.9494 30.7724 68.462C31.047 67.1938 30.8133 65.8684 30.1215 64.7706C29.3102 63.4831 29.6087 61.7899 30.8115 60.8576C31.837 60.0625 32.5099 58.897 32.6857 57.6114C32.8918 56.1035 34.2088 54.9984 35.7295 55.0573C37.0261 55.1075 38.2908 54.6472 39.2518 53.7753Z" stroke-width="2"/>
            <path d="M32.5859 75.312L28.1954 88.107L33.1921 87.438L36.7254 91.0339L41.1158 78.239" stroke-width="2" stroke-linecap="round" stroke-linejoin="round"/>
            <path d="M49.7687 75.312L54.1591 88.107L49.1624 87.438L45.6292 91.0339L41.2387 78.239" stroke-width="2" stroke-linecap="round" stroke-linejoin="round"/>
        </symbol>
        <symbol id="icon-arrow" viewBox="0 0 71 71" fill="none" xmlns="http://www.w3.org/2000/svg">
            <path fill="currentColor" d="M35.521 0.144531L0.165658 35.4999L4.8797 40.2139L40.235 4.85858L35.521 0.144531Z" />
            <path fill="currentColor" d="M4.8797 30.7858L0.165658 35.4999L35.521 70.8552L40.235 66.1412L4.8797 30.7858Z" />
        </symbol>
        <symbol id="icon-chevron-down" viewBox="0 0 16 8" fill="none" xmlns="http://www.w3.org/2000/svg">
            <path d="M0.5 0.75L8 6.75L15.5 0.75" stroke="#E8B562"/>
        </symbol>
        <symbol id="icon-pin" viewBox="0 0 19 26" fill="none" xmlns="http://www.w3.org/2000/svg">
            <path d="M9.14017 0.412109C4.08237 0.412109 0 4.49448 0 9.55228C0 16.3442 8.41763 24.6896 8.7789 25.0508L9.14017 25.4121L9.50145 25.0508C9.86272 24.6896 18.2803 16.3442 18.2803 9.55228C18.2803 4.49448 14.1619 0.412109 9.14017 0.412109ZM9.14017 23.967C7.51445 22.269 1.01156 15.152 1.01156 9.55228C1.01156 5.07251 4.6604 1.42367 9.14017 1.42367C13.6199 1.42367 17.2688 5.07251 17.2688 9.55228C17.2688 15.152 10.7298 22.269 9.14017 23.967Z" fill="#545759"/>
            <path d="M9.14017 6.01182C7.18931 6.01182 5.59971 7.60142 5.59971 9.55228C5.59971 11.5031 7.18931 13.0927 9.14017 13.0927C11.091 13.0927 12.6806 11.5031 12.6806 9.55228C12.6806 7.60142 11.091 6.01182 9.14017 6.01182ZM9.14017 12.0812C7.76734 12.0812 6.61127 10.9612 6.61127 9.55228C6.61127 8.17945 7.73121 7.02338 9.14017 7.02338C10.513 7.02338 11.6691 8.14332 11.6691 9.55228C11.6691 10.9251 10.513 12.0812 9.14017 12.0812Z" fill="#545759"/>
        </symbol>
        <symbol id="icon-phone" viewBox="0 0 25 26" fill="none" xmlns="http://www.w3.org/2000/svg">
            <path d="M19.2502 12.2398H20.2888C20.2888 8.30764 17.0986 5.11741 13.1665 5.11741V6.15609C16.5422 6.15609 19.2502 8.90117 19.2502 12.2398Z" fill="#545759"/>
            <path d="M13.1665 0.40625V1.44493C19.1018 1.44493 23.9613 6.26738 23.9613 12.2398H25C25 5.71094 19.6953 0.40625 13.1665 0.40625Z" fill="#545759"/>
            <path d="M21.513 18.2864C20.2146 17.4332 18.9905 16.6542 18.1373 16.0977L17.8034 15.8752C17.3212 15.5784 16.6535 15.3929 16.0228 15.3929C15.3551 15.3929 14.7616 15.6155 14.3906 15.9865C14.0939 16.2832 13.6858 16.8026 13.6116 16.9139C13.3519 17.2477 13.2036 17.359 13.0552 17.359C12.9439 17.359 12.7584 17.3219 12.4245 17.1364C11.6826 16.6913 11.1262 16.209 10.1617 15.3558L10.0504 15.2445C9.19721 14.2801 8.71497 13.7607 8.26982 12.9817C7.82467 12.2769 8.01015 12.1285 8.4924 11.7575C8.78916 11.535 9.19721 11.2011 9.41979 10.9785C10.2359 10.1995 10.1246 8.56731 9.53108 7.60282L9.45688 7.49154C8.86335 6.56414 8.04725 5.30289 7.11985 3.93034C6.60051 3.11424 5.71021 2.63199 4.74573 2.63199C4.15219 2.63199 3.59576 2.81747 3.11351 3.15133L3.03932 3.18843C1.4813 4.22711 0.479716 5.52546 0.145854 7.00929C-0.225103 8.60441 -0.373486 13.0559 6.00698 19.4364C11.2375 24.6669 15.1325 25.4459 17.0244 25.4459C17.5067 25.4459 17.9889 25.4088 18.4341 25.2975C19.9179 24.9636 21.2162 23.9991 22.2549 22.404L22.292 22.3298C22.7372 21.6992 22.8855 20.9202 22.7372 20.1412C22.5888 19.3622 22.1436 18.6944 21.513 18.2864ZM21.4017 21.7363L21.3275 21.8105C20.4372 23.1459 19.3614 23.962 18.1373 24.2588C17.7663 24.333 17.3954 24.3701 16.9502 24.3701C15.2438 24.3701 11.6084 23.6282 6.6747 18.6944C0.665194 12.6849 0.776482 8.6786 1.11034 7.23186C1.37001 6.00771 2.22322 4.93193 3.55866 4.04163L3.70705 4.00454C4.00381 3.78196 4.37477 3.67067 4.74573 3.67067C5.37635 3.67067 5.93279 3.96744 6.30375 4.48678C7.23114 5.89642 8.04725 7.12058 8.60368 8.04797L8.67787 8.15926C9.04883 8.75279 9.16012 9.86566 8.75207 10.2366C8.52949 10.4221 8.15853 10.7189 7.86177 10.9785C7.37952 11.3495 6.52632 12.0543 7.41662 13.5381C7.93596 14.3913 8.4182 14.9478 9.3085 15.9494L9.49398 16.1348C10.4956 17.0251 11.052 17.5445 11.9052 18.0267C12.3504 18.2864 12.7213 18.3977 13.0923 18.3977C13.8342 18.3977 14.2422 17.8783 14.4648 17.5445C14.6874 17.2477 15.0212 16.8768 15.1696 16.6913C15.318 16.5058 15.6519 16.4316 16.0228 16.4316C16.468 16.4316 16.9131 16.5429 17.247 16.7655L17.5438 16.9509C18.4341 17.5074 19.6211 18.2864 20.9195 19.1396C21.3275 19.3993 21.6243 19.8444 21.6985 20.3267C21.8098 20.8089 21.6985 21.3282 21.4017 21.7363Z" fill="#545759"/>
        </symbol>
        <symbol id="icon-mail" viewBox="0 0 25 19" fill="none" xmlns="http://www.w3.org/2000/svg">
            <path d="M0 0.757812V18.0462H25V0.757812H0ZM23.2783 1.76212L12.4821 12.5584L1.72166 1.76212H23.2783ZM1.0043 2.47948L7.92683 9.402L1.0043 16.3245V2.47948ZM1.72166 17.0419L8.64419 10.1194L12.5179 13.9931L16.3917 10.1194L23.3142 17.0419H1.72166ZM23.9957 16.3245L17.0732 9.402L23.9957 2.47948V16.3245Z" fill="#545759"/>
        </symbol>
    </defs>
</svg>
