<svg width="531" height="118" viewBox="0 0 531 118" fill="none" xmlns="http://www.w3.org/2000/svg">
<g clip-path="url(#clip0)">
<path fill-rule="evenodd" clip-rule="evenodd" d="M437.899 85.5404V83.6311C445.134 82.4854 452.369 81.3398 459.413 80.1942C482.831 76.9482 516.53 71.0291 523.765 70.2654C524.717 70.0744 526.621 68.7379 528.334 68.9288C529.096 68.9288 529.858 69.3107 530.619 70.2654C531.762 71.6019 527.192 71.411 524.146 71.9838C522.052 72.1748 521.29 72.7476 520.148 72.9385C514.246 71.7929 481.308 77.9029 457.128 81.9126C450.655 83.2492 443.991 84.3948 437.899 85.5404ZM437.899 68.7379V65.8738C439.803 65.301 441.707 64.5372 443.42 63.5825C444.372 63.0097 445.324 62.6278 446.276 62.2459C446.657 62.055 447.038 61.8641 447.418 61.4822C447.228 61.4822 447.038 61.2913 446.847 61.2913C444.943 61.1003 443.23 61.1003 441.326 61.8641C440.374 62.246 439.422 62.6278 438.47 62.8188C438.28 62.8188 437.899 63.0097 437.708 63.0097V60.7184C439.232 60.9094 440.755 60.1456 442.278 59.9547C444.182 59.7637 446.086 59.3819 447.799 59.3819C448.37 59.3819 449.132 59.3819 449.703 59.5728C449.893 59.5728 450.084 59.5728 450.274 59.7637C451.417 60.1456 451.607 60.5275 451.036 61.6731C450.845 62.2459 450.655 63.0097 450.084 63.3916C449.322 63.9644 448.751 64.5372 447.799 64.9191C447.609 64.9191 447.609 64.9191 447.418 65.11C446.086 66.0647 444.562 66.2557 443.23 67.0194C442.278 67.5922 441.135 67.7832 440.184 68.356C439.612 68.7379 439.041 68.9288 438.28 68.9288C438.47 68.5469 438.089 68.5469 437.899 68.7379ZM437.899 23.2945V21.0032C439.612 19.2848 440.945 17.9482 441.326 17.5663C441.897 16.9935 442.278 16.9935 442.659 16.9935C443.23 17.1845 443.42 17.7573 443.611 17.9482C443.42 18.1392 443.42 18.521 443.23 18.521C442.849 18.712 438.851 22.7217 438.47 23.2945H437.899ZM437.899 21.0032V23.4854C432.949 28.6408 420.573 41.0518 420.573 41.4337C420.573 41.6246 420.383 41.8155 420.192 41.8155C420.002 42.0065 419.241 42.0065 419.621 42.5793C419.621 42.5793 419.431 42.7702 419.241 42.7702C418.86 42.7702 418.86 42.7702 418.86 43.1521C418.86 43.343 418.86 43.343 418.669 43.534C417.717 44.4887 417.146 45.0615 416.194 46.2071C415.814 46.589 415.623 47.1618 414.862 47.1618C414.671 47.1618 414.29 47.7346 414.1 48.1165C413.529 49.0712 412.767 49.8349 412.006 50.5987C410.483 52.1262 405.342 57.2815 403.628 58.8091C403.248 59.1909 402.677 59.7638 402.296 60.3366C401.534 60.9094 401.153 61.6731 400.582 62.2459C400.201 62.6278 399.821 62.8188 399.249 63.2006C398.678 63.3916 398.298 63.7735 398.488 64.3463C398.488 64.5372 398.488 64.7282 398.298 64.7282C397.155 65.301 396.584 66.6375 395.632 67.4013C395.442 67.5922 395.251 67.7832 395.251 67.9741C394.871 68.5469 395.061 68.9288 395.822 69.1197C396.584 69.3107 397.536 69.5016 398.298 70.2654C398.488 70.4563 398.678 70.2654 398.869 70.2654C400.011 70.4563 401.153 70.6472 402.296 70.4563C403.248 70.4563 404.009 70.4563 404.961 70.6472C405.913 70.8382 406.865 70.6472 408.007 70.8382C409.721 71.0291 411.625 70.8382 413.529 70.6472C415.623 70.4563 417.527 70.4563 419.621 69.6926C420.002 69.5016 420.383 69.5016 420.764 69.5016C421.335 69.5016 421.716 69.5016 421.906 68.9288C422.096 68.7379 422.287 68.5469 422.477 68.5469H422.668C423.239 67.5922 424.762 67.7832 425.333 66.6375C425.523 66.2557 425.714 65.8738 426.285 66.2557C426.475 66.2557 426.666 66.4466 426.666 66.2557C427.047 65.4919 427.999 65.4919 428.57 64.9191C428.95 64.3463 429.712 64.5372 430.283 63.9644C431.045 63.3916 431.806 63.0097 432.758 62.6278C434.091 61.8641 435.424 61.6731 436.756 61.1003C436.947 60.9094 437.328 60.9094 437.518 60.7184C437.518 60.5275 437.708 60.5275 437.899 60.5275V62.8188C436.947 63.2006 435.805 63.3916 435.043 63.9644C434.281 64.3463 433.329 64.7281 432.568 65.301C431.997 65.8738 431.235 66.2557 430.474 66.6375C429.712 67.0194 428.95 67.5922 428.379 68.165C428.76 68.356 429.141 68.356 429.522 68.356C430.474 68.165 431.235 67.9741 432.187 67.5922C433.901 67.0194 435.614 66.4466 437.328 65.8738C437.518 65.8738 437.708 65.8738 437.899 65.6828V68.7379L437.708 68.9288C436.376 69.5016 435.233 69.8835 433.71 69.8835C433.52 69.8835 433.329 69.8835 433.329 70.0744C433.139 71.0291 432.187 70.6472 431.616 70.8382C430.664 71.0291 429.522 70.8382 428.379 71.2201C428.189 71.2201 427.808 71.411 427.618 71.411C426.666 71.2201 425.904 71.6019 424.952 71.9838C424.762 72.1748 424.571 72.1748 424.381 72.1748C423.62 72.1748 423.048 72.5566 422.477 73.1294C421.525 73.7023 420.954 74.657 420.002 75.2298C419.241 75.6116 418.669 76.5663 417.908 77.1392C417.527 77.521 417.337 78.0938 416.575 78.0938C416.385 78.0938 416.385 78.2848 416.385 78.2848C416.385 78.8576 416.004 79.0485 415.433 79.0485C415.052 79.0485 414.671 79.4304 414.481 79.8123C413.719 80.9579 413.529 80.9579 413.338 82.2945C413.338 82.4854 413.148 82.6764 413.148 82.6764C412.958 82.8673 412.958 83.0582 412.958 83.2492C413.338 83.0582 413.719 83.0583 413.91 83.4401C414.1 83.822 413.91 84.2039 414.1 84.5858C414.29 85.1586 414.862 85.5405 415.623 85.7314C417.337 86.3042 420.573 86.1133 424.191 85.7314C428.57 85.3495 433.139 84.7767 437.708 84.0129V85.9223C436.566 86.1133 435.424 86.3042 434.472 86.4951C434.472 86.4951 434.472 86.4951 434.472 86.3042C424.571 88.0227 414.671 89.3592 410.483 87.4498C409.721 87.068 409.34 86.6861 409.15 86.1133C409.15 85.5404 408.769 84.9676 408.579 84.5858C408.388 84.2039 408.388 83.822 408.769 83.6311C409.15 83.4401 409.15 83.2492 409.34 83.0583C409.911 81.7217 410.673 80.3851 411.815 79.4304C411.815 78.6667 412.767 78.6667 412.958 78.0938C413.148 77.521 413.529 77.1392 413.91 76.5663C414.1 76.3754 414.1 76.3754 414.29 76.1845C414.862 75.9935 415.242 75.6116 415.433 75.0388C415.623 74.657 416.004 74.0841 416.575 74.0841C417.146 73.8932 417.146 73.3204 417.337 72.7476C414.862 72.5566 412.577 72.7476 410.102 72.7476C408.388 72.7476 406.865 72.7476 405.152 72.3657C404.58 72.1748 403.819 72.1748 403.248 72.1748C401.915 72.3657 400.582 71.9838 399.249 71.9838C398.107 71.9838 396.965 71.7929 396.013 71.411C395.251 71.2201 394.49 71.0291 393.728 71.0291C392.967 70.8382 392.395 71.0291 392.015 71.6019C391.443 72.3657 390.492 73.1294 389.92 73.8932C389.349 74.657 388.016 75.9935 386.684 77.521V74.657C387.826 73.3204 388.778 71.9838 389.349 71.6019C389.92 71.2201 390.301 70.6472 390.682 70.0744C391.063 69.6926 391.063 69.3107 390.682 69.1197C390.301 68.7379 390.111 68.7379 389.54 69.1197C388.968 69.5016 388.588 69.6926 388.397 70.2654C388.016 70.8382 387.445 71.7929 386.684 72.7476V68.9288C387.064 68.5469 387.445 67.9741 387.636 67.7832C388.207 67.0194 389.159 66.4466 389.92 65.6828C390.111 65.301 391.063 65.4919 391.443 65.8738C392.015 66.2557 392.586 66.6375 392.967 67.2104C393.157 67.5922 393.538 67.5922 393.728 67.2104C394.109 66.8285 394.49 66.4466 394.87 66.0647C396.394 64.3463 397.917 62.6278 399.44 60.9094C400.392 59.5728 405.913 54.0356 407.246 52.89C407.436 52.699 407.436 52.699 407.246 52.5081C407.246 52.5081 407.056 52.5081 406.865 52.5081C405.342 53.4628 400.773 56.3269 393.728 59.5728C391.443 60.5275 389.159 61.4822 386.684 62.4369V60.9094C389.54 59.9547 392.395 58.8091 395.251 57.6634C401.534 54.7994 409.34 50.4078 414.29 45.6343C416.004 43.9159 416.385 43.9159 418.098 42.1974C419.812 40.0971 431.806 27.3042 437.899 21.0032ZM387.064 44.4887C388.016 43.534 388.968 42.7702 389.92 41.8155C390.301 41.4337 390.872 41.2427 390.682 40.6699C390.682 40.479 390.682 40.479 390.872 40.479C391.634 40.479 392.015 39.9061 392.395 39.5243C393.157 38.7605 400.392 31.3139 401.153 30.5502C401.344 30.3592 401.534 30.1683 401.534 29.9773C401.534 29.5955 401.915 29.4045 402.296 29.2136C403.057 28.8317 403.438 28.068 404.2 27.4951C404.58 27.1133 404.39 26.7314 404.58 26.3495C404.58 26.1586 404.58 25.9676 404.39 26.1586C403.819 26.1586 403.248 26.1586 402.867 26.5404C397.536 32.0777 392.586 37.0421 387.064 41.4337V44.4887ZM387.064 41.4337V44.4887C385.541 45.8252 384.018 47.3527 382.685 48.8803C382.495 49.0712 382.305 49.2621 382.305 49.4531C382.114 49.8349 381.924 50.2168 381.353 50.5987C379.639 52.1262 377.926 53.6537 376.403 55.3722C375.831 55.945 375.451 56.5178 374.879 57.2815C374.499 57.8544 373.928 58.2362 373.547 59C373.356 59.3819 372.976 59.1909 372.595 59.1909C372.404 59.1909 372.976 59.5728 372.595 59.9547C372.024 60.5275 371.452 61.2913 370.691 61.6731C369.739 62.055 369.739 62.8188 369.168 63.5825C371.072 63.5825 372.976 63.5825 374.499 63.3916C375.07 63.5825 375.451 63.2006 376.022 63.2006C378.687 63.2006 382.685 62.2459 387.064 60.9094V62.4369C382.114 64.1553 376.974 65.4919 371.833 66.0647C370.691 66.2557 369.358 66.0647 368.216 66.2557C367.645 65.6828 367.264 66.0647 366.502 66.2557C365.931 66.4466 365.55 67.0194 365.17 67.4013C364.979 67.5922 364.789 67.7832 364.598 67.9741C364.027 68.356 363.646 68.9288 363.075 69.5016C362.694 70.2654 360.219 73.7023 359.077 74.466V71.7929C360.41 70.0744 362.314 67.9741 362.885 67.2104C363.837 66.2557 363.646 66.0647 362.694 65.4919C362.504 65.6828 362.123 66.0647 361.933 66.2557C361.171 67.0194 360.219 67.7832 359.458 68.7379L359.077 69.3107V65.6828C359.458 65.301 359.839 64.7281 360.219 64.3463C360.981 63.5825 361.933 63.0097 363.266 63.3916C364.408 63.7735 365.17 63.3916 366.121 62.6278C367.645 60.9094 369.549 59.5728 371.072 57.8544C372.976 55.945 374.689 54.0356 376.403 51.9353C376.593 51.7443 376.783 51.3625 376.783 50.9806C376.022 51.1715 375.451 51.3625 375.07 51.9353C374.689 52.3172 374.118 52.5081 373.547 52.699C372.214 53.6537 370.691 54.4175 369.358 55.3722C368.977 55.5631 368.597 55.945 368.216 55.945C367.073 56.3269 366.121 56.8997 365.17 57.4725C363.646 58.2362 362.314 58.8091 360.981 59.5728C360.41 59.9547 359.839 60.1456 359.267 60.5275V58.8091C360.41 58.2362 361.362 57.4725 362.504 57.0906C365.931 55.754 376.212 49.644 379.258 47.5437C382.114 45.2524 384.589 43.343 387.064 41.4337ZM387.064 68.9288C385.161 71.2201 382.114 75.2298 380.591 76.7573C379.449 78.0938 378.497 79.4304 377.926 80.9579C377.926 81.3398 377.735 81.5307 377.735 81.9126C377.545 82.4854 377.735 82.8673 378.497 83.0583C379.449 83.4401 380.21 83.0582 380.972 82.6764C382.114 82.1036 383.257 81.1489 384.209 80.3851C384.78 79.8123 385.922 78.6667 387.255 77.521V74.657C386.303 75.8026 385.161 77.1392 384.78 77.521C384.399 77.9029 384.018 78.2848 383.637 78.6667C383.447 78.6667 383.447 78.8576 383.066 78.8576C383.257 78.4757 383.257 78.0938 383.637 77.712C384.399 76.9482 386.113 74.657 387.255 72.9385V68.9288H387.064ZM359.458 58.2362V59.9547C357.554 60.9094 355.65 61.8641 353.746 62.8188C351.652 63.9644 349.557 65.11 347.463 66.0647C345.94 66.8285 344.417 67.5922 342.894 68.165C341.561 68.7379 340.038 69.3107 338.705 69.6926C338.515 69.6926 338.324 69.6926 338.324 69.6926C337.753 68.9288 337.182 69.5016 336.611 69.6926C336.04 69.8835 335.469 69.6926 334.897 69.6926C334.707 69.6926 334.517 69.6926 334.136 69.6926V66.8285L334.326 66.6375C335.469 65.6828 335.469 64.3463 336.23 63.2006C335.088 63.2006 334.707 63.3916 334.136 63.5825V62.055C334.326 61.8641 334.707 61.8641 334.897 61.6731C336.04 61.1003 337.563 60.9094 338.896 61.1003C339.657 61.1003 339.657 61.2913 339.848 62.055C339.848 63.0097 339.276 63.5825 338.705 64.3463C338.134 65.301 337.182 66.0647 336.611 67.2104C337.182 67.4013 337.563 67.2104 338.134 67.0194C339.086 66.8285 340.038 66.6375 340.99 66.6375C341.751 66.6375 342.513 66.4466 343.084 66.0647C344.798 64.9191 346.702 64.3463 348.606 63.5825C351.271 62.2459 354.127 61.1003 356.792 59.9547C356.983 59.7637 357.173 59.5728 357.554 59.3819C357.935 59.1909 358.696 58.8091 359.458 58.2362ZM359.458 65.11C358.887 65.6828 358.506 66.2557 357.935 66.8285C357.364 67.2104 356.983 67.7832 356.602 68.356C356.031 69.1197 353.365 72.9385 352.984 73.7023C352.223 75.0388 351.081 76.1845 350.7 77.521C350.509 78.0938 350.319 78.6667 350.319 79.2395C350.319 80.1942 351.271 80.9579 352.223 80.767C353.746 80.1942 355.079 79.4304 356.221 78.2848C356.412 77.9029 356.412 77.1392 357.173 77.1392C357.364 77.1392 357.364 76.7573 357.173 76.5663C356.983 76.3754 357.173 76.1845 357.363 76.1845C357.935 76.3754 357.744 75.6116 358.315 75.6116C358.696 75.6116 358.887 75.0388 359.267 74.657C358.696 74.2751 359.267 74.0841 359.458 74.0841C359.458 74.0841 359.458 74.0841 359.648 74.0841V71.411C359.077 72.1748 358.506 72.7476 358.125 73.1294C357.173 73.8932 356.412 74.8479 355.46 75.9935C355.079 75.6116 355.079 75.2298 355.269 75.0388C356.031 73.8932 358.506 70.4563 359.648 68.9288V65.11H359.458ZM334.136 41.8155V38.5696C335.278 37.4239 336.421 36.0874 337.563 34.9417C337.944 34.5599 338.324 34.178 338.896 33.987C339.467 33.7961 339.848 33.7961 339.848 34.3689C339.848 35.1327 339.657 35.8964 339.086 36.6602C338.705 37.233 338.324 37.8058 337.753 38.3786C336.421 39.5243 335.278 40.6699 334.136 41.8155ZM334.136 38.5696V41.8155C333.374 42.5793 332.613 43.1521 331.851 43.9159C330.138 45.4434 327.472 48.4984 324.616 51.5534V48.6893C327.282 45.6343 330.138 42.5793 332.993 39.5243C333.374 39.3333 333.755 38.9515 334.136 38.5696ZM334.136 62.055V63.5825C333.945 63.5825 333.565 63.7735 333.374 63.9644C332.042 64.5372 331.661 65.6828 332.613 66.8285C332.803 67.2104 333.374 67.2104 333.755 67.4013C333.945 67.4013 334.136 67.2104 334.326 67.0194V69.8835C333.755 69.8835 333.374 70.2654 332.993 70.4563C330.518 72.5566 327.853 74.0841 324.997 75.8026H324.807V74.466C327.091 73.1294 329.376 71.411 331.661 69.8835C332.042 69.5016 332.232 69.3107 331.661 68.9288C330.709 68.165 330.138 67.2104 330.138 65.8738C328.234 67.0194 326.711 68.165 325.187 69.3107L324.997 69.5016V66.8285C325.187 66.8285 325.378 66.6375 325.759 66.6375C327.091 66.0647 328.234 65.301 329.376 64.5372C330.518 63.7735 331.851 63.2006 333.184 62.8188C333.184 62.4369 333.755 62.2459 334.136 62.055ZM324.616 48.8803V51.5534C321.38 55.3722 317.953 59.3819 316.429 61.4822C314.906 63.3916 313.383 65.11 311.67 67.0194C310.908 67.7832 310.337 68.7379 309.385 69.5016C309.004 69.6926 308.814 70.2654 308.623 70.6472C307.481 71.9838 306.339 73.3204 305.196 74.657C304.244 75.8026 303.102 76.9482 301.96 78.0938C301.198 79.0485 300.437 80.0032 299.675 80.9579C299.485 81.1489 299.485 81.5307 299.485 81.7217C299.675 81.9126 300.056 81.7217 300.246 81.5307C302.341 80.1942 304.435 79.0485 306.529 77.521C308.052 76.3754 309.766 75.4207 311.479 74.466C312.241 73.8932 313.002 73.3204 313.764 72.7476C315.668 71.2201 317.953 70.0744 320.237 69.1197C320.999 68.7379 321.57 68.356 322.141 67.9741C322.903 67.4013 323.855 67.2104 324.616 66.8285V69.5016C322.903 70.8382 321.38 72.3657 320.047 73.8932C319.285 74.8479 318.333 75.6116 317.762 76.7573C317.572 76.9482 317.381 77.1392 317.572 77.3301C317.762 77.521 318.143 77.521 318.333 77.3301C319.476 76.9482 320.428 76.5663 321.57 75.9935C322.522 75.4207 323.664 74.8479 324.616 74.2751V75.6116C323.093 75.9935 322.522 77.3301 321.189 77.9029C320.237 78.4757 319.095 78.8576 317.762 79.0485C317.191 79.0485 316.62 79.0485 315.858 78.8576C315.287 78.6667 315.097 78.4757 315.097 77.9029C315.097 77.3301 315.287 76.7573 315.668 76.1845C316.62 74.657 317.572 73.3204 318.714 71.7929C318.714 71.7929 318.905 71.6019 319.095 71.6019C319.095 71.6019 319.095 71.411 319.285 71.411C319.476 71.2201 319.857 71.2201 319.857 70.8382C319.857 70.8382 319.666 70.6472 319.666 70.8382C319.476 71.0291 319.095 71.0291 319.285 71.411V71.6019C318.905 71.2201 318.524 71.411 318.333 71.6019C316.239 72.9385 314.145 74.2751 312.05 75.8026C310.908 76.7573 309.575 77.3301 308.243 78.0938C306.339 79.4304 304.244 80.3851 302.341 81.5307C301.008 82.4854 299.485 83.4401 298.152 84.2039C297.771 84.3948 297.2 84.7767 296.629 84.7767C295.867 84.9676 295.106 84.5858 295.296 83.822C295.296 83.4401 295.296 82.8673 295.677 82.4854C296.248 81.9126 296.438 81.1489 296.819 80.576C297.39 79.6214 298.152 78.6667 298.914 77.712C299.485 77.3301 299.866 76.5663 300.056 75.9935C301.008 74.657 301.769 73.3204 302.912 71.9838C303.864 71.0291 304.816 69.8835 305.768 68.5469C305.196 68.5469 304.625 68.7379 304.435 69.1197C303.483 70.2654 301.96 70.8382 300.627 71.6019C298.723 72.9385 296.819 74.0841 294.725 75.2298C294.154 75.6116 293.583 76.1845 292.631 76.9482V75.2298C294.154 74.2751 295.487 73.1294 297.01 72.1748C298.533 71.2201 299.675 69.8835 301.008 68.9288C302.15 67.9741 302.721 67.0194 303.293 65.8738C303.483 65.4919 303.673 64.9191 303.864 64.5372C303.864 63.9644 303.864 63.5825 303.673 63.2006C303.673 62.8188 303.293 62.8188 302.912 62.8188C301.008 63.2006 299.485 64.3463 297.771 65.11C296.629 65.6828 295.677 66.8285 294.344 67.2104C294.154 67.2104 293.963 67.4013 293.963 67.5922C293.773 68.165 293.202 68.356 292.631 68.7379V66.0647C292.821 65.8738 293.011 65.6828 293.202 65.6828C294.344 64.9191 295.296 63.9644 296.248 63.0097C296.629 62.6278 297.2 62.4369 297.39 62.055C298.533 61.1003 300.056 60.3366 301.389 59.7637C302.531 59.3819 303.483 59 304.625 59C306.529 58.8091 307.1 59.7637 307.1 61.2913C307.1 62.2459 306.529 63.0097 306.339 63.9644C306.91 63.9644 307.481 63.5825 307.862 63.2006C314.906 59.5728 319.666 54.2265 324.616 48.8803ZM292.821 67.2104V69.8835C292.44 70.2654 291.869 70.4563 291.488 70.8382C290.536 71.7929 288.252 73.8932 287.49 74.8479C287.3 75.0388 286.919 75.0388 286.729 75.4207C285.967 76.7573 284.825 77.9029 283.873 79.0485C283.492 79.4304 283.111 79.6214 282.921 80.0032V77.712C283.111 77.521 283.111 77.3301 283.301 77.1392C284.825 75.2298 287.3 72.1748 289.013 70.4563C290.156 69.6926 291.298 68.356 292.821 67.2104ZM292.821 76.1845C290.727 77.521 287.68 80.1942 285.777 81.3398C285.205 81.7217 284.634 82.2945 284.063 82.6764C283.682 82.8673 283.492 83.0583 283.111 83.0583V84.7767C284.063 84.0129 285.205 83.6311 286.157 82.8673C287.109 82.1036 288.252 81.5307 289.394 80.767C289.965 80.3851 290.156 79.8123 290.727 79.6214C291.298 79.4304 292.059 78.6667 293.011 77.9029V76.1845H292.821ZM282.921 65.8738V61.8641C283.873 62.4369 284.634 63.3916 284.253 64.5372C284.253 64.7281 284.253 64.9191 284.063 65.301C283.873 65.4919 283.301 65.6828 282.921 65.8738ZM282.921 61.8641V65.8738C282.54 65.8738 282.159 65.8738 281.969 65.8738C281.588 65.6828 281.969 65.301 281.778 64.9191C281.588 64.7281 281.398 64.5372 281.207 64.5372V61.2913C281.778 61.2913 282.35 61.4822 282.921 61.8641C282.73 61.8641 282.73 61.8641 282.921 61.8641ZM282.921 78.0938V80.1942C282.73 80.767 282.35 81.3398 281.778 81.9126C281.398 82.1036 281.398 82.4854 281.588 82.8673C281.778 83.2492 281.969 83.0583 282.35 83.0583C282.54 83.0583 282.73 83.0583 282.921 83.0583V84.7767C282.35 84.9676 281.778 85.3495 281.017 85.5404V80.1942C281.207 80.0032 281.398 79.8123 281.588 79.4304C282.159 79.0485 282.54 78.4757 282.921 78.0938ZM281.017 61.2913V64.5372C277.971 62.6278 271.878 68.356 269.593 70.0744C266.928 72.1748 264.643 74.466 262.358 76.9482C261.216 78.2848 260.264 79.8123 259.503 81.3398C259.312 81.5307 259.122 81.9126 259.312 82.1036C259.503 82.2945 259.883 82.1036 260.074 81.9126C261.407 80.9579 262.739 80.3851 264.072 79.4304C265.786 78.2848 267.309 76.9482 269.022 75.8026C270.165 75.0388 271.307 74.0841 272.259 73.1294C273.782 71.9838 275.115 70.8382 276.638 69.8835C277.019 69.6926 277.399 69.5016 277.78 69.1197C277.971 68.9288 278.161 68.7379 278.351 68.9288C278.542 69.1197 278.922 69.3107 278.732 69.6926C278.542 70.0744 278.351 70.6472 278.161 71.0291C277.78 71.6019 277.399 72.1748 276.828 72.5566C276.067 73.3204 275.686 74.0841 275.305 74.8479C275.115 75.2298 274.924 75.6116 274.734 75.8026C273.972 76.3754 273.972 77.3301 273.401 77.9029C273.401 77.9029 273.401 78.0938 273.211 78.2848C272.068 79.8123 271.307 81.3398 269.974 82.8673C269.784 83.0583 269.593 83.2492 269.403 83.4401C268.832 83.6311 268.451 83.6311 268.451 83.0583C268.451 82.4854 268.451 81.7217 269.022 81.3398C269.974 80.1942 270.355 78.8576 271.688 77.9029C272.068 77.712 271.688 77.521 271.878 77.1392C272.068 76.7573 272.449 76.1845 272.449 75.8026C272.068 75.6116 271.878 75.8026 271.878 75.9935C270.736 77.1392 269.403 78.2848 267.88 79.2395C265.786 80.767 263.31 82.4854 261.026 83.822C260.455 84.2039 259.693 84.7767 258.931 84.9676C257.408 85.3495 256.456 84.7767 256.647 83.4401C256.837 82.4854 257.028 81.3398 257.789 80.576C258.17 80.1942 258.36 79.6214 258.551 79.0485C258.741 78.6667 258.931 78.0938 259.312 77.9029C259.883 77.521 260.264 76.7573 260.645 76.1845C261.407 75.0388 263.12 73.5113 264.262 72.1748C261.787 72.9385 256.076 76.7573 253.791 78.4757C251.125 80.3851 248.46 82.2945 246.175 84.3948C245.604 84.9676 245.033 84.9676 244.652 84.5858C244.462 84.3948 244.462 84.2039 244.462 84.0129C244.843 82.6764 245.604 81.5307 246.366 80.576C248.079 78.4757 249.602 76.1845 251.316 74.2751C251.887 73.7023 252.458 73.3204 252.839 72.5566C252.649 72.3657 252.458 72.5566 252.268 72.7476C251.316 73.3204 250.364 73.8932 249.412 74.657C248.27 75.6116 246.556 76.1845 245.414 77.3301C245.223 77.521 245.033 77.3301 244.843 77.3301C244.462 77.521 244.081 77.521 244.081 78.0938C244.081 78.4757 243.7 78.6667 243.319 78.6667C241.606 79.6214 240.083 80.576 238.369 81.3398C237.227 81.9126 235.894 82.6764 234.942 83.4401C234.752 83.6311 234.371 83.822 234.181 83.822C233.8 83.822 233.038 84.0129 233.038 83.6311C232.848 83.2492 232.658 82.6764 233.038 82.2945C234.181 80.1942 235.513 78.0938 236.656 75.9935C237.227 75.0388 237.798 74.0841 238.56 73.3204C238.75 73.1294 238.75 73.1294 238.75 72.9385C238.56 72.7476 238.56 72.9385 238.369 72.9385C236.465 74.466 234.181 75.6116 232.467 77.3301C231.706 78.0938 230.754 78.6667 229.992 79.2395C228.469 80.1942 227.136 81.3398 225.613 82.2945C223.709 83.4401 221.805 84.9676 219.711 85.7314C218.759 86.1133 217.807 86.6861 216.665 86.877C216.094 87.068 215.332 86.877 214.951 86.4951C214.57 85.9223 214.57 85.5405 214.951 84.7767C215.713 83.2492 216.855 81.9126 217.807 80.576C219.14 78.6667 220.853 76.9482 222.376 75.0388C222.567 74.657 222.948 74.2751 222.757 73.8932C221.805 74.0841 221.044 74.8479 220.282 75.4207C219.33 75.9935 218.378 76.7573 217.426 77.3301C216.094 78.6667 214.19 79.2395 212.667 80.3851C212.095 80.767 211.334 80.9579 210.763 81.3398C209.62 81.9126 208.668 82.4854 207.526 83.0583C206.955 83.2492 206.384 83.822 205.812 83.822C205.432 83.822 204.86 84.3948 204.289 84.5858C203.718 84.7767 203.147 84.9676 202.576 85.3495C202.005 85.7314 201.243 85.9223 200.672 86.1133C199.72 86.4951 198.958 86.877 198.006 87.2589C197.054 87.4498 196.103 87.4498 195.341 87.4498C193.437 87.6408 191.914 87.2589 190.391 86.3042C189.82 85.9223 189.058 85.3495 189.248 84.3948C189.248 83.822 189.058 83.822 188.487 84.0129C186.773 84.9676 185.06 85.5404 183.537 86.4951C182.014 87.4498 181.823 88.0226 180.11 88.4045C178.777 88.4045 177.635 92.4142 176.492 94.8964C176.492 95.2783 176.302 95.2783 175.921 95.4693C175.54 95.6602 174.779 96.0421 174.588 96.233C174.398 96.4239 174.208 96.6149 173.827 96.6149V92.2233C174.017 92.0324 174.208 92.0324 174.398 91.6505C174.588 91.2686 174.779 90.8867 174.208 90.6958C173.827 90.5049 173.827 90.5049 173.827 90.6958V89.3592C174.398 89.1683 174.969 88.9773 175.54 88.4045C177.254 85.7314 178.206 82.8673 180.11 80.3851C180.3 80.1942 180.3 80.1942 180.3 80.0032C180.871 78.6667 181.442 77.521 182.394 76.5663C182.775 76.1845 183.346 75.6116 183.346 75.2298C183.346 74.466 184.108 74.0841 184.108 73.3204C184.108 72.9385 184.869 72.9385 184.869 72.5566C184.869 71.9838 185.631 72.1748 185.631 71.7929C185.631 71.411 185.821 71.0291 186.012 70.6472C186.773 69.6926 187.535 68.7379 188.106 67.7832C189.629 65.4919 191.533 63.3916 192.866 60.9094C194.008 58.8091 195.722 56.8997 197.245 54.9903C197.435 54.7993 197.626 54.6084 197.435 54.4175C197.245 54.2265 196.864 54.2265 196.864 54.4175C196.293 54.9903 195.722 55.5631 195.151 56.1359C193.437 57.8544 191.724 59.3819 190.01 60.9094C189.248 61.4822 188.487 62.246 187.725 62.8188C186.773 63.7735 185.631 64.9191 184.679 65.8738C183.537 67.0194 182.394 67.9741 181.442 68.9288C180.3 70.0744 179.158 71.2201 177.825 72.1748C177.063 72.7476 176.302 73.5113 175.54 74.0841C174.969 74.657 174.398 75.0388 173.636 75.6116V72.5566C174.208 72.1748 174.779 71.6019 175.16 71.2201C176.111 70.2654 177.063 69.3107 178.015 68.5469C180.49 66.0647 182.966 63.7735 185.631 61.4822C186.583 60.7184 187.345 59.7637 188.106 59C190.01 57.0906 191.914 55.3722 193.818 53.6537C195.151 52.3172 196.674 50.9806 198.006 49.4531C199.53 47.7346 201.433 46.2071 202.957 44.4887C204.099 43.1521 205.812 42.0065 206.574 40.479C206.764 40.288 206.955 40.0971 207.145 39.9061C207.526 39.5243 208.097 39.1424 208.478 38.5696C208.859 37.6149 209.811 37.0421 210.572 36.4693C212.095 34.178 218.949 27.6861 220.092 26.1586C220.663 25.3948 221.424 24.822 221.996 24.2492C225.042 20.8123 227.327 19.2848 230.182 15.8479C231.134 14.7023 233.419 12.411 234.371 11.0744C235.323 9.73786 236.846 8.78317 237.798 7.63754C238.56 6.87378 240.654 4.58252 241.416 3.81877C242.558 2.67314 242.367 3.05501 243.51 1.90938C243.891 1.5275 244.271 1.33657 244.462 1.14563C244.843 0.572812 245.414 0.572812 245.795 0.572812C245.985 0.572812 246.175 0.763751 246.556 0.954689C246.937 1.14563 246.556 1.33657 246.746 1.5275C246.746 2.67314 245.985 2.4822 245.414 3.24595C244.081 4.77346 242.939 6.11003 241.416 7.4466C239.512 9.16505 238.369 11.2654 236.656 12.9838C236.465 13.1748 236.465 13.1748 236.275 13.3657C234.181 14.8932 232.848 16.9935 231.134 18.712C228.469 21.576 226.755 23.1036 224.09 25.9676C221.424 28.6408 213.618 36.8511 210.953 39.7152C209.62 41.2427 208.668 42.7702 207.145 44.2977C206.384 45.0615 205.622 46.0162 205.241 46.9709C204.86 48.1165 203.718 49.0712 202.957 50.2168C201.624 51.7443 200.672 53.2718 199.53 54.9903C197.245 58.2362 194.96 61.6731 192.675 65.11C190.581 68.165 188.677 71.0291 186.773 74.0841C186.012 75.0388 182.585 81.3398 182.585 81.3398C182.394 81.5307 182.394 81.7217 182.394 81.9126C182.204 82.2945 182.014 82.8673 181.823 83.0583C180.871 84.0129 180.49 85.5405 180.11 86.6861C179.919 87.068 180.3 87.2589 180.49 87.068C181.062 86.6861 180.3 86.6861 180.871 86.877C181.062 86.877 181.062 86.6861 181.252 86.6861C181.823 86.3042 182.394 85.9223 182.966 85.7314C183.727 85.5405 184.298 84.9676 184.869 84.5858C185.06 84.3948 185.441 84.2039 185.821 84.0129C188.296 83.2492 190.01 81.5307 191.533 79.4304C191.724 79.2395 191.724 79.0485 191.914 79.0485C192.295 79.0485 192.675 78.6667 192.866 78.2848C193.056 77.712 193.818 77.521 193.818 76.7573C193.818 76.3754 194.579 76.3754 194.96 76.1845C195.151 75.8026 194.77 75.2298 195.341 75.2298C196.103 75.0388 196.293 74.2751 196.864 74.0841C197.435 73.8932 198.006 73.3204 198.578 72.9385C200.101 71.7929 201.814 70.6472 203.337 69.3107C204.86 68.165 206.764 67.2104 208.478 66.0647C209.62 65.4919 210.763 64.9191 211.905 64.3463C213.238 63.7735 214.38 63.0097 215.713 62.6278C216.284 62.4369 216.855 62.4369 217.426 62.2459C217.807 62.055 218.188 62.4369 218.378 62.6278C218.569 62.8188 218.569 62.8188 218.378 63.0097C217.997 63.2006 217.807 63.5825 217.426 63.3916C217.236 63.2006 217.045 63.3916 217.236 63.5825C217.426 64.1553 216.855 64.5372 216.474 64.7282C215.142 65.6828 213.809 66.8285 212.667 67.7832C211.334 68.7379 210.191 69.6926 209.049 70.4563C208.668 70.6472 208.288 71.0291 208.097 71.2201C207.526 71.6019 207.145 72.1748 206.384 72.3657C205.812 72.5566 205.241 73.1294 204.67 73.5113C203.718 74.0841 202.766 74.657 201.814 75.4207C199.72 77.3301 197.245 78.6667 194.96 80.3851C194.199 80.9579 193.247 81.5307 192.485 82.1036C191.533 82.6764 191.343 83.822 191.724 84.5858C191.914 84.7767 191.914 84.9676 192.295 84.9676C194.579 85.5405 196.864 85.3495 199.339 84.5858C201.624 83.822 203.718 82.8673 206.003 81.7217C206.574 81.5307 206.955 81.1489 207.526 81.1489C207.907 81.1489 208.288 80.9579 208.668 80.767C210.953 79.2395 213.428 77.712 215.522 75.9935C217.807 74.466 220.092 72.9385 222.186 71.411C224.661 69.5016 227.136 67.7832 229.802 65.8738C230.754 65.11 231.515 64.1553 232.658 63.5825C232.848 63.3916 233.229 63.2006 233.609 63.2006C234.181 63.2006 234.371 63.3916 234.181 63.9644C233.99 64.7281 233.419 65.301 233.038 65.8738C230.944 68.5469 228.659 71.2201 226.375 73.8932C224.852 75.8026 222.948 77.521 221.424 79.4304C220.853 80.3851 220.092 81.1489 219.521 82.1036C219.33 82.2945 219.14 82.6764 219.33 82.8673C219.521 83.0583 219.711 82.8673 220.092 82.8673C220.853 82.4854 221.805 82.2945 222.567 81.9126C223.138 81.7217 223.709 81.3398 224.28 80.767C224.471 80.576 224.661 80.3851 224.852 80.1942C226.565 79.4304 228.088 78.0938 229.611 77.1392C230.373 76.5663 231.134 75.9935 232.086 75.4207C233.8 74.2751 235.513 72.7476 237.037 71.411C238.369 70.2654 239.892 69.3107 241.225 67.9741C242.558 66.6375 244.081 65.8738 245.604 64.7282C246.366 64.1553 247.127 63.3916 248.27 63.7735C249.031 63.9644 249.031 63.9644 248.65 64.7282C248.079 65.6828 247.318 66.4466 246.746 67.4013C244.843 70.0744 242.939 72.7476 240.844 75.2298C239.892 76.3754 239.321 77.521 238.179 78.4757C238.179 78.6667 238.179 78.8576 237.988 79.0485C239.131 78.6667 240.083 78.2848 241.035 77.712C241.987 76.9482 243.129 76.5663 244.271 75.8026C246.746 74.2751 249.031 72.7476 251.316 71.2201C253.029 70.0744 254.743 68.7379 256.456 67.5922C257.599 66.8285 258.741 66.2557 259.693 65.301C260.074 64.9191 260.645 64.7281 261.216 65.11C261.787 65.301 261.787 65.8738 261.597 66.2557C261.407 66.8285 261.407 67.2104 261.026 67.5922C260.264 68.5469 259.312 69.6926 258.741 70.8382C257.979 72.1748 256.837 73.3204 256.076 74.8479C256.456 75.0388 256.647 74.8479 256.837 74.657C260.455 72.3657 264.453 70.6472 267.689 67.7832C268.07 67.5922 268.832 67.7832 269.022 67.0194C269.213 66.4466 269.974 66.4466 270.545 66.0647C272.449 65.301 273.782 63.7735 275.305 63.0097C277.019 61.4822 279.303 61.1003 281.017 61.2913ZM281.017 80.1942C279.494 81.9126 278.542 83.6311 277.78 85.5404C277.59 85.9223 277.59 86.4951 277.78 86.4951C278.351 86.4951 278.542 87.068 279.303 86.6861C279.874 86.3042 280.255 86.1133 280.826 85.7314V80.1942H281.017ZM173.827 72.5566V75.0388C172.875 75.9935 171.732 76.9482 170.781 77.712C169.448 78.8576 168.305 79.8123 167.163 80.9579V78.6667C168.115 77.9029 169.067 76.9482 170.209 75.9935C171.352 74.8479 172.684 73.7023 173.827 72.5566ZM173.827 88.7864V90.123C173.827 90.3139 173.827 90.3139 173.827 90.5049C173.827 90.6958 173.256 90.6958 173.065 91.2686C173.065 91.4595 173.065 91.6505 173.256 91.6505C173.446 91.8414 173.636 91.6505 173.827 91.4595V95.8511C172.875 96.233 171.732 96.233 171.352 95.8511C170.59 95.2783 170.209 94.7055 170.019 93.7508C169.829 92.4142 169.067 92.0324 167.734 92.0324C167.544 92.0324 167.354 92.0324 167.163 92.0324V89.932C167.544 89.932 168.115 89.932 168.686 89.932C168.305 89.3592 168.305 88.9773 168.115 88.5955C167.925 88.0227 167.544 87.6408 167.163 87.2589V83.2492C167.734 83.2492 168.115 83.4401 168.496 83.822C169.448 84.7767 170.4 85.7314 171.161 86.877C171.542 87.4498 171.923 88.2136 172.113 88.7864C172.304 89.1683 172.494 89.3592 172.875 89.3592C173.256 88.9773 173.636 88.9773 173.827 88.7864ZM167.163 78.6667V80.9579C166.782 81.3398 166.592 81.5307 166.211 81.9126C166.021 82.1036 165.64 82.2945 165.83 82.6764C166.021 83.0582 166.402 83.0583 166.592 83.0583C166.782 83.0583 166.973 83.0583 167.163 83.0583V87.068C166.782 86.4951 166.402 86.1133 165.83 85.7314C165.64 85.5405 165.45 85.3495 165.069 85.5404C164.498 85.7314 163.546 87.2589 163.546 87.6408C163.926 88.9773 165.45 90.123 166.592 89.932C166.782 89.932 166.973 89.932 166.973 89.7411V91.8414C166.211 91.8414 165.45 91.8414 164.688 91.6505C162.594 91.0777 161.261 89.7411 161.071 87.4498C161.071 87.068 161.071 86.877 160.88 86.4951C159.547 86.877 158.786 88.2136 157.834 88.9773C157.453 89.1683 157.263 89.5502 156.882 89.7411C153.836 92.4142 143.174 102.725 142.032 104.252C141.841 104.443 141.841 104.634 141.651 104.634C140.318 105.016 139.556 106.353 138.414 106.926C138.224 107.117 137.843 107.307 137.653 107.307V105.016C138.985 104.252 140.318 103.298 141.27 101.961C142.032 100.816 143.174 100.052 144.126 99.288C147.743 96.0421 160.88 83.6311 164.688 80.3851C165.45 80.0032 166.211 79.4304 167.163 78.6667ZM137.653 78.2848V75.8026C138.224 75.2298 138.795 74.657 139.556 74.0841C140.699 73.1294 141.841 71.9838 142.793 71.0291C143.935 70.0744 145.078 68.9288 146.03 67.9741C146.41 67.5922 146.601 66.8285 146.982 66.2557C146.22 66.0647 145.649 66.4466 145.268 66.6375C143.555 67.7832 141.651 68.356 139.747 69.3107C138.985 69.6926 138.414 70.0744 137.653 70.2654V68.5469C138.795 67.9741 139.747 67.2104 141.08 66.8285C141.651 66.6375 142.222 66.0647 142.983 66.0647C143.174 66.0647 143.555 65.8738 143.555 65.6828C143.935 64.9191 144.697 64.5372 145.268 64.1553C146.982 63.0097 148.695 62.2459 150.599 62.2459C150.98 62.2459 151.551 61.8641 151.932 62.055C152.313 62.2459 152.503 62.6278 152.313 63.0097C151.551 64.1553 150.98 65.301 149.838 66.0647C149.266 66.4466 148.886 67.0194 148.505 67.5922C147.362 68.9288 145.839 69.8835 144.697 71.0291C143.555 72.1748 142.412 73.3204 141.27 74.657C140.508 75.6116 139.747 76.3754 138.795 77.1392C138.414 77.3301 138.033 77.712 137.653 78.2848ZM137.653 6.68284V0.572812C138.033 0.954689 138.414 1.33657 138.414 1.71844C138.414 2.4822 138.795 3.24595 138.033 4.00971C138.033 4.00971 137.843 4.20064 138.033 4.20064C138.033 5.15534 137.843 6.11003 137.653 6.68284ZM137.653 0.572812V6.68284C137.272 7.4466 136.891 8.21035 136.51 8.97411C136.32 9.54692 135.939 9.9288 135.368 10.3107C135.177 10.6926 135.177 10.6926 135.177 10.8835C135.177 11.2654 135.177 11.8382 134.606 12.2201C134.225 12.6019 134.225 12.9838 133.654 13.3657C133.464 13.3657 133.464 13.9385 133.274 14.1294C132.893 15.2751 131.75 16.0388 130.798 16.8026C125.277 23.2945 117.471 31.5049 108.904 39.3333V36.2783C110.236 35.1327 111.379 33.7961 112.711 32.4595C118.042 27.1133 122.612 22.5307 124.706 19.8576C125.848 18.3301 127.371 16.9935 128.514 15.466C129.085 14.8932 130.989 12.6019 132.702 10.1197C134.797 6.87378 136.51 3.43689 135.939 2.86407C135.558 2.67314 135.177 2.67314 134.797 2.86407C133.845 3.05501 128.895 7.25566 128.514 8.01941C128.323 8.21035 128.323 8.21035 128.133 8.21035C127.752 8.21035 127.562 8.40129 127.371 8.78317C126.991 9.54692 126.039 9.73786 125.848 10.6926C125.848 10.6926 125.848 10.8835 125.658 10.8835C125.277 11.0744 125.087 11.4563 124.706 11.6472C124.325 11.8382 124.516 12.2201 124.135 12.411C123.754 12.7929 123.183 12.9838 122.992 13.3657C122.04 14.3204 121.089 15.2751 119.946 16.0388C119.375 16.6116 118.804 16.9935 118.233 17.5663C116.71 19.2848 112.14 23.4854 108.713 27.6861V23.8673C110.046 22.5307 111.188 21.1942 112.711 19.8576C113.283 19.2848 117.09 15.466 117.661 14.8932C118.423 14.3204 119.185 13.7476 119.565 12.7929C119.946 12.0291 120.898 11.6472 121.469 10.8835C121.66 10.6926 121.85 10.5016 122.04 10.3107C122.612 9.73786 123.183 9.16504 123.944 8.78317C124.706 8.59223 125.277 8.21035 125.658 7.63754C126.229 6.87378 127.181 6.49191 127.752 5.53721C127.752 5.34628 127.943 5.34628 128.133 5.34628C128.704 5.34628 129.085 4.9644 129.466 4.58252C129.656 4.20064 130.037 4.20064 130.227 3.81877C130.227 3.81877 130.418 3.62783 130.608 3.81877C130.608 4.00971 130.227 4.20064 130.798 4.20064C130.989 4.20064 131.179 3.81877 130.989 3.62783C130.798 3.43689 130.798 3.24595 131.179 3.05501C131.75 2.67314 131.941 2.29126 132.702 2.29126C133.083 2.29126 133.274 2.10032 133.464 1.90938C134.416 0.954689 135.558 0.763751 136.701 0.381874C137.081 0.190935 137.272 0.381874 137.462 0.381874L137.653 0.572812ZM137.653 68.356V70.0744C137.272 70.2654 137.081 70.4563 136.701 70.6472C135.939 71.0291 135.177 71.6019 134.606 71.9838C132.702 73.1294 130.989 74.2751 129.085 75.4207C127.562 76.3754 125.848 77.521 124.135 78.2848C123.183 78.8576 122.231 79.6214 121.279 80.1942C120.517 80.767 119.756 81.3398 118.804 81.7217C117.852 82.1036 116.9 82.6764 116.138 83.2492C115.567 83.6311 114.806 83.822 114.234 83.4401C113.663 83.0583 113.283 82.4854 113.283 81.9126C113.473 81.3398 113.854 80.767 114.234 80.1942C115.186 79.0485 116.138 77.9029 117.09 76.7573C118.042 75.6116 119.375 74.466 120.137 73.3204C120.898 72.3657 121.469 71.411 122.231 70.4563C122.231 70.4563 122.231 70.2654 122.231 69.8835C121.089 70.6472 119.946 71.2201 118.804 71.7929C116.519 73.1294 114.615 74.657 112.331 75.9935C111.188 76.5663 110.046 77.3301 108.904 77.9029V76.1845L110.046 75.6116C111.188 74.8479 112.331 74.0841 113.473 73.5113C114.806 72.7476 115.948 71.7929 117.09 71.0291C117.471 70.8382 117.852 70.6472 118.233 70.4563C118.423 70.4563 118.804 70.2654 118.994 70.0744C120.137 68.7379 121.66 67.9741 123.183 66.8285C124.135 66.0647 125.468 65.4919 126.419 64.7282C127.562 63.7735 129.085 63.2006 130.037 62.055C130.418 61.4822 131.179 61.2913 131.75 60.9094C133.083 60.1456 134.225 59.1909 135.368 58.4272C135.558 58.2362 135.939 58.2362 136.129 58.2362C136.51 58.4272 136.891 58.4272 136.891 58.0453C137.081 57.8544 137.462 57.2815 136.51 57.0906C137.272 56.8997 137.462 57.0906 137.653 57.4725C137.653 57.6634 137.843 57.6634 137.653 57.8544C136.891 58.8091 136.129 59.9547 134.987 60.9094C134.225 61.4822 133.464 62.4369 132.702 63.0097C131.941 63.5825 131.37 64.3463 130.418 64.9191C129.846 65.301 129.275 65.8738 128.895 66.4466C128.514 66.8285 128.133 67.0194 127.752 67.4013C127.562 67.5922 127.181 67.7832 127.371 67.9741V68.165C126.61 68.356 126.61 69.1197 126.229 69.5016C125.848 69.8835 125.468 70.4563 125.087 70.8382C124.896 71.411 124.325 71.7929 123.944 72.1748C122.992 72.9385 122.421 74.0841 121.469 74.8479C120.708 75.6116 119.946 76.3754 119.375 77.3301C118.613 78.2848 117.852 79.0485 117.281 80.0032C118.423 79.8123 119.375 79.2395 120.327 78.6667C122.421 77.521 124.135 75.9935 126.229 74.8479C126.991 74.466 127.562 73.8932 128.323 73.5113C130.989 71.7929 133.464 70.0744 136.129 68.5469L137.653 68.356ZM137.653 75.8026C136.891 76.5663 136.129 77.3301 135.558 77.9029C134.797 78.8576 133.654 79.6214 132.893 80.3851C131.56 81.5307 130.227 82.6764 129.085 84.0129C128.704 84.3948 128.323 84.7767 127.752 85.1586C127.371 85.3495 126.991 85.5405 126.991 85.9223C128.133 85.9223 129.085 85.5405 130.037 84.7767C132.702 82.6764 135.177 80.576 137.653 78.0938V75.8026ZM137.653 105.207V107.498C137.462 107.498 137.081 107.498 136.891 107.307C136.51 106.735 136.891 105.971 137.272 105.398C137.462 105.398 137.462 105.398 137.653 105.207ZM109.094 71.411C109.284 71.2201 109.284 71.2201 109.475 71.0291C109.855 70.8382 110.236 70.4563 110.236 69.8835C110.236 69.6926 110.427 69.5016 110.807 69.3107C111.188 69.1197 112.14 69.3107 111.95 68.356L112.14 68.165C112.711 68.165 112.902 67.7832 112.902 67.4013C113.092 66.8285 113.473 66.6375 113.854 66.4466C114.425 66.2557 115.186 66.2557 115.567 65.4919C115.567 65.301 115.948 65.11 116.138 65.11C116.329 65.11 116.71 64.9191 116.71 64.7282C116.9 64.1553 117.281 64.1553 117.852 63.9644C118.042 63.9644 118.042 63.7735 118.042 63.5825C117.852 63.5825 117.661 63.5825 117.661 63.3916C117.661 63.2006 117.852 63.0097 118.233 63.2006C118.423 63.0097 118.804 62.8188 118.994 62.2459C118.994 62.055 119.185 62.055 119.185 62.055C119.375 62.055 119.375 62.055 119.565 61.8641L119.375 62.055C119.375 62.2459 119.565 62.2459 119.756 62.2459C120.137 62.2459 120.137 61.8641 120.327 61.6731C120.137 61.6731 119.946 61.8641 119.756 61.8641C119.946 61.4822 119.946 61.1003 120.517 60.9094L120.708 61.2913C120.898 61.1003 121.279 61.1003 121.279 60.7184C121.089 60.9094 120.708 60.9094 120.517 60.9094C120.708 60.7184 120.517 60.5275 120.898 60.5275C121.279 60.5275 121.66 60.1456 122.231 60.1456C122.612 60.1456 122.992 59.5728 123.373 59.1909C123.564 59 123.564 59 123.754 58.8091C125.848 57.0906 127.752 55.1812 129.656 53.4628C129.846 53.2718 130.037 53.0809 129.846 52.89C129.656 52.699 129.466 52.699 129.085 52.89C128.133 53.2718 127.181 53.8447 126.229 54.6084C125.848 54.9903 125.277 55.3722 124.896 55.754C124.135 56.1359 123.564 56.7087 122.612 56.8997C122.802 56.3269 123.183 56.1359 123.183 55.754C123.564 54.7994 124.516 54.2265 124.706 53.0809C124.706 52.89 124.896 52.89 125.087 52.89C125.277 52.89 125.468 52.699 125.468 52.5081C125.658 51.3625 126.61 50.5987 126.991 49.644C127.181 49.2621 127.181 48.6893 127.371 48.3074C127.943 47.3527 128.514 46.3981 128.704 45.4434C128.895 45.0615 129.466 44.4887 128.704 44.2977V44.1068C129.275 43.534 128.704 43.534 128.323 43.343C127.752 42.9612 126.991 43.343 126.229 43.1521C125.848 42.9612 125.277 43.1521 124.896 43.343C123.944 43.9159 122.802 44.4887 121.66 44.8705C121.089 45.0615 120.708 45.2524 120.137 45.4434C119.756 45.6343 119.185 46.0162 118.804 46.2071C118.613 46.3981 118.423 46.3981 118.233 46.3981C117.281 46.589 116.329 46.9709 115.567 47.5437C114.806 47.9256 114.234 48.3074 113.473 48.6893C112.902 49.0712 112.331 49.644 111.569 49.8349C111.379 50.5987 110.427 50.7896 109.855 51.1715C109.475 51.5534 108.904 51.7443 108.523 52.1262V54.4175H108.713C109.665 54.7993 109.855 53.8447 110.617 53.8447C110.617 53.2718 111.569 53.2718 111.569 52.699C111.569 52.699 111.759 52.5081 111.95 52.5081C112.711 52.5081 113.092 51.9353 113.663 51.7443C114.615 51.1715 115.567 50.4078 116.329 49.644C116.9 49.2621 117.471 49.0712 117.852 48.6893C119.185 48.1165 120.517 47.1618 122.04 46.9709C122.802 46.7799 123.564 46.3981 124.325 46.2071C125.277 46.0162 125.848 46.2071 125.848 47.1618C125.848 47.7346 125.658 48.3074 125.468 48.8803C124.706 50.7896 123.754 52.5081 122.421 54.0356C121.66 54.9903 120.708 55.945 120.137 56.8997C119.756 57.4725 118.994 58.0453 118.423 58.6181C117.281 59.7638 116.329 60.9094 115.186 61.8641C113.854 63.0097 112.711 64.1553 111.379 65.11C110.427 65.8738 109.475 66.4466 108.713 67.2104V71.411H109.094ZM109.094 55.754V55.3722C109.284 55.3722 109.284 55.1812 109.475 55.1812C109.475 55.3722 109.284 55.5631 109.094 55.754ZM107.571 56.3269C107.38 56.5178 107.38 56.8997 107.19 56.8997V56.5178L107.571 56.3269ZM109.094 23.8673V27.6861C108.713 28.068 108.332 28.6408 108.142 29.0226C107.761 29.5955 107.571 29.2136 107.19 29.5955V25.9676C107.761 25.2039 108.332 24.6311 109.094 23.8673ZM109.094 36.4693V39.5243C108.523 40.0971 107.761 40.6699 107.19 41.2427V38.1877C107.761 37.6149 108.332 37.0421 109.094 36.4693ZM109.094 52.5081V54.7994C108.904 54.7994 108.713 54.9903 108.713 54.9903C108.142 55.3722 107.761 55.754 107.19 56.1359V53.8447C107.38 53.6537 107.571 53.2718 107.761 53.2718C108.142 53.0809 108.142 52.1262 108.904 52.5081C108.904 52.5081 108.904 52.5081 109.094 52.5081ZM109.094 55.1812C108.713 55.3722 108.713 55.3722 108.713 55.754C108.904 55.754 108.904 55.5631 109.094 55.5631V55.1812ZM109.094 67.5922V71.411C108.523 71.7929 107.761 72.3657 107.19 72.7476V68.9288C107.571 68.7379 107.952 68.5469 108.332 68.165C108.523 67.9741 108.713 67.7832 109.094 67.5922ZM109.094 76.5663V78.2848C108.523 78.6667 108.142 78.8576 107.571 79.2395C107.571 79.2395 107.38 79.4304 107.19 79.4304H107V77.712C107.761 77.3301 108.332 76.9482 109.094 76.5663ZM107.19 56.8997C107.19 56.8997 107 56.8997 106.809 56.7087L107.19 56.5178V56.8997ZM107.19 25.9676V29.5955C107.19 29.5955 107 29.5955 107 29.7864C105.476 31.3139 102.621 34.3689 99.7648 37.233V33.7961C100.717 32.8414 101.669 31.8867 102.24 31.3139C104.144 29.2136 105.667 27.4951 107.19 25.9676ZM107.19 38.1877V41.0518C104.715 43.1521 102.43 45.2524 99.9551 47.3527V44.6796C102.24 42.7702 104.715 40.479 107.19 38.1877ZM107.19 53.8447C105.096 55.3722 103.382 57.2815 101.097 58.8091C100.717 59.1909 100.336 59.5728 99.9551 59.9547V60.5275C100.146 60.5275 100.146 60.3366 100.336 60.3366C100.336 60.5275 100.146 60.7184 99.9551 60.9094V63.0097C100.717 62.4369 101.288 62.055 101.859 61.2913C102.049 61.1003 102.24 61.1003 102.43 60.9094C103.382 60.1456 104.334 59.5728 105.096 58.8091C105.667 58.4272 106.238 58.0453 106.619 57.6634C105.857 57.6634 105.476 58.2362 104.905 58.4272C104.715 58.2362 104.905 58.0453 104.905 58.0453C105.667 57.4725 106.428 56.8997 107.19 56.3269V53.8447ZM107.19 68.9288V72.7476C107 72.9385 106.619 73.1294 106.428 73.3204C105.667 74.0841 104.715 74.466 104.334 75.4207C104.334 75.6116 104.144 75.6116 103.953 75.8026C102.24 76.9482 101.097 78.4757 99.9551 80.0032V77.521C100.336 77.1392 100.717 76.5663 101.288 76.1845C101.288 76.1845 101.288 75.9935 101.478 75.8026C101.288 75.8026 101.097 75.9935 100.717 75.9935L99.9551 76.3754V73.8932C100.336 73.5113 100.717 73.3204 101.097 73.1294C101.288 72.5566 102.049 72.7476 102.43 72.3657C103.001 71.7929 103.953 71.411 104.715 70.6472C105.286 70.0744 106.238 69.8835 106.619 69.1197C106.619 69.1197 106.809 69.1197 107.19 68.9288ZM107.19 77.712C106.619 78.0938 106.048 78.4757 105.476 78.6667C104.525 79.2395 103.763 80.0032 102.811 80.3851C101.859 80.767 101.097 81.1489 100.146 81.5307C99.9551 81.5307 99.9551 81.5307 99.7648 81.7217V83.6311C101.478 82.8673 103.001 81.7217 104.715 80.9579C105.476 80.576 106.238 79.8123 107.19 79.6214V77.712ZM99.7648 33.7961V37.233C97.4801 39.5243 95.3858 42.0065 93.8626 43.343C93.2915 43.9159 93.1011 43.7249 92.5299 44.2977C89.4837 47.3527 85.6758 51.7443 83.9623 53.4628C83.0104 54.4175 82.0584 55.3722 80.9161 56.3269C79.9641 57.2815 79.0122 58.4272 78.0602 59.3819C77.6794 59.7638 76.9179 60.3366 76.7275 60.9094C77.6794 60.9094 78.441 60.5275 79.0122 59.9547C83.3911 56.8997 87.7701 54.0356 91.3876 51.1715C94.2434 49.0712 96.9089 46.7799 99.5744 44.6796V47.3527C90.8164 54.4175 81.6776 60.7184 73.3004 64.7282V61.1003C74.4428 59.9547 75.3947 59 76.3467 57.8544C76.9179 57.0906 77.8698 56.5178 78.441 55.5631C79.0122 54.6084 79.9641 54.0356 80.7257 53.0809C81.4872 52.3171 82.2488 51.5534 83.0104 50.7896C84.7239 49.0712 87.3894 46.589 89.4837 44.2977C91.7683 42.3883 96.5281 37.233 99.7648 33.7961ZM99.7648 59.9547C99.384 60.3366 99.0032 60.7184 98.432 60.9094C97.8608 61.8641 96.7185 62.4369 95.9569 63.2006C94.4338 64.7281 92.5299 65.6828 91.3876 67.5922C91.3876 67.5922 91.1972 67.5922 91.1972 67.7832C90.2452 68.165 89.8644 69.3107 88.9125 69.6926L88.7221 69.8835C88.5317 70.6472 87.7701 71.2201 87.199 71.7929C87.0086 71.9838 86.6278 72.1748 86.6278 72.3657C86.6278 72.9385 86.0566 73.1294 85.6758 73.5113C85.4854 73.7023 85.1047 74.0841 84.9143 74.2751C84.3431 75.0388 83.9623 75.8026 83.0104 76.3754C82.82 76.5663 82.6296 76.7573 82.6296 77.1392C82.6296 77.521 82.4392 77.712 82.2488 77.9029C81.868 78.8576 81.1065 79.6214 80.5353 80.576C79.7737 81.9126 79.7737 82.8673 80.9161 83.822C81.1065 84.0129 81.4872 84.2039 81.6776 84.3948C80.9161 85.3495 79.9641 85.9223 78.8218 86.1133C77.6794 86.3042 76.5371 87.068 75.3947 86.877C74.6332 87.2589 74.062 87.068 73.6812 86.6861V89.1683C74.8236 88.9773 75.7755 88.9773 76.9179 88.4045C77.1083 88.2136 77.489 88.2136 77.6794 88.2136C78.6314 88.0227 79.5833 87.6408 80.3449 87.2589C82.6296 85.9223 85.1047 84.9676 87.5797 83.6311C89.1029 82.8673 90.4356 82.1036 91.9587 81.3398C93.2915 80.576 94.6242 79.8123 95.9569 79.0485C97.2897 78.2848 98.8128 77.3301 100.146 76.5663V74.0841C99.7648 74.466 99.1936 74.8479 98.6224 75.2298C97.8608 75.8026 97.0993 76.5663 96.1473 76.7573C94.8146 78.2848 92.7203 78.8576 91.0068 80.0032L90.8164 80.1942C89.2933 80.576 88.1509 81.5307 86.8182 82.1036C86.0566 82.4854 85.2951 82.6764 84.5335 83.0583C84.1527 83.2492 83.7719 83.2492 83.7719 82.6764C83.7719 82.2945 83.5815 82.2945 83.2008 82.2945C82.4392 82.1036 82.2488 81.7217 82.6296 81.1489C83.7719 79.4304 84.9143 77.521 86.247 75.9935C87.199 74.8479 88.3413 73.7023 89.2933 72.3657C90.2452 71.0291 91.5779 69.8835 92.9107 68.7379C93.8626 67.7832 94.8146 67.0194 95.7665 66.2557C96.7185 65.301 97.8608 64.5372 98.8128 63.7735C99.1936 63.3916 99.5744 63.2006 100.146 62.8188V60.7184C100.146 60.7184 99.9551 60.9094 99.7648 60.9094C99.7648 60.7184 99.9551 60.5275 100.146 60.5275V59.9547H99.7648ZM99.7648 77.712V80.1942C99.384 80.576 99.1936 81.1489 98.8128 81.5307C99.1936 81.7217 99.5744 81.7217 99.7648 81.5307V83.4401C99.5744 83.4401 99.384 83.6311 99.384 83.6311C98.432 84.0129 97.4801 84.0129 96.5281 84.0129C96.1473 84.0129 95.9569 83.822 96.1473 83.4401C96.7185 82.4854 97.0993 81.3398 97.8608 80.3851C98.432 79.4304 99.0032 78.4757 99.7648 77.712ZM73.4908 82.2945V81.1489C73.6812 80.9579 73.8716 80.767 73.6812 80.3851C73.6812 80.576 73.4908 80.576 73.4908 80.767V79.8123C73.6812 79.6214 73.8716 79.4304 74.062 79.2395C75.3947 77.9029 77.1082 76.7573 78.6314 75.2298C79.0122 74.8479 79.5833 75.0388 80.3449 74.8479C79.7737 75.6116 79.2025 75.9935 78.6314 76.3754C78.2506 76.5663 77.8698 76.9482 77.489 77.3301C76.9179 77.9029 76.3467 78.4757 75.7755 79.2395C74.8236 80.1942 74.2524 81.1489 73.4908 82.2945ZM73.4908 61.1003V64.7282L73.3004 64.9191C72.1581 65.301 71.3965 66.2557 70.635 67.0194C67.9695 69.6926 65.304 72.5566 62.6385 75.4207C55.0229 83.6311 47.4073 91.6505 39.7916 99.8608C38.2685 101.388 36.1742 103.489 33.5088 106.544C32.176 108.262 28.3682 111.89 26.8451 113.417C26.0835 114.372 25.1316 115.709 23.9892 116.854C22.6565 118.191 20.943 118.764 19.8006 116.854C19.4198 116.472 19.6102 116.091 19.4198 115.709C19.2294 115.136 19.039 114.563 18.8487 113.99C18.8487 113.799 18.6583 113.608 18.8487 113.608C19.2294 112.845 18.6583 112.272 18.6583 111.699C18.6583 111.508 18.6583 111.317 18.4679 111.317C17.8967 111.317 17.8967 110.935 17.8967 110.744C17.5159 107.689 16.1832 106.162 15.612 104.634C14.4697 101.579 14.2793 101.197 11.9946 96.233C11.233 94.7055 10.8522 93.178 9.51951 91.8414C9.13872 91.4595 8.56755 89.5502 8.18677 89.1683C7.80599 88.7864 7.6156 88.5955 7.42521 88.2136C7.04443 87.068 5.90208 85.9223 4.75974 84.3948C3.80778 83.2492 2.85583 83.0583 1.90387 82.8673C1.14231 82.6764 0.571138 82.6764 0.761529 83.0583C0.761529 82.8673 0.380747 82.8673 0.380747 82.8673C-3.43919e-05 81.1489 0.571138 80.9579 1.52309 80.9579C2.85583 80.9579 3.80778 81.9126 4.56934 82.1036C4.95013 82.2945 5.33091 82.4854 5.5213 82.8673C5.71169 83.2492 5.90208 83.4401 6.28286 83.4401C6.47325 83.4401 6.66364 83.6311 6.85403 83.822C8.37716 85.5405 9.13872 87.068 10.6619 88.7864C11.233 88.9773 11.4234 89.7411 11.9946 90.5049C12.185 90.6958 12.3754 90.8867 12.3754 91.0777C12.7562 91.6505 13.3273 92.0324 13.3273 92.9871C13.3273 93.178 13.3273 93.178 13.5177 93.3689C14.8504 94.5146 14.2793 94.5146 15.0408 96.0421C15.4216 96.6149 15.8024 97.1877 15.9928 97.9514C15.9928 98.1424 16.1832 98.3333 16.1832 98.5243H16.3736C16.7544 98.9061 16.9447 99.0971 16.7544 99.6699V99.8608C17.3255 100.434 16.9447 101.197 17.5159 101.388C17.7063 101.579 18.0871 101.77 17.7063 102.152V102.343C18.4679 102.916 18.4679 103.68 18.8487 104.443C19.039 105.016 19.4198 105.589 19.6102 106.162C19.6102 106.353 19.8006 106.353 19.8006 106.735C19.8006 106.926 19.8006 107.117 19.991 107.307C20.7526 107.88 20.943 109.026 21.3237 109.79C21.5141 110.172 21.3237 110.362 21.1333 110.744C21.7045 110.744 21.7045 111.126 21.7045 111.317C21.8949 111.699 21.8949 112.081 21.8949 112.463C21.8949 112.654 21.7045 113.036 22.0853 113.036C22.4661 113.036 22.6565 112.845 22.8469 112.463C23.418 111.699 24.7508 110.553 25.3219 109.981C26.6547 108.644 29.8913 105.016 31.4144 103.871C32.9376 102.725 33.8895 101.197 35.2223 100.052C38.2685 97.3786 40.3628 95.2783 42.4571 92.7961C47.0265 87.8317 51.9767 83.0583 56.546 78.0938C57.6884 76.9482 58.6403 75.6116 59.7827 74.657C60.925 73.7023 61.4962 72.5566 62.6385 71.6019L62.8289 71.411C63.4001 70.2654 64.5425 69.5016 65.4944 68.5469C65.4944 68.5469 65.6848 68.5469 65.6848 68.356C65.8752 68.165 66.0656 68.165 65.8752 67.9741C65.6848 67.7832 65.4944 67.7832 65.304 67.9741C63.2097 68.7379 61.3058 69.6926 59.2115 70.4563C56.9268 71.2201 54.6421 72.1748 52.3574 72.7476C50.6439 73.1294 48.74 73.1294 47.0265 73.3204C45.8842 73.3204 45.1226 72.9385 44.1706 72.5566C43.9802 72.5566 43.7899 72.3657 43.7899 72.1748C43.7899 71.9838 44.1706 71.7929 44.361 71.7929C46.0745 71.2201 47.5977 70.4563 49.3112 70.2654C49.5016 70.2654 49.5016 70.2654 49.692 70.2654C49.8824 70.2654 49.8824 70.2654 50.0727 70.4563C50.0727 70.6472 50.0727 70.6472 50.0727 70.6472C49.8824 70.8382 49.692 71.0291 49.3112 71.2201C48.9304 71.411 48.9304 71.6019 48.9304 71.7929C49.1208 71.9838 49.3112 72.1748 49.692 72.1748C49.8824 72.1748 50.0728 72.1748 50.2631 71.9838C50.8343 71.6019 51.4055 71.6019 51.9767 71.411C54.2613 71.0291 56.3556 70.0744 58.4499 69.5016C59.4019 69.3107 60.1635 68.7379 61.1154 68.356C63.0193 67.5922 64.9232 67.0194 66.8271 66.0647C67.9695 65.4919 69.1118 64.7281 70.2542 63.9644C70.4446 63.9644 70.4446 63.7735 70.635 63.7735C71.5869 63.7735 71.7773 63.2006 72.1581 62.6278C72.3485 62.055 72.9196 61.6731 73.4908 61.1003ZM73.4908 79.6214C71.9677 81.3398 70.8254 83.2492 69.8734 85.1586C69.1118 86.4951 69.683 87.8317 71.2061 88.4045C71.3965 88.5955 71.5869 88.7864 71.9677 88.7864C72.3485 88.9773 72.7293 89.5502 73.3004 89.3592C73.4908 89.3592 73.4908 89.3592 73.6812 89.3592V86.877C73.3004 86.6861 73.11 86.4951 72.7293 86.3042C72.3485 86.1133 72.3485 85.9223 72.3485 85.7314C72.3485 84.9676 72.1581 84.2039 72.7293 83.4401C72.9197 83.0583 73.3004 82.6764 73.4908 82.2945V81.1489C73.3004 81.1489 73.3004 81.3398 73.11 81.5307C73.11 81.1489 73.3004 80.9579 73.4908 80.767V79.6214Z" fill="#C99A44"/>
</g>
<defs>
<clipPath id="clip0">
<rect width="531" height="118" fill="white"/>
</clipPath>
</defs>
</svg>
