<svg width="300" height="67" viewBox="0 0 300 67" fill="none" xmlns="http://www.w3.org/2000/svg">
<g clip-path="url(#clip0)">
<path fill-rule="evenodd" clip-rule="evenodd" d="M246.991 48.7039V47.636C251.065 46.9952 255.139 46.3544 259.106 45.7136C272.292 43.8981 291.268 40.5874 295.342 40.1602C295.878 40.0534 296.95 39.3059 297.915 39.4127C298.343 39.4127 298.772 39.6263 299.201 40.1602C299.844 40.9078 297.271 40.801 295.556 41.1214C294.377 41.2282 293.948 41.5486 293.305 41.6554C289.981 41.0146 271.434 44.4321 257.819 46.6748C254.174 47.4224 250.422 48.0632 246.991 48.7039ZM246.991 39.3059V37.7039C248.063 37.3835 249.135 36.9564 250.1 36.4224C250.636 36.102 251.172 35.8884 251.708 35.6748C251.923 35.568 252.137 35.4612 252.352 35.2476C252.244 35.2476 252.137 35.1408 252.03 35.1408C250.958 35.034 249.993 35.034 248.921 35.4612C248.385 35.6748 247.849 35.8884 247.313 35.9952C247.206 35.9952 246.991 36.102 246.884 36.102V34.8204C247.742 34.9272 248.599 34.5 249.457 34.3933C250.529 34.2865 251.601 34.0729 252.566 34.0729C252.888 34.0729 253.316 34.0729 253.638 34.1797C253.745 34.1797 253.852 34.1797 253.96 34.2865C254.603 34.5 254.71 34.7136 254.389 35.3544C254.281 35.6748 254.174 36.102 253.852 36.3156C253.424 36.636 253.102 36.9564 252.566 37.17C252.459 37.17 252.459 37.17 252.352 37.2767C251.601 37.8107 250.743 37.9175 249.993 38.3447C249.457 38.6651 248.814 38.7719 248.278 39.0923C247.956 39.3059 247.634 39.4127 247.206 39.4127C247.313 39.1991 247.098 39.1991 246.991 39.3059ZM246.991 13.8884V12.6068C247.956 11.6457 248.707 10.8981 248.921 10.6845C249.243 10.3641 249.457 10.3641 249.671 10.3641C249.993 10.4709 250.1 10.7913 250.207 10.8981C250.1 11.0049 250.1 11.2185 249.993 11.2185C249.779 11.3253 247.527 13.568 247.313 13.8884H246.991ZM246.991 12.6068V13.9952C244.204 16.8787 237.235 23.8204 237.235 24.034C237.235 24.1408 237.128 24.2476 237.021 24.2476C236.914 24.3544 236.485 24.3544 236.699 24.6748C236.699 24.6748 236.592 24.7816 236.485 24.7816C236.271 24.7816 236.271 24.7816 236.271 24.9952C236.271 25.102 236.271 25.102 236.163 25.2088C235.627 25.7428 235.306 26.0632 234.77 26.7039C234.555 26.9175 234.448 27.2379 234.019 27.2379C233.912 27.2379 233.698 27.5583 233.59 27.7719C233.269 28.3059 232.84 28.7331 232.411 29.1602C231.553 30.0146 228.659 32.8981 227.694 33.7525C227.48 33.9661 227.158 34.2865 226.944 34.6068C226.515 34.9272 226.3 35.3544 225.979 35.6748C225.764 35.8884 225.55 35.9952 225.228 36.2088C224.907 36.3156 224.692 36.5292 224.799 36.8496C224.799 36.9564 224.799 37.0632 224.692 37.0632C224.049 37.3835 223.727 38.1311 223.191 38.5583C223.084 38.6651 222.977 38.7719 222.977 38.8787C222.762 39.1991 222.87 39.4127 223.299 39.5195C223.727 39.6263 224.263 39.7331 224.692 40.1602C224.799 40.267 224.907 40.1602 225.014 40.1602C225.657 40.267 226.3 40.3738 226.944 40.267C227.48 40.267 227.908 40.267 228.444 40.3738C228.98 40.4806 229.517 40.3738 230.16 40.4806C231.125 40.5874 232.197 40.4806 233.269 40.3738C234.448 40.267 235.52 40.267 236.699 39.8399C236.914 39.7331 237.128 39.7331 237.343 39.7331C237.664 39.7331 237.879 39.7331 237.986 39.4127C238.093 39.3059 238.2 39.1991 238.307 39.1991H238.415C238.736 38.6651 239.594 38.7719 239.916 38.1311C240.023 37.9175 240.13 37.7039 240.452 37.9175C240.559 37.9175 240.666 38.0243 240.666 37.9175C240.88 37.4903 241.416 37.4903 241.738 37.17C241.953 36.8496 242.381 36.9564 242.703 36.636C243.132 36.3156 243.561 36.102 244.097 35.8884C244.847 35.4612 245.598 35.3544 246.348 35.034C246.455 34.9272 246.67 34.9272 246.777 34.8204C246.777 34.7136 246.884 34.7136 246.991 34.7136V35.9952C246.455 36.2088 245.812 36.3156 245.383 36.636C244.954 36.8496 244.418 37.0632 243.989 37.3835C243.668 37.7039 243.239 37.9175 242.81 38.1311C242.381 38.3447 241.953 38.6651 241.631 38.9855C241.845 39.0923 242.06 39.0923 242.274 39.0923C242.81 38.9855 243.239 38.8787 243.775 38.6651C244.74 38.3447 245.705 38.0243 246.67 37.7039C246.777 37.7039 246.884 37.7039 246.991 37.5971V39.3059L246.884 39.4127C246.134 39.7331 245.49 39.9467 244.633 39.9467C244.525 39.9467 244.418 39.9467 244.418 40.0534C244.311 40.5874 243.775 40.3738 243.453 40.4806C242.917 40.5874 242.274 40.4806 241.631 40.6942C241.524 40.6942 241.309 40.801 241.202 40.801C240.666 40.6942 240.237 40.9078 239.701 41.1214C239.594 41.2282 239.487 41.2282 239.38 41.2282C238.951 41.2282 238.629 41.4418 238.307 41.7622C237.771 42.0826 237.45 42.6166 236.914 42.9369C236.485 43.1505 236.163 43.6845 235.735 44.0049C235.52 44.2185 235.413 44.5389 234.984 44.5389C234.877 44.5389 234.877 44.6457 234.877 44.6457C234.877 44.9661 234.662 45.0729 234.341 45.0729C234.126 45.0729 233.912 45.2865 233.805 45.5C233.376 46.1408 233.269 46.1408 233.162 46.8884C233.162 46.9952 233.054 47.102 233.054 47.102C232.947 47.2088 232.947 47.3156 232.947 47.4224C233.162 47.3156 233.376 47.3156 233.483 47.5292C233.59 47.7428 233.483 47.9564 233.59 48.17C233.698 48.4903 234.019 48.7039 234.448 48.8107C235.413 49.1311 237.235 49.0243 239.272 48.8107C241.738 48.5971 244.311 48.2768 246.884 47.8496V48.9175C246.241 49.0243 245.598 49.1311 245.062 49.2379C245.062 49.2379 245.062 49.2379 245.062 49.1311C239.487 50.0923 233.912 50.8399 231.553 49.7719C231.125 49.5583 230.91 49.3447 230.803 49.0243C230.803 48.7039 230.589 48.3835 230.481 48.17C230.374 47.9564 230.374 47.7428 230.589 47.636C230.803 47.5292 230.803 47.4224 230.91 47.3156C231.232 46.568 231.661 45.8204 232.304 45.2865C232.304 44.8593 232.84 44.8593 232.947 44.5389C233.054 44.2185 233.269 44.0049 233.483 43.6845C233.59 43.5777 233.59 43.5777 233.698 43.4709C234.019 43.3641 234.234 43.1505 234.341 42.8301C234.448 42.6166 234.662 42.2962 234.984 42.2962C235.306 42.1894 235.306 41.869 235.413 41.5486C234.019 41.4418 232.733 41.5486 231.339 41.5486C230.374 41.5486 229.517 41.5486 228.552 41.335C228.23 41.2282 227.801 41.2282 227.48 41.2282C226.729 41.335 225.979 41.1214 225.228 41.1214C224.585 41.1214 223.942 41.0146 223.406 40.801C222.977 40.6942 222.548 40.5874 222.119 40.5874C221.69 40.4806 221.369 40.5874 221.154 40.9078C220.833 41.335 220.297 41.7622 219.975 42.1894C219.653 42.6166 218.903 43.3641 218.153 44.2185V42.6166C218.796 41.869 219.332 41.1214 219.653 40.9078C219.975 40.6942 220.19 40.3738 220.404 40.0534C220.618 39.8399 220.618 39.6263 220.404 39.5195C220.19 39.3059 220.082 39.3059 219.761 39.5195C219.439 39.7331 219.225 39.8399 219.117 40.1602C218.903 40.4806 218.581 41.0146 218.153 41.5486V39.4127C218.367 39.1991 218.581 38.8787 218.689 38.7719C219.01 38.3447 219.546 38.0243 219.975 37.5971C220.082 37.3835 220.618 37.4903 220.833 37.7039C221.154 37.9175 221.476 38.1311 221.69 38.4515C221.798 38.6651 222.012 38.6651 222.119 38.4515C222.334 38.2379 222.548 38.0243 222.762 37.8107C223.62 36.8496 224.478 35.8884 225.335 34.9272C225.871 34.1797 228.98 31.0826 229.731 30.4418C229.838 30.335 229.838 30.335 229.731 30.2282C229.731 30.2282 229.624 30.2282 229.517 30.2282C228.659 30.7622 226.086 32.3641 222.119 34.1797C220.833 34.7136 219.546 35.2476 218.153 35.7816V34.9272C219.761 34.3933 221.369 33.7525 222.977 33.1117C226.515 31.5098 230.91 29.0534 233.698 26.3835C234.662 25.4224 234.877 25.4224 235.842 24.4612C236.807 23.2865 243.561 16.1311 246.991 12.6068ZM218.367 25.7428C218.903 25.2088 219.439 24.7816 219.975 24.2476C220.19 24.034 220.511 23.9272 220.404 23.6068C220.404 23.5 220.404 23.5 220.511 23.5C220.94 23.5 221.154 23.1797 221.369 22.9661C221.798 22.5389 225.871 18.3738 226.3 17.9466C226.408 17.8398 226.515 17.7331 226.515 17.6263C226.515 17.4127 226.729 17.3059 226.944 17.1991C227.372 16.9855 227.587 16.5583 228.016 16.2379C228.23 16.0243 228.123 15.8107 228.23 15.5971C228.23 15.4903 228.23 15.3835 228.123 15.4903C227.801 15.4903 227.48 15.4903 227.265 15.7039C224.263 18.801 221.476 21.5777 218.367 24.034V25.7428ZM218.367 24.034V25.7428C217.509 26.4903 216.652 27.3447 215.901 28.1991C215.794 28.3059 215.687 28.4127 215.687 28.5195C215.58 28.7331 215.472 28.9466 215.151 29.1602C214.186 30.0146 213.221 30.869 212.363 31.8301C212.042 32.1505 211.827 32.4709 211.506 32.8981C211.291 33.2185 210.97 33.4321 210.755 33.8593C210.648 34.0729 210.434 33.9661 210.219 33.9661C210.112 33.9661 210.434 34.1797 210.219 34.3933C209.898 34.7136 209.576 35.1408 209.147 35.3544C208.611 35.568 208.611 35.9952 208.29 36.4224C209.362 36.4224 210.434 36.4224 211.291 36.3156C211.613 36.4224 211.827 36.2088 212.149 36.2088C213.65 36.2088 215.901 35.6748 218.367 34.9272V35.7816C215.58 36.7428 212.685 37.4903 209.79 37.8107C209.147 37.9175 208.397 37.8107 207.754 37.9175C207.432 37.5971 207.217 37.8107 206.789 37.9175C206.467 38.0243 206.253 38.3447 206.038 38.5583C205.931 38.6651 205.824 38.7719 205.717 38.8787C205.395 39.0923 205.181 39.4127 204.859 39.7331C204.645 40.1602 203.251 42.0826 202.608 42.5098V41.0146C203.358 40.0534 204.43 38.8787 204.752 38.4515C205.288 37.9175 205.181 37.8107 204.645 37.4903C204.537 37.5971 204.323 37.8107 204.216 37.9175C203.787 38.3447 203.251 38.7719 202.822 39.3059L202.608 39.6263V37.5971C202.822 37.3835 203.036 37.0632 203.251 36.8496C203.68 36.4224 204.216 36.102 204.966 36.3156C205.609 36.5292 206.038 36.3156 206.574 35.8884C207.432 34.9272 208.504 34.1797 209.362 33.2185C210.434 32.1505 211.399 31.0826 212.363 29.9078C212.471 29.801 212.578 29.5874 212.578 29.3738C212.149 29.4806 211.827 29.5874 211.613 29.9078C211.399 30.1214 211.077 30.2282 210.755 30.335C210.005 30.869 209.147 31.2962 208.397 31.8301C208.182 31.9369 207.968 32.1505 207.754 32.1505C207.11 32.3641 206.574 32.6845 206.038 33.0049C205.181 33.4321 204.43 33.7525 203.68 34.1797C203.358 34.3933 203.036 34.5 202.715 34.7136V33.7525C203.358 33.4321 203.894 33.0049 204.537 32.7913C206.467 32.0437 212.256 28.6263 213.972 27.4515C215.58 26.1699 216.973 25.102 218.367 24.034ZM218.367 39.4127C217.295 40.6942 215.58 42.9369 214.722 43.7913C214.079 44.5389 213.543 45.2865 213.221 46.1408C213.221 46.3544 213.114 46.4612 213.114 46.6748C213.007 46.9952 213.114 47.2088 213.543 47.3156C214.079 47.5292 214.508 47.3156 214.936 47.102C215.58 46.7816 216.223 46.2476 216.759 45.8204C217.081 45.5 217.724 44.8593 218.474 44.2185V42.6166C217.938 43.2573 217.295 44.0049 217.081 44.2185C216.866 44.4321 216.652 44.6457 216.437 44.8593C216.33 44.8593 216.33 44.9661 216.116 44.9661C216.223 44.7525 216.223 44.5389 216.437 44.3253C216.866 43.8981 217.831 42.6166 218.474 41.6554V39.4127H218.367ZM202.822 33.4321V34.3933C201.75 34.9272 200.678 35.4612 199.606 35.9952C198.427 36.636 197.247 37.2767 196.068 37.8107C195.21 38.2379 194.353 38.6651 193.495 38.9855C192.745 39.3059 191.887 39.6263 191.136 39.8399C191.029 39.8399 190.922 39.8399 190.922 39.8399C190.6 39.4127 190.279 39.7331 189.957 39.8399C189.636 39.9467 189.314 39.8399 188.992 39.8399C188.885 39.8399 188.778 39.8399 188.563 39.8399V38.2379L188.671 38.1311C189.314 37.5971 189.314 36.8496 189.743 36.2088C189.1 36.2088 188.885 36.3156 188.563 36.4224V35.568C188.671 35.4612 188.885 35.4612 188.992 35.3544C189.636 35.034 190.493 34.9272 191.244 35.034C191.672 35.034 191.672 35.1408 191.78 35.568C191.78 36.102 191.458 36.4224 191.136 36.8496C190.815 37.3835 190.279 37.8107 189.957 38.4515C190.279 38.5583 190.493 38.4515 190.815 38.3447C191.351 38.2379 191.887 38.1311 192.423 38.1311C192.852 38.1311 193.281 38.0243 193.602 37.8107C194.567 37.17 195.639 36.8496 196.711 36.4224C198.212 35.6748 199.82 35.034 201.321 34.3933C201.428 34.2865 201.536 34.1797 201.75 34.0729C201.964 33.9661 202.393 33.7525 202.822 33.4321ZM202.822 37.2767C202.5 37.5971 202.286 37.9175 201.964 38.2379C201.643 38.4515 201.428 38.7719 201.214 39.0923C200.892 39.5195 199.391 41.6554 199.177 42.0826C198.748 42.8301 198.105 43.4709 197.89 44.2185C197.783 44.5389 197.676 44.8593 197.676 45.1797C197.676 45.7136 198.212 46.1408 198.748 46.034C199.606 45.7136 200.356 45.2865 200.999 44.6457C201.107 44.4321 201.107 44.0049 201.536 44.0049C201.643 44.0049 201.643 43.7913 201.536 43.6845C201.428 43.5777 201.536 43.4709 201.643 43.4709C201.964 43.5777 201.857 43.1505 202.179 43.1505C202.393 43.1505 202.5 42.8301 202.715 42.6166C202.393 42.403 202.715 42.2962 202.822 42.2962C202.822 42.2962 202.822 42.2962 202.929 42.2962V40.801C202.608 41.2282 202.286 41.5486 202.072 41.7622C201.536 42.1894 201.107 42.7234 200.571 43.3641C200.356 43.1505 200.356 42.9369 200.463 42.8301C200.892 42.1894 202.286 40.267 202.929 39.4127V37.2767H202.822ZM188.563 24.2476V22.4321C189.207 21.7913 189.85 21.0437 190.493 20.403C190.708 20.1894 190.922 19.9758 191.244 19.869C191.565 19.7622 191.78 19.7622 191.78 20.0826C191.78 20.5098 191.672 20.9369 191.351 21.3641C191.136 21.6845 190.922 22.0049 190.6 22.3253C189.85 22.9661 189.207 23.6068 188.563 24.2476ZM188.563 22.4321V24.2476C188.135 24.6748 187.706 24.9952 187.277 25.4224C186.312 26.2767 184.811 27.9855 183.203 29.6942V28.0923C184.704 26.3835 186.312 24.6748 187.92 22.9661C188.135 22.8593 188.349 22.6457 188.563 22.4321ZM188.563 35.568V36.4224C188.456 36.4224 188.242 36.5292 188.135 36.636C187.384 36.9564 187.17 37.5971 187.706 38.2379C187.813 38.4515 188.135 38.4515 188.349 38.5583C188.456 38.5583 188.563 38.4515 188.671 38.3447V39.9467C188.349 39.9467 188.135 40.1602 187.92 40.267C186.527 41.4418 185.026 42.2962 183.418 43.2573H183.31V42.5098C184.597 41.7622 185.883 40.801 187.17 39.9467C187.384 39.7331 187.491 39.6263 187.17 39.4127C186.634 38.9855 186.312 38.4515 186.312 37.7039C185.24 38.3447 184.382 38.9855 183.525 39.6263L183.418 39.7331V38.2379C183.525 38.2379 183.632 38.1311 183.846 38.1311C184.597 37.8107 185.24 37.3835 185.883 36.9564C186.527 36.5292 187.277 36.2088 188.027 35.9952C188.027 35.7816 188.349 35.6748 188.563 35.568ZM183.203 28.1991V29.6942C181.381 31.8301 179.451 34.0729 178.593 35.2476C177.736 36.3156 176.878 37.2767 175.913 38.3447C175.484 38.7719 175.163 39.3059 174.627 39.7331C174.412 39.8399 174.305 40.1602 174.198 40.3738C173.555 41.1214 172.911 41.869 172.268 42.6166C171.732 43.2573 171.089 43.8981 170.446 44.5389C170.017 45.0729 169.588 45.6068 169.159 46.1408C169.052 46.2476 169.052 46.4612 169.052 46.568C169.159 46.6748 169.373 46.568 169.481 46.4612C170.66 45.7136 171.839 45.0729 173.018 44.2185C173.876 43.5777 174.841 43.0437 175.806 42.5098C176.235 42.1894 176.664 41.869 177.092 41.5486C178.164 40.6942 179.451 40.0534 180.737 39.5195C181.166 39.3059 181.488 39.0923 181.809 38.8787C182.238 38.5583 182.774 38.4515 183.203 38.2379V39.7331C182.238 40.4806 181.381 41.335 180.63 42.1894C180.201 42.7234 179.665 43.1505 179.344 43.7913C179.236 43.8981 179.129 44.0049 179.236 44.1117C179.344 44.2185 179.558 44.2185 179.665 44.1117C180.309 43.8981 180.845 43.6845 181.488 43.3641C182.024 43.0437 182.667 42.7234 183.203 42.403V43.1505C182.345 43.3641 182.024 44.1117 181.273 44.4321C180.737 44.7525 180.094 44.9661 179.344 45.0729C179.022 45.0729 178.7 45.0729 178.272 44.9661C177.95 44.8593 177.843 44.7525 177.843 44.4321C177.843 44.1117 177.95 43.7913 178.164 43.4709C178.7 42.6166 179.236 41.869 179.88 41.0146C179.88 41.0146 179.987 40.9078 180.094 40.9078C180.094 40.9078 180.094 40.801 180.201 40.801C180.309 40.6942 180.523 40.6942 180.523 40.4806C180.523 40.4806 180.416 40.3738 180.416 40.4806C180.309 40.5874 180.094 40.5874 180.201 40.801V40.9078C179.987 40.6942 179.773 40.801 179.665 40.9078C178.486 41.6554 177.307 42.403 176.127 43.2573C175.484 43.7913 174.734 44.1117 173.983 44.5389C172.911 45.2865 171.732 45.8204 170.66 46.4612C169.909 46.9952 169.052 47.5292 168.301 47.9564C168.087 48.0632 167.765 48.2768 167.444 48.2768C167.015 48.3835 166.586 48.17 166.693 47.7428C166.693 47.5292 166.693 47.2088 166.908 46.9952C167.229 46.6748 167.337 46.2476 167.551 45.9272C167.873 45.3933 168.301 44.8593 168.73 44.3253C169.052 44.1117 169.266 43.6845 169.373 43.3641C169.909 42.6166 170.338 41.869 170.982 41.1214C171.518 40.5874 172.054 39.9467 172.59 39.1991C172.268 39.1991 171.946 39.3059 171.839 39.5195C171.303 40.1602 170.446 40.4806 169.695 40.9078C168.623 41.6554 167.551 42.2962 166.372 42.9369C166.05 43.1505 165.728 43.4709 165.192 43.8981V42.9369C166.05 42.403 166.8 41.7622 167.658 41.2282C168.516 40.6942 169.159 39.9467 169.909 39.4127C170.553 38.8787 170.874 38.3447 171.196 37.7039C171.303 37.4903 171.41 37.17 171.518 36.9564C171.518 36.636 171.518 36.4224 171.41 36.2088C171.41 35.9952 171.196 35.9952 170.982 35.9952C169.909 36.2088 169.052 36.8496 168.087 37.2767C167.444 37.5971 166.908 38.2379 166.157 38.4515C166.05 38.4515 165.943 38.5583 165.943 38.6651C165.836 38.9855 165.514 39.0923 165.192 39.3059V37.8107C165.3 37.7039 165.407 37.5971 165.514 37.5971C166.157 37.17 166.693 36.636 167.229 36.102C167.444 35.8884 167.765 35.7816 167.873 35.568C168.516 35.034 169.373 34.6068 170.124 34.2865C170.767 34.0729 171.303 33.8593 171.946 33.8593C173.018 33.7525 173.34 34.2865 173.34 35.1408C173.34 35.6748 173.018 36.102 172.911 36.636C173.233 36.636 173.555 36.4224 173.769 36.2088C177.736 34.1797 180.416 31.1894 183.203 28.1991ZM165.3 38.4515V39.9467C165.085 40.1602 164.764 40.267 164.549 40.4806C164.013 41.0146 162.727 42.1894 162.298 42.7234C162.191 42.8302 161.976 42.8301 161.869 43.0437C161.44 43.7913 160.797 44.4321 160.261 45.0729C160.046 45.2865 159.832 45.3933 159.725 45.6068V44.3253C159.832 44.2185 159.832 44.1117 159.939 44.0049C160.797 42.9369 162.191 41.2282 163.155 40.267C163.799 39.8399 164.442 39.0923 165.3 38.4515ZM165.3 43.4709C164.12 44.2185 162.405 45.7136 161.333 46.3544C161.011 46.568 160.69 46.8884 160.368 47.102C160.154 47.2088 160.046 47.3156 159.832 47.3156V48.2768C160.368 47.8496 161.011 47.636 161.547 47.2088C162.083 46.7816 162.727 46.4612 163.37 46.034C163.691 45.8204 163.799 45.5001 164.12 45.3933C164.442 45.2865 164.871 44.8593 165.407 44.4321V43.4709H165.3ZM159.725 37.7039V35.4612C160.261 35.7816 160.69 36.3156 160.475 36.9564C160.475 37.0632 160.475 37.17 160.368 37.3835C160.261 37.4903 159.939 37.5971 159.725 37.7039ZM159.725 35.4612V37.7039C159.51 37.7039 159.296 37.7039 159.189 37.7039C158.974 37.5971 159.189 37.3835 159.082 37.17C158.974 37.0632 158.867 36.9564 158.76 36.9564V35.1408C159.082 35.1408 159.403 35.2476 159.725 35.4612C159.618 35.4612 159.618 35.4612 159.725 35.4612ZM159.725 44.5389V45.7136C159.618 46.034 159.403 46.3544 159.082 46.6748C158.867 46.7816 158.867 46.9952 158.974 47.2088C159.082 47.4224 159.189 47.3156 159.403 47.3156C159.51 47.3156 159.618 47.3156 159.725 47.3156V48.2768C159.403 48.3835 159.082 48.5971 158.653 48.7039V45.7136C158.76 45.6068 158.867 45.5 158.974 45.2865C159.296 45.0729 159.51 44.7525 159.725 44.5389ZM158.653 35.1408V36.9564C156.937 35.8884 153.507 39.0923 152.22 40.0534C150.719 41.2282 149.433 42.5098 148.146 43.8981C147.503 44.6457 146.967 45.5 146.538 46.3544C146.431 46.4612 146.324 46.6748 146.431 46.7816C146.538 46.8884 146.753 46.7816 146.86 46.6748C147.61 46.1408 148.361 45.8204 149.111 45.2865C150.076 44.6457 150.934 43.8981 151.899 43.2573C152.542 42.8302 153.185 42.2962 153.721 41.7622C154.579 41.1214 155.329 40.4806 156.187 39.9467C156.401 39.8399 156.616 39.7331 156.83 39.5195C156.937 39.4127 157.045 39.3059 157.152 39.4127C157.259 39.5195 157.473 39.6263 157.366 39.8399C157.259 40.0534 157.152 40.3738 157.045 40.5874C156.83 40.9078 156.616 41.2282 156.294 41.4418C155.865 41.869 155.651 42.2962 155.437 42.7234C155.329 42.9369 155.222 43.1505 155.115 43.2573C154.686 43.5777 154.686 44.1117 154.364 44.4321C154.364 44.4321 154.364 44.5389 154.257 44.6457C153.614 45.5001 153.185 46.3544 152.435 47.2088C152.328 47.3156 152.22 47.4224 152.113 47.5292C151.792 47.636 151.577 47.636 151.577 47.3156C151.577 46.9952 151.577 46.568 151.899 46.3544C152.435 45.7136 152.649 44.9661 153.4 44.4321C153.614 44.3253 153.4 44.2185 153.507 44.0049C153.614 43.7913 153.828 43.4709 153.828 43.2573C153.614 43.1505 153.507 43.2573 153.507 43.3641C152.864 44.0049 152.113 44.6457 151.255 45.1797C150.076 46.034 148.683 46.9952 147.396 47.7428C147.074 47.9564 146.646 48.2768 146.217 48.3835C145.359 48.5971 144.823 48.2768 144.93 47.5292C145.037 46.9952 145.145 46.3544 145.574 45.9272C145.788 45.7136 145.895 45.3933 146.002 45.0729C146.11 44.8593 146.217 44.5389 146.431 44.4321C146.753 44.2185 146.967 43.7913 147.182 43.4709C147.61 42.8302 148.575 41.9758 149.219 41.2282C147.825 41.6554 144.609 43.7913 143.322 44.7525C141.821 45.8204 140.32 46.8884 139.034 48.0632C138.712 48.3835 138.391 48.3835 138.176 48.17C138.069 48.0632 138.069 47.9564 138.069 47.8496C138.283 47.102 138.712 46.4612 139.141 45.9272C140.106 44.7525 140.964 43.4709 141.928 42.403C142.25 42.0826 142.572 41.869 142.786 41.4418C142.679 41.335 142.572 41.4418 142.465 41.5486C141.928 41.869 141.392 42.1894 140.856 42.6166C140.213 43.1505 139.248 43.4709 138.605 44.1117C138.498 44.2185 138.391 44.1117 138.283 44.1117C138.069 44.2185 137.855 44.2185 137.855 44.5389C137.855 44.7525 137.64 44.8593 137.426 44.8593C136.461 45.3933 135.603 45.9272 134.638 46.3544C133.995 46.6748 133.245 47.102 132.709 47.5292C132.601 47.636 132.387 47.7428 132.28 47.7428C132.065 47.7428 131.637 47.8496 131.637 47.636C131.529 47.4224 131.422 47.102 131.637 46.8884C132.28 45.7136 133.03 44.5389 133.674 43.3641C133.995 42.8301 134.317 42.2962 134.746 41.869C134.853 41.7622 134.853 41.7622 134.853 41.6554C134.746 41.5486 134.746 41.6554 134.638 41.6554C133.566 42.5098 132.28 43.1505 131.315 44.1117C130.886 44.5389 130.35 44.8593 129.921 45.1797C129.064 45.7136 128.313 46.3544 127.456 46.8884C126.383 47.5292 125.311 48.3835 124.132 48.8107C123.596 49.0243 123.06 49.3447 122.417 49.4515C122.095 49.5583 121.666 49.4515 121.452 49.2379C121.238 48.9175 121.238 48.7039 121.452 48.2768C121.881 47.4224 122.524 46.6748 123.06 45.9272C123.811 44.8593 124.775 43.8981 125.633 42.8301C125.74 42.6166 125.955 42.403 125.847 42.1894C125.311 42.2962 124.883 42.7234 124.454 43.0437C123.918 43.3641 123.382 43.7913 122.846 44.1117C122.095 44.8593 121.023 45.1797 120.165 45.8204C119.844 46.034 119.415 46.1408 119.093 46.3544C118.45 46.6748 117.914 46.9952 117.271 47.3156C116.949 47.4224 116.628 47.7428 116.306 47.7428C116.092 47.7428 115.77 48.0632 115.448 48.17C115.127 48.2768 114.805 48.3835 114.484 48.5971C114.162 48.8107 113.733 48.9175 113.411 49.0243C112.875 49.2379 112.447 49.4515 111.911 49.6651C111.375 49.7719 110.838 49.7719 110.41 49.7719C109.338 49.8787 108.48 49.6651 107.622 49.1311C107.301 48.9175 106.872 48.5971 106.979 48.0632C106.979 47.7428 106.872 47.7428 106.55 47.8496C105.585 48.3835 104.62 48.7039 103.763 49.2379C102.905 49.7719 102.798 50.0923 101.833 50.3059C101.083 50.3059 100.439 52.5486 99.7962 53.9369C99.7962 54.1505 99.689 54.1505 99.4746 54.2573C99.2601 54.3641 98.8313 54.5777 98.7241 54.6845C98.6169 54.7913 98.5097 54.8981 98.2953 54.8981V52.4418C98.4025 52.335 98.5097 52.335 98.6169 52.1214C98.7241 51.9078 98.8313 51.6942 98.5097 51.5874C98.2953 51.4806 98.2953 51.4806 98.2953 51.5874V50.8399C98.6169 50.7331 98.9385 50.6263 99.2601 50.3059C100.225 48.8107 100.761 47.2088 101.833 45.8204C101.94 45.7136 101.94 45.7136 101.94 45.6068C102.262 44.8593 102.584 44.2185 103.12 43.6845C103.334 43.4709 103.656 43.1505 103.656 42.9369C103.656 42.5098 104.084 42.2962 104.084 41.869C104.084 41.6554 104.513 41.6554 104.513 41.4418C104.513 41.1214 104.942 41.2282 104.942 41.0146C104.942 40.801 105.049 40.5874 105.157 40.3738C105.585 39.8399 106.014 39.3059 106.336 38.7719C107.193 37.4903 108.266 36.3156 109.016 34.9272C109.659 33.7525 110.624 32.6845 111.482 31.6166C111.589 31.5098 111.696 31.403 111.589 31.2962C111.482 31.1894 111.267 31.1894 111.267 31.2962C110.946 31.6166 110.624 31.9369 110.302 32.2573C109.338 33.2185 108.373 34.0729 107.408 34.9272C106.979 35.2476 106.55 35.6748 106.121 35.9952C105.585 36.5292 104.942 37.17 104.406 37.7039C103.763 38.3447 103.12 38.8787 102.584 39.4127C101.94 40.0534 101.297 40.6942 100.547 41.2282C100.118 41.5486 99.689 41.9758 99.2601 42.2962C98.9385 42.6166 98.6169 42.8301 98.1881 43.1505V41.4418C98.5097 41.2282 98.8313 40.9078 99.0457 40.6942C99.5818 40.1602 100.118 39.6263 100.654 39.1991C102.048 37.8107 103.441 36.5292 104.942 35.2476C105.478 34.8204 105.907 34.2865 106.336 33.8593C107.408 32.7913 108.48 31.8301 109.552 30.869C110.302 30.1214 111.16 29.3738 111.911 28.5195C112.768 27.5583 113.84 26.7039 114.698 25.7428C115.341 24.9952 116.306 24.3544 116.735 23.5C116.842 23.3933 116.949 23.2865 117.056 23.1797C117.271 22.9661 117.593 22.7525 117.807 22.4321C118.021 21.8981 118.557 21.5777 118.986 21.2573C119.844 19.9758 123.703 16.3447 124.347 15.4903C124.668 15.0632 125.097 14.7428 125.419 14.4224C127.134 12.5 128.42 11.6457 130.029 9.72334C130.565 9.08257 131.851 7.80101 132.387 7.05344C132.923 6.30587 133.781 5.77189 134.317 5.13111C134.746 4.70392 135.925 3.42237 136.354 2.99519C136.997 2.35441 136.89 2.568 137.533 1.92722C137.747 1.71363 137.962 1.60684 138.069 1.50004C138.283 1.17965 138.605 1.17965 138.819 1.17965C138.927 1.17965 139.034 1.28645 139.248 1.39324C139.463 1.50004 139.248 1.60684 139.356 1.71363C139.356 2.35441 138.927 2.24761 138.605 2.6748C137.855 3.52917 137.211 4.27674 136.354 5.02431C135.282 5.98548 134.638 7.16024 133.674 8.1214C133.566 8.2282 133.566 8.2282 133.459 8.33499C132.28 9.18936 131.529 10.3641 130.565 11.3253C129.064 12.9272 128.099 13.7816 126.598 15.3835C125.097 16.8787 120.702 21.4709 119.201 23.0729C118.45 23.9272 117.914 24.7816 117.056 25.636C116.628 26.0632 116.199 26.5971 115.984 27.1311C115.77 27.7719 115.127 28.3059 114.698 28.9466C113.947 29.801 113.411 30.6554 112.768 31.6166C111.482 33.4321 110.195 35.3544 108.909 37.2767C107.729 38.9855 106.657 40.5874 105.585 42.2962C105.157 42.8301 103.227 46.3544 103.227 46.3544C103.12 46.4612 103.12 46.568 103.12 46.6748C103.012 46.8884 102.905 47.2088 102.798 47.3156C102.262 47.8496 102.048 48.7039 101.833 49.3447C101.726 49.5583 101.94 49.6651 102.048 49.5583C102.369 49.3447 101.94 49.3447 102.262 49.4515C102.369 49.4515 102.369 49.3447 102.476 49.3447C102.798 49.1311 103.12 48.9175 103.441 48.8107C103.87 48.7039 104.192 48.3835 104.513 48.17C104.62 48.0632 104.835 47.9564 105.049 47.8496C106.443 47.4224 107.408 46.4612 108.266 45.2865C108.373 45.1797 108.373 45.0729 108.48 45.0729C108.694 45.0729 108.909 44.8593 109.016 44.6457C109.123 44.3253 109.552 44.2185 109.552 43.7913C109.552 43.5777 109.981 43.5777 110.195 43.4709C110.302 43.2573 110.088 42.9369 110.41 42.9369C110.838 42.8302 110.946 42.403 111.267 42.2962C111.589 42.1894 111.911 41.869 112.232 41.6554C113.09 41.0146 114.055 40.3738 114.912 39.6263C115.77 38.9855 116.842 38.4515 117.807 37.8107C118.45 37.4903 119.093 37.17 119.737 36.8496C120.487 36.5292 121.13 36.102 121.881 35.8884C122.202 35.7816 122.524 35.7816 122.846 35.6748C123.06 35.568 123.274 35.7816 123.382 35.8884C123.489 35.9952 123.489 35.9952 123.382 36.102C123.167 36.2088 123.06 36.4224 122.846 36.3156C122.738 36.2088 122.631 36.3156 122.738 36.4224C122.846 36.7428 122.524 36.9564 122.31 37.0632C121.559 37.5971 120.809 38.2379 120.165 38.7719C119.415 39.3059 118.772 39.8399 118.129 40.267C117.914 40.3738 117.7 40.5874 117.593 40.6942C117.271 40.9078 117.056 41.2282 116.628 41.335C116.306 41.4418 115.984 41.7622 115.663 41.9758C115.127 42.2962 114.591 42.6166 114.055 43.0437C112.875 44.1117 111.482 44.8593 110.195 45.8204C109.766 46.1408 109.23 46.4612 108.802 46.7816C108.266 47.102 108.158 47.7428 108.373 48.17C108.48 48.2768 108.48 48.3835 108.694 48.3835C109.981 48.7039 111.267 48.5971 112.661 48.17C113.947 47.7428 115.127 47.2088 116.413 46.568C116.735 46.4612 116.949 46.2476 117.271 46.2476C117.485 46.2476 117.7 46.1408 117.914 46.034C119.201 45.1797 120.594 44.3253 121.774 43.3641C123.06 42.5098 124.347 41.6554 125.526 40.801C126.92 39.7331 128.313 38.7719 129.814 37.7039C130.35 37.2767 130.779 36.7428 131.422 36.4224C131.529 36.3156 131.744 36.2088 131.958 36.2088C132.28 36.2088 132.387 36.3156 132.28 36.636C132.173 37.0632 131.851 37.3835 131.637 37.7039C130.457 39.1991 129.171 40.6942 127.884 42.1894C127.027 43.2573 125.955 44.2185 125.097 45.2865C124.775 45.8204 124.347 46.2476 124.025 46.7816C123.918 46.8884 123.811 47.102 123.918 47.2088C124.025 47.3156 124.132 47.2088 124.347 47.2088C124.775 46.9952 125.311 46.8884 125.74 46.6748C126.062 46.568 126.383 46.3544 126.705 46.034C126.812 45.9272 126.92 45.8204 127.027 45.7136C127.992 45.2865 128.849 44.5389 129.707 44.0049C130.136 43.6845 130.565 43.3641 131.101 43.0437C132.065 42.403 133.03 41.5486 133.888 40.801C134.638 40.1602 135.496 39.6263 136.247 38.8787C136.997 38.1311 137.855 37.7039 138.712 37.0632C139.141 36.7428 139.57 36.3156 140.213 36.5292C140.642 36.636 140.642 36.636 140.428 37.0632C140.106 37.5971 139.677 38.0243 139.356 38.5583C138.283 40.0534 137.211 41.5486 136.032 42.9369C135.496 43.5777 135.174 44.2185 134.531 44.7525C134.531 44.8593 134.531 44.9661 134.424 45.0729C135.067 44.8593 135.603 44.6457 136.139 44.3253C136.675 43.8981 137.319 43.6845 137.962 43.2573C139.356 42.403 140.642 41.5486 141.928 40.6942C142.893 40.0534 143.858 39.3059 144.823 38.6651C145.466 38.2379 146.11 37.9175 146.646 37.3835C146.86 37.17 147.182 37.0632 147.503 37.2767C147.825 37.3835 147.825 37.7039 147.718 37.9175C147.61 38.2379 147.61 38.4515 147.396 38.6651C146.967 39.1991 146.431 39.8399 146.11 40.4806C145.681 41.2282 145.037 41.869 144.609 42.7234C144.823 42.8302 144.93 42.7234 145.037 42.6166C147.074 41.335 149.326 40.3738 151.148 38.7719C151.363 38.6651 151.792 38.7719 151.899 38.3447C152.006 38.0243 152.435 38.0243 152.756 37.8107C153.828 37.3835 154.579 36.5292 155.437 36.102C156.401 35.2476 157.688 35.034 158.653 35.1408ZM158.653 45.7136C157.795 46.6748 157.259 47.636 156.83 48.7039C156.723 48.9175 156.723 49.2379 156.83 49.2379C157.152 49.2379 157.259 49.5583 157.688 49.3447C158.01 49.1311 158.224 49.0243 158.546 48.8107V45.7136H158.653ZM98.2953 41.4418V42.8301C97.7592 43.3641 97.116 43.8981 96.58 44.3253C95.8295 44.9661 95.1863 45.5001 94.543 46.1408V44.8593C95.0791 44.4321 95.6151 43.8981 96.2583 43.3641C96.9016 42.7234 97.652 42.0826 98.2953 41.4418ZM98.2953 50.5195V51.267C98.2953 51.3738 98.2953 51.3738 98.2953 51.4806C98.2953 51.5874 97.9737 51.5874 97.8664 51.9078C97.8664 52.0146 97.8664 52.1214 97.9737 52.1214C98.0809 52.2282 98.1881 52.1214 98.2953 52.0146V54.4709C97.7592 54.6845 97.116 54.6845 96.9016 54.4709C96.4728 54.1505 96.2583 53.8302 96.1511 53.2962C96.0439 52.5486 95.6151 52.335 94.8647 52.335C94.7574 52.335 94.6502 52.335 94.543 52.335V51.1602C94.7575 51.1602 95.0791 51.1602 95.4007 51.1602C95.1863 50.8399 95.1863 50.6263 95.0791 50.4127C94.9719 50.0923 94.7575 49.8787 94.543 49.6651V47.4224C94.8647 47.4224 95.0791 47.5292 95.2935 47.7428C95.8295 48.2768 96.3656 48.8107 96.7944 49.4515C97.0088 49.7719 97.2232 50.1991 97.3304 50.5195C97.4376 50.7331 97.5448 50.8399 97.7592 50.8399C97.9737 50.6263 98.1881 50.6263 98.2953 50.5195ZM94.543 44.8593V46.1408C94.3286 46.3544 94.2214 46.4612 94.007 46.6748C93.8998 46.7816 93.6854 46.8884 93.7926 47.102C93.8998 47.3156 94.1142 47.3156 94.2214 47.3156C94.3286 47.3156 94.4358 47.3156 94.543 47.3156V49.5583C94.3286 49.2379 94.1142 49.0243 93.7926 48.8107C93.6854 48.7039 93.5782 48.5971 93.3638 48.7039C93.0421 48.8107 92.5061 49.6651 92.5061 49.8787C92.7205 50.6263 93.5782 51.267 94.2214 51.1602C94.3286 51.1602 94.4358 51.1602 94.4358 51.0535V52.2282C94.007 52.2282 93.5782 52.2282 93.1493 52.1214C91.9701 51.801 91.2196 51.0535 91.1124 49.7719C91.1124 49.5583 91.1124 49.4515 91.0052 49.2379C90.2548 49.4515 89.8259 50.1991 89.2899 50.6263C89.0755 50.7331 88.9683 50.9467 88.7539 51.0535C87.0386 52.5486 81.035 58.3156 80.3917 59.17C80.2845 59.2768 80.2845 59.3835 80.1773 59.3835C79.4269 59.5971 78.998 60.3447 78.3548 60.6651C78.2476 60.7719 78.0332 60.8787 77.926 60.8787V59.5971C78.6764 59.17 79.4269 58.636 79.9629 57.8884C80.3917 57.2476 81.035 56.8204 81.571 56.3933C83.6079 54.5777 91.0052 47.636 93.1493 45.8204C93.5782 45.6068 94.007 45.2865 94.543 44.8593ZM77.926 44.6457V43.2573C78.2476 42.9369 78.5692 42.6166 78.998 42.2962C79.6413 41.7622 80.2845 41.1214 80.8205 40.5874C81.4638 40.0534 82.107 39.4127 82.6431 38.8787C82.8575 38.6651 82.9647 38.2379 83.1791 37.9175C82.7503 37.8107 82.4287 38.0243 82.2142 38.1311C81.2494 38.7719 80.1773 39.0923 79.1052 39.6263C78.6764 39.8399 78.3548 40.0534 77.926 40.1602V39.1991C78.5692 38.8787 79.1052 38.4515 79.8557 38.2379C80.1773 38.1311 80.4989 37.8107 80.9278 37.8107C81.035 37.8107 81.2494 37.7039 81.2494 37.5971C81.4638 37.17 81.8926 36.9564 82.2142 36.7428C83.1791 36.102 84.144 35.6748 85.216 35.6748C85.4304 35.6748 85.7521 35.4612 85.9665 35.568C86.1809 35.6748 86.2881 35.8884 86.1809 36.102C85.7521 36.7428 85.4304 37.3835 84.7872 37.8107C84.4656 38.0243 84.2512 38.3447 84.0368 38.6651C83.3935 39.4127 82.5359 39.9467 81.8926 40.5874C81.2494 41.2282 80.6061 41.869 79.9629 42.6166C79.5341 43.1505 79.1052 43.5777 78.5692 44.0049C78.3548 44.1117 78.1404 44.3253 77.926 44.6457ZM77.926 4.59713V1.17965C78.1404 1.39324 78.3548 1.60684 78.3548 1.82043C78.3548 2.24761 78.5692 2.6748 78.1404 3.10198C78.1404 3.10198 78.0332 3.20878 78.1404 3.20878C78.1404 3.74276 78.0332 4.27674 77.926 4.59713ZM77.926 1.17965V4.59713C77.7116 5.02431 77.4971 5.4515 77.2827 5.87868C77.1755 6.19907 76.9611 6.41266 76.6395 6.62626C76.5323 6.83985 76.5323 6.83985 76.5323 6.94664C76.5323 7.16024 76.5323 7.48062 76.2106 7.69422C75.9962 7.90781 75.9962 8.1214 75.6746 8.33499C75.5674 8.33499 75.5674 8.65538 75.4602 8.76218C75.2458 9.40296 74.6025 9.83014 74.0665 10.2573C70.9575 13.8884 66.562 18.4806 61.7377 22.8593V21.1505C62.4882 20.5098 63.1314 19.7622 63.8819 19.0146C66.8837 16.0243 69.4566 13.4612 70.6359 11.9661C71.2791 11.1117 72.1368 10.3641 72.78 9.50975C73.1017 9.18936 74.1737 7.90781 75.1386 6.51946C76.3179 4.70392 77.2827 2.78159 76.9611 2.46121C76.7467 2.35441 76.5323 2.35441 76.3179 2.46121C75.7818 2.568 72.9944 4.91752 72.78 5.3447C72.6728 5.4515 72.6728 5.4515 72.5656 5.4515C72.3512 5.4515 72.244 5.55829 72.1368 5.77189C71.9224 6.19907 71.3863 6.30587 71.2791 6.83985C71.2791 6.83985 71.2791 6.94664 71.1719 6.94664C70.9575 7.05344 70.8503 7.26703 70.6359 7.37383C70.4215 7.48062 70.5287 7.69422 70.3143 7.80101C70.0999 8.01461 69.7782 8.1214 69.671 8.33499C69.135 8.86897 68.599 9.40295 67.9557 9.83014C67.6341 10.1505 67.3125 10.3641 66.9909 10.6845C66.1332 11.6457 63.5602 13.9952 61.6305 16.3447V14.2088C62.381 13.4612 63.0242 12.7136 63.8819 11.9661C64.2035 11.6457 66.3476 9.50975 66.6692 9.18936C67.0981 8.86897 67.5269 8.54859 67.7413 8.0146C67.9557 7.58742 68.4918 7.37383 68.8134 6.94664C68.9206 6.83985 69.0278 6.73305 69.135 6.62626C69.4566 6.30587 69.7782 5.98548 70.2071 5.77189C70.6359 5.66509 70.9575 5.4515 71.1719 5.13111C71.4935 4.70392 72.0296 4.49033 72.3512 3.95635C72.3512 3.84956 72.4584 3.84956 72.5656 3.84956C72.8872 3.84956 73.1017 3.63596 73.3161 3.42237C73.4233 3.20878 73.6377 3.20878 73.7449 2.99519C73.7449 2.99519 73.8521 2.88839 73.9593 2.99519C73.9593 3.10198 73.7449 3.20878 74.0665 3.20878C74.1737 3.20878 74.2809 2.99519 74.1737 2.88839C74.0665 2.78159 74.0665 2.6748 74.2809 2.568C74.6026 2.35441 74.7098 2.14082 75.1386 2.14082C75.353 2.14082 75.4602 2.03402 75.5674 1.92722C76.1034 1.39324 76.7467 1.28645 77.3899 1.07286C77.6043 0.966059 77.7115 1.07286 77.8188 1.07286L77.926 1.17965ZM77.926 39.0923V40.0534C77.7116 40.1602 77.6043 40.267 77.3899 40.3738C76.9611 40.5874 76.5323 40.9078 76.2106 41.1214C75.1386 41.7622 74.1737 42.403 73.1017 43.0437C72.244 43.5777 71.2791 44.2185 70.3143 44.6457C69.7782 44.9661 69.2422 45.3933 68.7062 45.7136C68.2773 46.034 67.8485 46.3544 67.3125 46.568C66.7764 46.7816 66.2404 47.102 65.8116 47.4224C65.49 47.636 65.0611 47.7428 64.7395 47.5292C64.4179 47.3156 64.2035 46.9952 64.2035 46.6748C64.3107 46.3544 64.5251 46.034 64.7395 45.7136C65.2756 45.0729 65.8116 44.4321 66.3476 43.7913C66.8837 43.1505 67.6341 42.5098 68.0629 41.869C68.4918 41.335 68.8134 40.801 69.2422 40.267C69.2422 40.267 69.2422 40.1602 69.2422 39.9467C68.599 40.3738 67.9557 40.6942 67.3125 41.0146C66.026 41.7622 64.9539 42.6166 63.6674 43.3641C63.0242 43.6845 62.381 44.1117 61.7377 44.4321V43.4709L62.381 43.1505C63.0242 42.7234 63.6674 42.2962 64.3107 41.9758C65.0611 41.5486 65.7044 41.0146 66.3476 40.5874C66.562 40.4806 66.7764 40.3738 66.9909 40.267C67.0981 40.267 67.3125 40.1602 67.4197 40.0534C68.0629 39.3059 68.9206 38.8787 69.7782 38.2379C70.3143 37.8107 71.0647 37.4903 71.6008 37.0632C72.244 36.5292 73.1017 36.2088 73.6377 35.568C73.8521 35.2476 74.2809 35.1408 74.6025 34.9272C75.353 34.5 75.9962 33.9661 76.6395 33.5389C76.7467 33.4321 76.9611 33.4321 77.0683 33.4321C77.2827 33.5389 77.4971 33.5389 77.4971 33.3253C77.6043 33.2185 77.8188 32.8981 77.2827 32.7913C77.7115 32.6845 77.8188 32.7913 77.926 33.0049C77.926 33.1117 78.0332 33.1117 77.926 33.2185C77.4971 33.7525 77.0683 34.3933 76.4251 34.9272C75.9962 35.2476 75.5674 35.7816 75.1386 36.102C74.7098 36.4224 74.3881 36.8496 73.8521 37.17C73.5305 37.3835 73.2089 37.7039 72.9944 38.0243C72.78 38.2379 72.5656 38.3447 72.3512 38.5583C72.244 38.6651 72.0296 38.7719 72.1368 38.8787V38.9855C71.708 39.0923 71.708 39.5195 71.4936 39.7331C71.2791 39.9467 71.0647 40.267 70.8503 40.4806C70.7431 40.801 70.4215 41.0146 70.2071 41.2282C69.671 41.6554 69.3494 42.2962 68.8134 42.7234C68.3845 43.1505 67.9557 43.5777 67.6341 44.1117C67.2053 44.6457 66.7764 45.0729 66.4548 45.6068C67.0981 45.5001 67.6341 45.1797 68.1701 44.8593C69.3494 44.2185 70.3143 43.3641 71.4936 42.7234C71.9224 42.5098 72.244 42.1894 72.6728 41.9758C74.1737 41.0146 75.5674 40.0535 77.0683 39.1991L77.926 39.0923ZM77.926 43.2573C77.4971 43.6845 77.0683 44.1117 76.7467 44.4321C76.3179 44.9661 75.6746 45.3933 75.2458 45.8204C74.4953 46.4612 73.7449 47.102 73.1017 47.8496C72.8872 48.0632 72.6728 48.2767 72.3512 48.4903C72.1368 48.5971 71.9224 48.7039 71.9224 48.9175C72.5656 48.9175 73.1017 48.7039 73.6377 48.2768C75.1386 47.102 76.5323 45.9272 77.926 44.5389V43.2573ZM77.926 59.7039V60.9855C77.8188 60.9855 77.6043 60.9855 77.4971 60.8787C77.2827 60.5583 77.4971 60.1311 77.7115 59.8107C77.8188 59.8107 77.8188 59.8107 77.926 59.7039ZM61.8449 40.801C61.9521 40.6942 61.9521 40.6942 62.0593 40.5874C62.2738 40.4806 62.4882 40.267 62.4882 39.9467C62.4882 39.8399 62.5954 39.7331 62.8098 39.6263C63.0242 39.5195 63.5602 39.6263 63.453 39.0923L63.5602 38.9855C63.8819 38.9855 63.9891 38.7719 63.9891 38.5583C64.0963 38.2379 64.3107 38.1311 64.5251 38.0243C64.8467 37.9175 65.2756 37.9175 65.49 37.4903C65.49 37.3835 65.7044 37.2767 65.8116 37.2767C65.9188 37.2767 66.1332 37.17 66.1332 37.0632C66.2404 36.7428 66.4548 36.7428 66.7764 36.636C66.8837 36.636 66.8837 36.5292 66.8837 36.4224C66.7764 36.4224 66.6692 36.4224 66.6692 36.3156C66.6692 36.2088 66.7764 36.102 66.9909 36.2088C67.0981 36.102 67.3125 35.9952 67.4197 35.6748C67.4197 35.568 67.5269 35.568 67.5269 35.568C67.6341 35.568 67.6341 35.568 67.7413 35.4612L67.6341 35.568C67.6341 35.6748 67.7413 35.6748 67.8485 35.6748C68.0629 35.6748 68.0629 35.4612 68.1701 35.3544C68.0629 35.3544 67.9557 35.4612 67.8485 35.4612C67.9557 35.2476 67.9557 35.034 68.2773 34.9272L68.3846 35.1408C68.4918 35.034 68.7062 35.034 68.7062 34.8204C68.599 34.9272 68.3845 34.9272 68.2773 34.9272C68.3845 34.8204 68.2773 34.7136 68.4918 34.7136C68.7062 34.7136 68.9206 34.5 69.2422 34.5C69.4566 34.5 69.671 34.1797 69.8855 33.9661C69.9927 33.8593 69.9927 33.8593 70.0999 33.7525C71.2791 32.7913 72.3512 31.7233 73.4233 30.7622C73.5305 30.6554 73.6377 30.5486 73.5305 30.4418C73.4233 30.335 73.3161 30.335 73.1017 30.4418C72.5656 30.6554 72.0296 30.9758 71.4936 31.403C71.2791 31.6166 70.9575 31.8301 70.7431 32.0437C70.3143 32.2573 69.9927 32.5777 69.4566 32.6845C69.5638 32.3641 69.7782 32.2573 69.7782 32.0437C69.9927 31.5098 70.5287 31.1894 70.6359 30.5486C70.6359 30.4418 70.7431 30.4418 70.8503 30.4418C70.9575 30.4418 71.0647 30.335 71.0647 30.2282C71.1719 29.5874 71.708 29.1602 71.9224 28.6263C72.0296 28.4127 72.0296 28.0923 72.1368 27.8787C72.4584 27.3447 72.78 26.8107 72.8872 26.2767C72.9944 26.0632 73.3161 25.7428 72.8872 25.636V25.5292C73.2089 25.2088 72.8872 25.2088 72.6728 25.102C72.3512 24.8884 71.9224 25.102 71.4936 24.9952C71.2791 24.8884 70.9575 24.9952 70.7431 25.102C70.2071 25.4224 69.5638 25.7428 68.9206 25.9564C68.599 26.0632 68.3845 26.1699 68.0629 26.2767C67.8485 26.3835 67.5269 26.5971 67.3125 26.7039C67.2053 26.8107 67.0981 26.8107 66.9909 26.8107C66.4548 26.9175 65.9188 27.1311 65.49 27.4515C65.0611 27.6651 64.7395 27.8787 64.3107 28.0923C63.9891 28.3059 63.6674 28.6263 63.2386 28.7331C63.1314 29.1602 62.5954 29.267 62.2738 29.4806C62.0593 29.6942 61.7377 29.801 61.5233 30.0146V31.2962H61.6305C62.1665 31.5098 62.2738 30.9758 62.7026 30.9758C62.7026 30.6554 63.2386 30.6554 63.2386 30.335C63.2386 30.335 63.3458 30.2282 63.453 30.2282C63.8819 30.2282 64.0963 29.9078 64.4179 29.801C64.9539 29.4806 65.49 29.0534 65.9188 28.6263C66.2404 28.4127 66.562 28.3059 66.7764 28.0923C67.5269 27.7719 68.2773 27.2379 69.135 27.1311C69.5638 27.0243 69.9927 26.8107 70.4215 26.7039C70.9575 26.5971 71.2791 26.7039 71.2791 27.2379C71.2791 27.5583 71.1719 27.8787 71.0647 28.1991C70.6359 29.267 70.0999 30.2282 69.3494 31.0826C68.9206 31.6166 68.3845 32.1505 68.0629 32.6845C67.8485 33.0049 67.4197 33.3253 67.0981 33.6457C66.4548 34.2865 65.9188 34.9272 65.2756 35.4612C64.5251 36.102 63.8819 36.7428 63.1314 37.2767C62.5954 37.7039 62.0593 38.0243 61.6305 38.4515V40.801H61.8449ZM61.8449 32.0437V31.8301C61.9521 31.8301 61.9521 31.7233 62.0593 31.7233C62.0593 31.8301 61.9521 31.9369 61.8449 32.0437ZM60.9873 32.3641C60.8801 32.4709 60.8801 32.6845 60.7729 32.6845V32.4709L60.9873 32.3641ZM61.8449 14.2088V16.3447C61.6305 16.5583 61.4161 16.8787 61.3089 17.0923C61.0945 17.4127 60.9873 17.1991 60.7729 17.4127V15.3835C61.0945 14.9564 61.4161 14.636 61.8449 14.2088ZM61.8449 21.2573V22.9661C61.5233 23.2865 61.0945 23.6068 60.7729 23.9272V22.2185C61.0945 21.8981 61.4161 21.5777 61.8449 21.2573ZM61.8449 30.2282V31.5098C61.7377 31.5098 61.6305 31.6166 61.6305 31.6166C61.3089 31.8301 61.0945 32.0437 60.7729 32.2573V30.9758C60.8801 30.869 60.9873 30.6554 61.0945 30.6554C61.3089 30.5486 61.3089 30.0146 61.7377 30.2282C61.7377 30.2282 61.7377 30.2282 61.8449 30.2282ZM61.8449 31.7233C61.6305 31.8301 61.6305 31.8301 61.6305 32.0437C61.7377 32.0437 61.7377 31.9369 61.8449 31.9369V31.7233ZM61.8449 38.6651V40.801C61.5233 41.0146 61.0945 41.335 60.7729 41.5486V39.4127C60.9873 39.3059 61.2017 39.1991 61.4161 38.9855C61.5233 38.8787 61.6305 38.7719 61.8449 38.6651ZM61.8449 43.6845V44.6457C61.5233 44.8593 61.3089 44.9661 60.9873 45.1797C60.9873 45.1797 60.8801 45.2865 60.7729 45.2865H60.6657V44.3253C61.0945 44.1117 61.4161 43.8981 61.8449 43.6845ZM60.7729 32.6845C60.7729 32.6845 60.6656 32.6845 60.5584 32.5777L60.7729 32.4709V32.6845ZM60.7729 15.3835V17.4127C60.7729 17.4127 60.6657 17.4127 60.6657 17.5195C59.808 18.3738 58.1999 20.0826 56.5918 21.6845V19.7622C57.1278 19.2282 57.6639 18.6942 57.9855 18.3738C59.0575 17.1991 59.9152 16.2379 60.7729 15.3835ZM60.7729 22.2185V23.8204C59.3792 24.9952 58.0927 26.1699 56.699 27.3447V25.8496C57.9855 24.7816 59.3792 23.5 60.7729 22.2185ZM60.7729 30.9758C59.5936 31.8301 58.6287 32.8981 57.3422 33.7525C57.1278 33.9661 56.9134 34.1797 56.699 34.3933V34.7136C56.8062 34.7136 56.8062 34.6068 56.9134 34.6068C56.9134 34.7136 56.8062 34.8204 56.699 34.9272V36.102C57.1278 35.7816 57.4494 35.568 57.7711 35.1408C57.8783 35.034 57.9855 35.034 58.0927 34.9272C58.6287 34.5 59.1648 34.1797 59.5936 33.7525C59.9152 33.5389 60.2368 33.3253 60.4512 33.1117C60.0224 33.1117 59.808 33.4321 59.4864 33.5389C59.3792 33.4321 59.4864 33.3253 59.4864 33.3253C59.9152 33.0049 60.344 32.6845 60.7729 32.3641V30.9758ZM60.7729 39.4127V41.5486C60.6656 41.6554 60.4512 41.7622 60.344 41.869C59.9152 42.2962 59.3792 42.5098 59.1648 43.0437C59.1648 43.1505 59.0575 43.1505 58.9503 43.2573C57.9855 43.8981 57.3422 44.7525 56.699 45.6068V44.2185C56.9134 44.0049 57.1278 43.6845 57.4494 43.4709C57.4494 43.4709 57.4494 43.3641 57.5567 43.2573C57.4494 43.2573 57.3422 43.3641 57.1278 43.3641L56.699 43.5777V42.1894C56.9134 41.9758 57.1278 41.869 57.3422 41.7622C57.4494 41.4418 57.8783 41.5486 58.0927 41.335C58.4143 41.0146 58.9503 40.801 59.3792 40.3738C59.7008 40.0534 60.2368 39.9467 60.4512 39.5195C60.4512 39.5195 60.5584 39.5195 60.7729 39.4127ZM60.7729 44.3253C60.4512 44.5389 60.1296 44.7525 59.808 44.8593C59.272 45.1797 58.8431 45.6068 58.3071 45.8204C57.7711 46.034 57.3422 46.2476 56.8062 46.4612C56.699 46.4612 56.699 46.4612 56.5918 46.568V47.636C57.5567 47.2088 58.4143 46.568 59.3792 46.1408C59.808 45.9272 60.2368 45.5001 60.7729 45.3933V44.3253ZM56.5918 19.7622V21.6845C55.3053 22.9661 54.126 24.3544 53.2684 25.102C52.9468 25.4224 52.8395 25.3156 52.5179 25.636C50.8026 27.3447 48.6585 29.801 47.6936 30.7622C47.1576 31.2962 46.6215 31.8301 45.9783 32.3641C45.4423 32.8981 44.9062 33.5389 44.3702 34.0729C44.1558 34.2865 43.727 34.6068 43.6198 34.9272C44.1558 34.9272 44.5846 34.7136 44.9062 34.3933C47.372 32.6845 49.8378 31.0826 51.8747 29.4806C53.4828 28.3059 54.9837 27.0243 56.4846 25.8496V27.3447C51.5531 31.2962 46.4071 34.8204 41.69 37.0632V35.034C42.3333 34.3933 42.8693 33.8593 43.4053 33.2185C43.727 32.7913 44.263 32.4709 44.5846 31.9369C44.9062 31.403 45.4423 31.0826 45.8711 30.5486C46.2999 30.1214 46.7288 29.6942 47.1576 29.267C48.1224 28.3059 49.6233 26.9175 50.8026 25.636C52.0891 24.568 54.7693 21.6845 56.5918 19.7622ZM56.5918 34.3933C56.3774 34.6068 56.163 34.8204 55.8413 34.9272C55.5197 35.4612 54.8765 35.7816 54.4477 36.2088C53.59 37.0632 52.5179 37.5971 51.8747 38.6651C51.8747 38.6651 51.7675 38.6651 51.7675 38.7719C51.2314 38.9855 51.017 39.6263 50.481 39.8399L50.3738 39.9467C50.2666 40.3738 49.8378 40.6942 49.5161 41.0146C49.4089 41.1214 49.1945 41.2282 49.1945 41.335C49.1945 41.6554 48.8729 41.7622 48.6585 41.9758C48.5513 42.0826 48.3369 42.2962 48.2296 42.403C47.908 42.8302 47.6936 43.2573 47.1576 43.5777C47.0504 43.6845 46.9432 43.7913 46.9432 44.0049C46.9432 44.2185 46.836 44.3253 46.7288 44.4321C46.5143 44.9661 46.0855 45.3933 45.7639 45.9272C45.3351 46.6748 45.3351 47.2088 45.9783 47.7428C46.0855 47.8496 46.2999 47.9564 46.4071 48.0632C45.9783 48.5971 45.4423 48.9175 44.799 49.0243C44.1558 49.1311 43.5125 49.5583 42.8693 49.4515C42.4405 49.6651 42.1189 49.5583 41.9044 49.3447V50.7331C42.5477 50.6263 43.0837 50.6263 43.727 50.3059C43.8342 50.1991 44.0486 50.1991 44.1558 50.1991C44.6918 50.0923 45.2279 49.8787 45.6567 49.6651C46.9432 48.9175 48.3369 48.3835 49.7305 47.636C50.5882 47.2088 51.3386 46.7816 52.1963 46.3544C52.9468 45.9272 53.6972 45.5001 54.4477 45.0729C55.1981 44.6457 56.0558 44.1117 56.8062 43.6845V42.2962C56.5918 42.5098 56.2702 42.7234 55.9485 42.9369C55.5197 43.2573 55.0909 43.6845 54.5549 43.7913C53.8044 44.6457 52.6251 44.9661 51.6603 45.6068L51.5531 45.7136C50.6954 45.9272 50.0522 46.4612 49.3017 46.7816C48.8729 46.9952 48.4441 47.102 48.0152 47.3156C47.8008 47.4224 47.5864 47.4224 47.5864 47.102C47.5864 46.8884 47.4792 46.8884 47.2648 46.8884C46.836 46.7816 46.7288 46.568 46.9432 46.2476C47.5864 45.2865 48.2296 44.2185 48.9801 43.3641C49.5161 42.7234 50.1594 42.0826 50.6954 41.335C51.2314 40.5874 51.9819 39.9467 52.7323 39.3059C53.2684 38.7719 53.8044 38.3447 54.3404 37.9175C54.8765 37.3835 55.5197 36.9564 56.0558 36.5292C56.2702 36.3156 56.4846 36.2088 56.8062 35.9952V34.8204C56.8062 34.8204 56.699 34.9272 56.5918 34.9272C56.5918 34.8204 56.699 34.7136 56.8062 34.7136V34.3933H56.5918ZM56.5918 44.3253V45.7136C56.3774 45.9272 56.2702 46.2476 56.0558 46.4612C56.2702 46.568 56.4846 46.568 56.5918 46.4612V47.5292C56.4846 47.5292 56.3774 47.636 56.3774 47.636C55.8413 47.8496 55.3053 47.8496 54.7693 47.8496C54.5549 47.8496 54.4477 47.7428 54.5549 47.5292C54.8765 46.9952 55.0909 46.3544 55.5197 45.8204C55.8413 45.2865 56.163 44.7525 56.5918 44.3253ZM41.7972 46.8884V46.2476C41.9044 46.1408 42.0117 46.034 41.9044 45.8204C41.9044 45.9272 41.7972 45.9272 41.7972 46.034V45.5C41.9044 45.3933 42.0117 45.2865 42.1189 45.1797C42.8693 44.4321 43.8342 43.7913 44.6918 42.9369C44.9062 42.7234 45.2279 42.8302 45.6567 42.7234C45.3351 43.1505 45.0134 43.3641 44.6918 43.5777C44.4774 43.6845 44.263 43.8981 44.0486 44.1117C43.727 44.4321 43.4053 44.7525 43.0837 45.1797C42.5477 45.7136 42.2261 46.2476 41.7972 46.8884ZM41.7972 35.034V37.0632L41.69 37.17C41.0468 37.3835 40.618 37.9175 40.1891 38.3447C38.6882 39.8399 37.1873 41.4418 35.6864 43.0437C31.3982 47.636 27.1099 52.1214 22.8216 56.7136C21.964 57.568 20.7847 58.7428 19.2838 60.4515C18.5333 61.4127 16.3892 63.4418 15.5315 64.2962C15.1027 64.8302 14.5667 65.5777 13.9234 66.2185C13.173 66.9661 12.2081 67.2865 11.5649 66.2185C11.3505 66.0049 11.4577 65.7913 11.3505 65.5777C11.2433 65.2573 11.1361 64.937 11.0289 64.6166C11.0289 64.5098 10.9216 64.403 11.0289 64.403C11.2433 63.9758 10.9216 63.6554 10.9216 63.335C10.9216 63.2282 10.9216 63.1214 10.8144 63.1214C10.4928 63.1214 10.4928 62.9078 10.4928 62.801C10.2784 61.0923 9.52796 60.2379 9.20634 59.3835C8.56309 57.6748 8.45589 57.4612 7.1694 54.6845C6.74058 53.8302 6.52616 52.9758 5.77571 52.2282C5.5613 52.0146 5.23968 50.9467 5.02527 50.7331C4.81085 50.5195 4.70365 50.4127 4.59644 50.1991C4.38202 49.5583 3.73878 48.9175 3.09554 48.0632C2.55951 47.4224 2.02347 47.3156 1.48744 47.2088C1.05861 47.102 0.73699 47.102 0.844197 47.3156C0.844197 47.2088 0.629783 47.2088 0.629783 47.2088C0.415369 46.2476 0.73699 46.1408 1.27302 46.1408C2.02347 46.1408 2.55951 46.6748 2.98834 46.7816C3.20275 46.8884 3.41716 46.9952 3.52437 47.2088C3.63158 47.4224 3.73878 47.5292 3.9532 47.5292C4.0604 47.5292 4.16761 47.636 4.27482 47.7428C5.13247 48.7039 5.5613 49.5583 6.41896 50.5195C6.74058 50.6263 6.84778 51.0535 7.1694 51.4806C7.27661 51.5874 7.38382 51.6942 7.38382 51.801C7.59823 52.1214 7.91985 52.335 7.91985 52.869C7.91985 52.9758 7.91985 52.9758 8.02706 53.0826C8.77751 53.7234 8.45589 53.7234 8.88472 54.5777C9.09913 54.8981 9.31354 55.2185 9.42075 55.6457C9.42075 55.7525 9.52796 55.8593 9.52796 55.9661H9.63516C9.84958 56.1797 9.95678 56.2865 9.84958 56.6069V56.7136C10.1712 57.034 9.95678 57.4612 10.2784 57.568C10.3856 57.6748 10.6 57.7816 10.3856 57.9952V58.102C10.8144 58.4224 10.8144 58.8496 11.0289 59.2768C11.1361 59.5971 11.3505 59.9175 11.4577 60.2379C11.4577 60.3447 11.5649 60.3447 11.5649 60.5583C11.5649 60.6651 11.5649 60.7719 11.6721 60.8787C12.1009 61.1991 12.2081 61.8399 12.4225 62.267C12.5297 62.4806 12.4225 62.5874 12.3153 62.801C12.637 62.801 12.637 63.0146 12.637 63.1214C12.7442 63.335 12.7442 63.5486 12.7442 63.7622C12.7442 63.869 12.637 64.0826 12.8514 64.0826C13.0658 64.0826 13.173 63.9758 13.2802 63.7622C13.6018 63.335 14.3523 62.6942 14.6739 62.3738C15.4243 61.6263 17.2469 59.5971 18.1045 58.9564C18.9622 58.3156 19.4982 57.4612 20.2486 56.8204C21.964 55.3253 23.1432 54.1505 24.3225 52.7622C26.8955 49.9855 29.6829 47.3156 32.2558 44.5389C32.8991 43.8981 33.4351 43.1505 34.0783 42.6166C34.7216 42.0826 35.0432 41.4418 35.6864 40.9078L35.7937 40.801C36.1153 40.1602 36.7585 39.7331 37.2945 39.1991C37.2945 39.1991 37.4018 39.1991 37.4018 39.0923C37.509 38.9855 37.6162 38.9855 37.509 38.8787C37.4018 38.7719 37.2945 38.7719 37.1873 38.8787C36.0081 39.3059 34.936 39.8399 33.7567 40.267C32.4702 40.6942 31.1838 41.2282 29.8973 41.5486C28.9324 41.7622 27.8603 41.7622 26.8955 41.869C26.2522 41.869 25.8234 41.6554 25.2874 41.4418C25.1802 41.4418 25.073 41.335 25.073 41.2282C25.073 41.1214 25.2874 41.0146 25.3946 41.0146C26.3594 40.6942 27.2171 40.267 28.182 40.1602C28.2892 40.1602 28.2892 40.1602 28.3964 40.1602C28.5036 40.1602 28.5036 40.1602 28.6108 40.267C28.6108 40.3738 28.6108 40.3738 28.6108 40.3738C28.5036 40.4806 28.3964 40.5874 28.182 40.6942C27.9675 40.801 27.9675 40.9078 27.9675 41.0146C28.0748 41.1214 28.182 41.2282 28.3964 41.2282C28.5036 41.2282 28.6108 41.2282 28.718 41.1214C29.0396 40.9078 29.3612 40.9078 29.6829 40.801C30.9693 40.5874 32.1486 40.0535 33.3279 39.7331C33.8639 39.6263 34.2928 39.3059 34.8288 39.0923C35.9009 38.6651 36.9729 38.3447 38.045 37.8107C38.6882 37.4903 39.3315 37.0632 39.9747 36.636C40.0819 36.636 40.0819 36.5292 40.1891 36.5292C40.7252 36.5292 40.8324 36.2088 41.0468 35.8884C41.154 35.568 41.4756 35.3544 41.7972 35.034ZM41.7972 45.3933C40.9396 46.3544 40.2963 47.4224 39.7603 48.4903C39.3315 49.2379 39.6531 49.9855 40.5108 50.3059C40.618 50.4127 40.7252 50.5195 40.9396 50.5195C41.154 50.6263 41.3684 50.9467 41.69 50.8399C41.7972 50.8399 41.7972 50.8399 41.9044 50.8399V49.4515C41.69 49.3447 41.5828 49.2379 41.3684 49.1311C41.154 49.0243 41.154 48.9175 41.154 48.8107C41.154 48.3835 41.0468 47.9564 41.3684 47.5292C41.4756 47.3156 41.69 47.102 41.7972 46.8884V46.2476C41.69 46.2476 41.69 46.3544 41.5828 46.4612C41.5828 46.2476 41.69 46.1408 41.7972 46.034V45.3933Z" fill="black"/>
</g>
<defs>
<clipPath id="clip0">
<rect width="299" height="66" fill="white" transform="translate(0.414307 0.859375)"/>
</clipPath>
</defs>
</svg>
