<svg width="288" height="159" viewBox="0 0 288 159" fill="none" xmlns="http://www.w3.org/2000/svg">
<path fill-rule="evenodd" clip-rule="evenodd" d="M0.656616 115.623H25.7436V63.965H44.2514V42.042H25.7436V23.4418H51.4096V0.379883H19.1418C5.43753 0.379883 0.665346 9.79863 0.665346 20.3738V115.623H0.656616ZM63.3156 29.8448V115.625H85.6223V29.8448H63.3156ZM133.869 29.8448V68.4737L121.363 29.8448H102.712V115.625H121.363V76.6262L132.965 115.625H152.518V29.8448H133.869ZM201.851 29.8448L191.92 63.1679V29.8448H169.609V115.625H191.92V78.857L200.955 115.63H224.004L209.986 68.5663L222.782 29.8309H201.851V29.8448ZM249.348 29.8448L231.461 115.625H251.271L254.237 100.206H265.471L268.295 115.625H287.839L268.576 29.8448H249.348ZM255.581 85.0054L259.863 63.6145L263.261 85.0054H255.581Z" fill="#172D69"/>
<path fill-rule="evenodd" clip-rule="evenodd" d="M0.656494 131.702L10.0875 158.348H17.2387L26.4185 131.702H19.8201L16.3439 142.783C15.8928 144.192 15.4346 145.729 14.9695 147.393C14.5043 149.057 14.0904 150.734 13.7276 152.426H13.6003C13.234 150.734 12.8114 149.048 12.3323 147.368C11.8532 145.688 11.402 144.172 10.9788 142.821L7.46768 131.696H0.665224L0.656494 131.702ZM63.6992 132.167C62.0896 132.789 60.6271 133.74 59.4049 134.958C58.1698 136.207 57.2056 137.698 56.5724 139.336C55.8735 141.165 55.5289 143.11 55.5572 145.068C55.5238 147.051 55.8605 149.023 56.5497 150.883C57.1561 152.502 58.101 153.973 59.3213 155.198C60.5261 156.381 61.9675 157.297 63.5509 157.884C67.003 159.131 70.7836 159.123 74.2307 157.863C75.8333 157.259 77.2894 156.321 78.5023 155.112C79.7279 153.872 80.6917 152.398 81.3367 150.778C82.0508 148.96 82.4028 147.02 82.3727 145.068C82.4043 143.078 82.0672 141.099 81.3785 139.231C80.7731 137.599 79.8292 136.113 78.6087 134.871C77.4061 133.675 75.9649 132.745 74.379 132.143C70.9319 130.867 67.1405 130.876 63.6992 132.167ZM62.8271 141.134C63.1127 140.111 63.5859 139.15 64.2225 138.3C64.7742 137.571 65.4917 136.984 66.3155 136.587C67.115 136.208 67.9894 136.013 68.8743 136.017C69.7712 136.01 70.6591 136.197 71.4766 136.566C72.3024 136.95 73.0319 137.514 73.6115 138.216C74.2827 139.046 74.7793 140.002 75.0714 141.028C75.7689 143.639 75.7762 146.386 75.0924 149.001C74.8124 150.013 74.3385 150.96 73.697 151.791C73.1388 152.498 72.4217 153.063 71.604 153.44C70.8013 153.807 69.9281 153.996 69.0452 153.991C68.1486 153.998 67.2611 153.81 66.4446 153.44C65.6181 153.057 64.888 152.494 64.308 151.791C63.6397 150.968 63.1438 150.019 62.8498 149.001C62.4775 147.724 62.301 146.398 62.3265 145.068C62.3038 143.739 62.4743 142.414 62.8323 141.134H62.8271ZM114.681 131.702V158.348H123.14C125.117 158.36 127.085 158.075 128.978 157.502C130.733 156.98 132.366 156.11 133.778 154.943C135.17 153.77 136.277 152.295 137.013 150.63C137.845 148.687 138.249 146.589 138.198 144.476C138.237 142.575 137.9 140.685 137.205 138.914C136.583 137.38 135.613 136.011 134.371 134.916C133.083 133.812 131.577 132.99 129.951 132.506C128.084 131.949 126.143 131.678 124.195 131.702H114.677H114.681ZM121.11 136.608H123.438C125.571 136.495 127.665 137.215 129.276 138.617C130.029 139.386 130.61 140.306 130.982 141.316C131.353 142.326 131.507 143.403 131.432 144.476C131.476 145.947 131.232 147.412 130.713 148.79C130.302 149.848 129.65 150.796 128.81 151.559C128.014 152.256 127.065 152.756 126.041 153.019C124.971 153.303 123.868 153.445 122.762 153.442H121.112L121.11 136.608ZM176.856 158.348V149.55L179.014 147.225L186.289 158.348H194.155L183.709 143.248L193.303 131.702H185.309L176.849 142.615V131.702H170.42V158.348H176.856ZM222.621 158.348H229.347L231.166 152.639H240.133L241.952 158.348H248.754L239.161 131.702H232.31L222.621 158.348ZM233.576 144.771C233.915 143.672 234.267 142.544 234.633 141.387C235 140.23 235.324 139.159 235.607 138.173H235.692C235.944 139.16 236.247 140.246 236.601 141.431C236.954 142.616 237.3 143.729 237.637 144.771L238.652 147.986H232.561L233.576 144.771Z" fill="#CB2836"/>
</svg>
