<svg width="190" height="147" viewBox="0 0 190 147" fill="none" xmlns="http://www.w3.org/2000/svg">
<g clip-path="url(#clip0)">
<path fill-rule="evenodd" clip-rule="evenodd" d="M70.5 7.5582H73.6C74.1 7.5582 76.2 7.4582 76.2 5.6582C76.2 4.6582 75.5 4.1582 74.7 3.9582C75.8 3.5582 75.8 2.7582 75.8 2.4582C75.8 0.758203 74 0.758203 73.5 0.758203H70.5V1.6582H71.4V6.7582H70.5V7.5582ZM72.5 3.6582V1.6582H73.3C73.6 1.6582 74.7 1.6582 74.7 2.6582C74.7 3.6582 73.6 3.6582 73.2 3.6582H72.5ZM72.5 6.7582V4.4582H73.4C73.7 4.4582 75.2 4.4582 75.2 5.6582C75.2 6.3582 74.6 6.8582 73.6 6.8582H72.5V6.7582ZM83.6 0.658203C81.4 0.658203 79.9 2.2582 79.9 4.1582C79.9 6.2582 81.4 7.6582 83.6 7.6582C85.8 7.6582 87.3 6.1582 87.3 4.1582C87.3 2.1582 85.8 0.658203 83.6 0.658203ZM86.1 4.1582C86.1 5.6582 85.1 6.7582 83.5 6.7582C82 6.8582 81 5.6582 81 4.1582C81 2.6582 82.1 1.5582 83.6 1.5582C85.1 1.5582 86.1 2.7582 86.1 4.1582ZM97.8 9.0582V6.7582H96.9V1.6582H97.8V0.758203H91.7V1.6582H92.7V2.5582C92.7 3.2582 92.7 4.0582 92.4 4.8582C92.1 5.7582 91.6 6.4582 91.4 6.7582H90.6V9.0582H91.5V7.5582H96.9V9.0582H97.8ZM95.8 6.7582H92.4C93 5.9582 93.2 5.1582 93.3 4.7582C93.5 3.9582 93.5 3.1582 93.5 2.4582V1.6582H95.8V6.7582ZM104.1 6.7582V1.6582H105V0.758203H102.2V1.6582H103.1V6.7582H102.2V7.6582H105V6.7582H104.1ZM106.6 1.6582H105.8V0.758203H108.6V1.6582H107.8L105.4 3.9582L107.8 6.7582H108.7V7.6582H105.8V6.7582H106.5L104 4.0582L106.6 1.6582ZM112 7.5582H114.7V6.7582H113.9L114.5 5.2582H117L117.6 6.7582H116.7V7.6582H119.5V6.7582H118.7L116.7 1.6582H117.6V0.758203H113.9V1.6582H114.9L113 6.7582H112V7.5582ZM114.7 4.3582L115.6 1.8582L116.5 4.3582H114.7Z" fill="#232221"/>
<path fill-rule="evenodd" clip-rule="evenodd" d="M172.5 52.9584C172.8 53.2584 172.9 53.5584 172.9 53.8584C172.9 54.5584 172.3 55.1584 171.6 55.1584C170.9 55.1584 170.3 54.5584 170.3 53.8584C170.3 53.1584 170.9 52.5584 171.6 52.5584C172 52.5584 172.3 52.7584 172.5 52.9584ZM61.4 29.6584L60.9 27.7584L63.1 27.1584L63.4 28.3584L65 27.9584L64.3 25.5584L57.5 27.4584L57.8 28.6584L58.7 28.3584L60.2 33.6584L59.3 33.9584L59.7 35.2584L64.4 33.9584C65.9 33.5584 66.9 32.4584 66.4 30.8584C66.3 30.4584 65.7 28.5584 62.9 29.3584L61.4 29.6584ZM61.7 30.8584L62.4 30.6584C63.7 30.2584 64 31.0584 64.1 31.4584C64.4 32.4584 63.2 32.8584 63 32.8584L62.3 33.0584L61.7 30.8584ZM56.7 34.7584L55.5 35.1584L53.6 30.0584L54.8 29.6584L55.5 31.4584L56.9 30.9584L55.8 28.0584L48.5 30.6584L49.6 33.5584L51 33.0584L50.3 31.2584L51.5 30.8584L53.4 35.9584L52.2 36.3584L52.7 37.5584L57.1 35.9584L56.7 34.7584ZM30.6 47.9584L27.3 43.5584L28.1 42.9584L27.3 41.9584L25.2 43.6584L25.6 50.3584L23.1 46.8584L23.9 46.2584L23.1 45.2584L19.9 47.6584L20.7 48.6584L21.5 48.0584L24.8 52.3584L24 52.9584L24.8 54.0584L27 52.3584L26.6 45.8584L29 49.2584L28.2 49.8584L29 50.8584L32.2 48.4584L31.4 47.4584L30.6 47.9584ZM31.6 42.2584L30.3 43.0584L29 40.9584L30.2 40.1584L30.5 40.6584C30.6 40.3584 30.9 39.5584 32 38.8584C32.7 38.4584 33.4 38.2584 34 38.3584C34.5 38.4584 35 38.7584 35.3 39.2584C35.5 39.5584 35.6 39.8584 35.6 40.3584C35.6 40.7584 35.4 41.1584 35 41.5584V41.6584C35.4 41.5584 35.8 41.4584 36.2 41.5584C36.6 41.6584 37.1 41.9584 37.5 42.5584C38 43.3584 37.8 44.1584 37.6 44.5584C37.3 45.3584 36.5 45.8584 35.9 46.2584C33.9 47.5584 32.6 46.8584 32.1 46.6584L32.9 45.1584C33.3 45.4584 34 45.6584 34.8 45.1584C35 45.0584 35.4 44.7584 35.5 44.3584C35.6 44.1584 35.5 43.8584 35.4 43.5584C35.2 43.1584 34.8 43.1584 34.6 43.1584C34.5 43.1584 34.2 43.2584 33.8 43.4584L33 43.9584L32.3 42.8584L32.9 42.5584C33.5 42.1584 33.7 41.7584 33.7 41.6584C33.8 41.4584 33.8 41.1584 33.6 40.8584C33.5 40.6584 33.3 40.4584 32.9 40.4584C32.6 40.4584 32.4 40.5584 32.2 40.6584C31.5 40.9584 31.4 41.7584 31.6 42.2584ZM42.9 33.0584C44.5 32.3584 45.8 32.5584 46.4 32.7584C47.8 33.2584 48.5 34.2584 48.8 34.9584C49.1 35.5584 49.5 36.8584 48.8 38.2584C48.4 39.1584 47.7 40.0584 46.2 40.7584C45.2 41.2584 43.9 41.4584 42.6 41.0584C41.1 40.5584 40.5 39.5584 40.1 38.8584C39.8 38.1584 39.4 37.0584 40.1 35.5584C40.8 34.3584 42 33.5584 42.9 33.0584ZM45.7 39.3584C46.8 38.8584 47.4 37.6584 46.6 35.8584C45.8 34.1584 44.4 33.8584 43.4 34.2584C42.3 34.7584 41.7 35.9584 42.5 37.7584C43.3 39.5584 44.7 39.8584 45.7 39.3584ZM71.4 23.9584C70.3 24.1584 69 24.6584 68.1 25.6584C67.1 26.8584 67.1 28.0584 67.2 28.7584C67.3 29.4584 67.7 30.6584 69 31.5584C70.1 32.2584 71.4 32.3584 72.5 32.1584C74.1 31.9584 75.1 31.1584 75.7 30.4584C76.7 29.2584 76.7 27.9584 76.6 27.2584C76.5 26.5584 76.1 25.3584 74.9 24.4584C74.3 24.2584 73.1 23.7584 71.4 23.9584ZM72.3 30.8584C71.1 31.0584 69.9 30.3584 69.6 28.4584C69.3 26.5584 70.3 25.5584 71.4 25.3584C72.5 25.1584 73.8 25.8584 74.1 27.7584C74.5 29.5584 73.5 30.6584 72.3 30.8584ZM81.3 29.5584L81.1 27.8584L82.2 27.7584C85.2 27.4584 85.5 25.9584 85.4 24.8584C85.2 23.3584 84.4 22.4584 81.7 22.7584L77.4 23.2584L77.5 24.4584L78.5 24.3584L79.1 29.7584L78.1 29.8584L78.2 31.1584L82.3 30.6584L82.2 29.3584L81.3 29.5584ZM80.7 24.0584H81.1C81.9 23.9584 82.9 23.9584 83.1 25.0584C83.2 26.2584 82.2 26.4584 81.4 26.4584H81L80.7 24.0584ZM86.8 30.2584L90.8 30.1584V28.8584H90V26.5584L92.6 26.4584V28.7584H91.8V30.0584L95.8 29.9584V28.6584H94.8L94.7 23.1584H95.7V21.8584L91.7 21.9584V23.2584H92.5V25.0584L89.9 25.1584V23.3584H90.7V22.0584L86.7 22.1584V23.3584H87.7L87.8 28.8584H86.8V30.2584ZM101.9 22.0584C100.8 21.9584 99.4 22.1584 98.4 23.0584C97.2 23.9584 97 25.1584 96.9 25.9584C96.9 26.6584 97 27.9584 98 29.0584C98.9 30.0584 100.2 30.3584 101.3 30.4584C102.9 30.5584 104 30.0584 104.8 29.4584C106 28.5584 106.3 27.2584 106.3 26.5584C106.3 25.8584 106.2 24.5584 105.2 23.4584C104.7 22.9584 103.7 22.1584 101.9 22.0584ZM101.5 28.9584C100.3 28.8584 99.3 27.9584 99.4 26.0584C99.5 24.1584 100.7 23.3584 101.8 23.4584C103 23.5584 104 24.4584 103.9 26.3584C103.8 28.2584 102.6 29.0584 101.5 28.9584ZM110.1 29.6584L110.8 24.2584L113.2 24.5584L113 25.7584L114.6 25.9584L114.9 23.4584L107.8 22.5584L107.6 23.7584L108.6 23.8584L107.9 29.2584L106.9 29.1584L106.7 30.4584L110.9 31.0584L111.1 29.7584L110.1 29.6584ZM120.4 24.4584C122.1 24.7584 123 25.6584 123.5 26.2584C124.4 27.4584 124.4 28.7584 124.2 29.4584C124.1 30.1584 123.7 31.3584 122.4 32.1584C121.6 32.6584 120.4 32.9584 118.8 32.6584C117.7 32.4584 116.5 31.9584 115.7 30.8584C114.8 29.6584 114.8 28.3584 114.9 27.6584C115 26.9584 115.4 25.7584 116.7 24.9584C117.9 24.2584 119.3 24.2584 120.4 24.4584ZM119 31.1584C120.1 31.3584 121.4 30.6584 121.7 28.8584C122 27.0584 121.1 25.9584 119.9 25.7584C118.8 25.5584 117.5 26.2584 117.2 28.0584C117 29.8584 117.9 30.9584 119 31.1584ZM130.1 29.5584C130.4 29.0584 131 28.6584 131.8 28.9584C132 29.0584 132.3 29.1584 132.5 29.3584C132.7 29.5584 132.7 29.8584 132.6 30.0584C132.5 30.4584 132.2 30.5584 132 30.6584C132 30.6584 131.5 30.8584 130.8 30.6584L130.2 30.4584L129.8 31.7584L130.6 32.0584C131.1 32.2584 131.3 32.3584 131.4 32.4584C131.6 32.6584 131.8 32.9584 131.6 33.3584C131.5 33.6584 131.3 33.8584 131.1 33.9584C130.7 34.1584 130.3 34.0584 130.1 33.9584C129.2 33.6584 128.9 32.9584 128.9 32.4584L127.2 32.8584C127.3 33.4584 127.7 34.8584 130 35.5584C130.7 35.7584 131.6 35.9584 132.4 35.7584C132.8 35.6584 133.6 35.2584 133.9 34.3584C134.1 33.7584 134 33.1584 133.8 32.7584C133.6 32.3584 133.3 32.0584 132.9 31.8584V31.7584C133.4 31.7584 133.9 31.6584 134.2 31.4584C134.6 31.1584 134.7 30.8584 134.8 30.5584C135 29.9584 134.9 29.4584 134.7 28.9584C134.4 28.4584 133.8 27.9584 133 27.7584C131.8 27.3584 131 27.6584 130.7 27.8584L130.9 27.2584L129.5 26.8584L128.8 29.2584L130.1 29.5584ZM140 37.5584L140.5 36.3584L142 36.9584L141 39.3584L134 36.4584L134.5 35.2584L135.4 35.6584L137.5 30.5584L136.6 30.1584L137.1 28.9584L144.1 31.8584L143.2 34.1584L141.7 33.5584L142.2 32.4584L139.6 31.3584L138.9 33.1584L141 34.0584L140.5 35.2584L138.4 34.3584L137.6 36.3584L140 37.5584ZM145.6 40.0584L146.3 38.5584L147.3 39.0584C150.1 40.3584 151 39.2584 151.5 38.2584C152.1 36.9584 151.9 35.6584 149.5 34.4584L145.6 32.5584L145.1 33.6584L146 34.0584L143.6 38.9584L142.7 38.5584L142.1 39.7584L145.8 41.5584L146.4 40.3584L145.6 40.0584ZM148 35.1584L148.4 35.3584C149.1 35.6584 150 36.2584 149.5 37.2584C149 38.3584 148 37.9584 147.3 37.5584L146.9 37.3584L148 35.1584ZM149.5 43.3584L150.2 42.2584L151 42.7584L153.9 38.1584L153.1 37.6584L153.8 36.5584L157.2 38.6584L156.5 39.7584L155.8 39.3584L154.8 40.9584L157 42.3584L158 40.7584L157.3 40.3584L158 39.2584L161.4 41.3584L160.7 42.4584L159.9 41.9584L157 46.5584L157.8 47.0584L157.1 48.1584L153.7 46.0584L154.4 44.9584L155.1 45.3584L156.3 43.3584L154.1 41.9584L152.9 43.9584L153.6 44.3584L152.9 45.4584L149.5 43.3584ZM157.9 48.6584L161 51.0584L161.8 50.0584L161 49.4584L162.3 48.5584L164.4 50.1584L163.9 51.6584L163.1 51.0584L162.3 52.0584L165.5 54.4584L166.3 53.4584L165.6 52.9584L167.3 47.3584L168.2 48.0584L169 47.0584L164.2 43.4584L163.4 44.4584L164.4 45.1584L159.5 48.3584L158.7 47.7584L157.9 48.6584ZM163.2 47.7584L165.8 45.9584L164.8 48.9584L163.2 47.7584ZM19.3 53.0584C19.6 53.3584 19.7 53.6584 19.7 53.9584C19.7 54.6584 19.1 55.2584 18.4 55.2584C17.7 55.2584 17.1 54.6584 17.1 53.9584C17.1 53.2584 17.7 52.6584 18.4 52.6584C18.7 52.6584 19 52.7584 19.3 53.0584Z" fill="#232221"/>
<path fill-rule="evenodd" clip-rule="evenodd" d="M114.9 53.9581C114.7 54.2581 114.4 54.4581 114 54.5581L112.6 52.7581C112.7 52.4581 112.7 52.1581 112.5 51.7581L114.3 50.6581C115.2 51.7581 115.5 53.1581 114.9 53.9581ZM83.9 88.0581C83.4 86.2581 82.3 80.9581 84.3 77.0581C83.8 78.5581 83.5 80.1581 83.5 81.9581C83.5 87.5581 86.2 92.1581 89.6 92.1581C97.4 92.1581 98.5 72.4581 89.7 71.5581C88.2 71.4581 81.5 71.9581 81.5 81.7581C81.5 84.7581 82.3 87.2581 83.6 89.1581C84 89.7581 84.2 89.8581 84.1 89.7581C84.1 89.6581 83.9 89.3581 83.7 88.9581C82.9 87.1581 82.2 85.0581 82.2 82.5581C82.2 76.1581 84.6 73.6581 86.6 72.7581C85.2 73.7581 82.8 76.1581 82.6 80.7581C82.4 84.0581 83.4 86.8581 83.9 88.0581ZM110.4 53.8581C111.3 54.3581 112.2 54.5581 113 54.5581L111.8 53.0581C111.5 53.0581 111.2 52.9581 111 52.8581L110.4 53.8581ZM111.3 86.6581C108.6 86.6581 105.3 86.6581 103.5 86.6581C105.2 85.1581 106.4 83.2581 106.9 80.9581H108.9L109.6 81.7581L109.1 82.6581C109.1 82.6581 110 84.0581 111.2 85.3581V86.6581H111.3ZM108.3 52.2581L109.6 52.1581L109.1 53.0581C108.8 52.7581 108.6 52.4581 108.3 52.2581ZM107.7 51.4581C107 50.3581 106.8 49.2581 107.3 48.5581L109.6 50.8581C109.6 51.0581 109.6 51.1581 109.6 51.3581L107.7 51.4581ZM112.7 49.0581C111 47.8581 109 47.3581 107.9 47.9581L110.2 50.2581C110.7 50.1581 111.3 50.4581 111.9 50.9581L112 51.0581L113.7 49.9581C113.4 49.6581 113.1 49.3581 112.7 49.0581ZM71.6 88.4581C72.6 87.2581 73.3 85.7581 73.8 84.0581H79.8C80.1 85.7581 80.4 87.6581 81.5 89.0581C79.6 88.9581 74.1 88.6581 71.6 88.4581ZM66.8 91.0581C67.5 90.9581 74.3 90.8581 75.4 90.6581L81.4 92.0581C82 92.1581 82.7 92.4581 83.3 92.5581C85.5 93.1581 87.8 93.5581 89.5 93.3581C92 93.1581 93.8 92.0581 95.7 89.1581C96 89.1581 96.6 89.1581 96.9 89.1581C97.5 89.1581 98 89.1581 98.5 89.0581C103.4 89.0581 109.6 89.0581 115.9 88.9581C118.8 90.7581 123.4 90.4581 126 88.8581C126.9 88.8581 127.5 88.8581 128 88.8581C131.2 88.7581 134.9 88.6581 136.2 88.2581C136.8 88.0581 136.9 87.8581 136.6 87.5581C135.4 86.8581 130.2 86.6581 128.8 86.6581C130 85.2581 130.6 84.0581 130.6 83.9581H131.1C131.4 83.7581 131.7 82.8581 131.7 82.8581L131 82.0581C131.1 81.7581 131.6 80.4581 131.6 80.4581L132.4 80.2581C132.4 80.1581 132.6 78.8581 132.6 78.8581L131.8 78.0581C131.9 77.6581 131.9 77.2581 132 76.8581L132.2 76.2581L133.1 75.7581C133.1 75.7581 133.2 74.6581 133.1 74.6581C133 74.6581 132.6 74.2581 132.3 74.0581C132.3 73.8581 132.3 73.5581 132.3 73.3581C132.3 72.6581 132.3 71.9581 132.2 71.2581L132.9 70.4581V70.3581C132.9 70.1581 132.9 69.6581 132.8 69.4581C132.7 69.3581 132.3 69.1581 131.9 69.0581C131.8 68.3581 131.6 67.5581 131.4 66.8581C131.6 66.5581 132.1 65.6581 132.1 65.6581C132.1 65.6581 131.9 64.5581 131.8 64.4581C131.8 64.3581 130.8 63.9581 130.2 63.7581C130.2 63.6581 130.1 63.5581 130.1 63.4581C130.2 63.1581 130.4 62.2581 130.4 62.2581L128.6 60.3581L128.4 59.1581C128.4 59.1581 126.1 57.8581 123.9 57.0581C123.5 56.8581 123 56.7581 122.6 56.6581C122.1 56.5581 121.7 56.4581 121.3 56.4581C120.7 56.4581 118.2 56.5581 118.2 56.5581L118.7 56.2581C118.7 56.2581 120.3 56.1581 121 56.0581C119.8 54.8581 118.2 54.0581 116.4 54.0581H116.3C117.1 52.3581 116.1 49.8581 113.8 48.0581C111.2 45.9581 107.9 45.5581 106.5 47.1581C105.1 48.7581 106 51.6581 108.7 53.7581L107.6 55.8581C107.3 55.1581 106.7 54.6581 106.1 54.6581C105.6 54.6581 105.2 54.9581 104.9 55.3581C104.3 54.8581 102.9 53.8581 102.9 53.8581C102.9 53.8581 91.6 53.2581 82.3 52.8581L82 44.3581C82 44.1581 81.8 43.9581 81.6 43.9581H80.9V39.0581H79.9V43.9581H79.2C79 43.9581 78.8 44.1581 78.8 44.3581V52.8581C74.2 52.6581 70.6 52.4581 70.2 52.4581C69 52.4581 65 53.2581 65 57.2581C64.9 57.1581 64.7 57.1581 64.5 57.1581C63.7 57.1581 63 58.0581 63 59.1581C63 60.2581 63.7 61.1581 64.5 61.1581C64.7 61.1581 64.9 61.1581 65.1 61.0581C65.1 61.2581 65.1 61.5581 65.1 61.7581H66.1V62.9581H65.1C65.1 63.3581 65.1 63.8581 65.2 64.2581H66.2V65.4581H65.2C65.2 65.8581 65.2 66.2581 65.3 66.5581H66.3V67.7581H65.3C65.3 68.1581 65.3 68.4581 65.4 68.8581H66.4V70.0581H65.4C61.4 70.6581 58.2 75.1581 58.2 80.7581C58.2 83.7581 59.1 86.5581 60.6 88.4581C59.3 88.5581 57.7 88.6581 57 88.8581C56 89.0581 52.3 89.5581 51.5 89.6581C50.7 89.7581 48 89.8581 48.8 90.3581C49.3 90.6581 51.9 90.8581 54.2 90.9581C58.5 90.9581 62.6 91.0581 66.8 91.0581ZM114.6 68.7581C114.2 68.9581 111.2 71.2581 111.1 71.4581L110.5 70.6581C110.5 70.6581 112.4 68.5581 113.4 67.9581C114.3 67.3581 116.1 66.3581 116.1 66.3581L117.5 67.4581C117.4 67.3581 114.9 68.5581 114.6 68.7581ZM113.6 73.9581C113.4 74.2581 111 76.9581 111 76.9581L110.4 76.2581C110.4 76.1581 112.7 73.2581 112.9 73.0581C113.1 72.8581 115.2 70.9581 115.2 70.9581L116.7 71.7581C116.7 71.7581 113.8 73.7581 113.6 73.9581ZM112.2 66.0581L111.7 65.3581C111.7 65.3581 114.4 63.3581 114.9 63.1581C115.5 62.9581 117.8 62.0581 117.8 62.0581C117.8 62.0581 118.7 63.3581 118.9 63.6581C118.9 63.6581 116.3 63.9581 115.5 64.2581C114.8 64.6581 112.2 66.0581 112.2 66.0581ZM114 61.8581C114 61.8581 113.7 61.2581 113.7 61.1581C113.7 61.0581 116.6 59.6581 116.9 59.6581C117.2 59.6581 120.1 59.5581 120.2 59.5581L120.8 61.2581L120 61.3581C120 61.3581 118.8 60.7581 117.7 60.7581C116.5 60.8581 114 61.8581 114 61.8581ZM116 58.6581C116.4 58.4581 116.8 58.1581 118 57.8581C119.2 57.5581 122.7 58.2581 122.8 58.3581C122.9 58.4581 123.2 60.1581 123.2 60.1581H122.9C122.6 59.5581 120.8 58.4581 119.5 58.3581C118.1 58.2581 116.2 58.9581 116.2 58.9581L116 58.6581ZM130.7 75.7581C130.4 79.3581 128.4 85.3581 123.7 85.3581C120.2 85.3581 117.3 80.1581 117.3 73.7581C117.3 69.5581 118.6 65.8581 120.5 63.8581C121 63.3581 121.5 62.9581 122 62.7581C123.7 61.9581 125.4 62.2581 126.7 63.1581C128.1 64.0581 129 65.5581 129.6 67.0581C130 68.0581 130.3 69.0581 130.4 70.2581C130.7 68.1581 129.6 64.5581 128.5 62.7581C127.6 61.2581 126.3 60.0581 124.6 59.5581C123.7 59.1581 123.5 58.3581 123.4 58.1581C123.3 57.9581 118.4 57.1581 117.6 57.4581C116.8 57.6581 115.7 58.4581 115.7 58.4581L115 57.9581L114.1 58.6581L114.9 59.6581L115.7 59.5581L115.8 59.8581L114.6 60.2581L114.4 59.6581C114.3 59.6581 113.1 60.8581 113.1 60.8581L112.5 60.2581L111.7 60.7581L112.8 63.0581L114 62.6581L114.1 63.0581L112.5 63.9581C112.5 63.8581 111.9 62.9581 111.9 62.9581L111 63.8581L110.2 63.4581L109.6 64.1581L111.2 67.8581L112.1 67.4581L112.5 67.7581L111.1 69.0581L110 67.1581L109.4 67.9581C109.4 67.9581 108.4 67.8581 108.3 67.8581C108.2 67.8581 108 68.6581 108 68.6581L110.9 72.9581L111.7 72.4581L112.2 72.9581L110.4 75.4581L110.3 73.7581L108.9 72.3581L107.7 73.0581L108.1 75.1581L111.4 78.9581L111.1 79.7581L108.8 77.6581L108 77.9581L111.9 83.2581C111.9 83.2581 112.3 83.0581 112.2 82.9581C112.1 82.8581 111.4 81.5581 111.4 81.5581C111.4 81.5581 113.9 77.2581 114 77.2581C114.1 77.2581 116.2 76.6581 116.2 76.6581L116.1 78.8581L113.4 83.1581L114.3 83.8581L116.6 81.3581L117.5 82.5581L116 86.0581L117 86.7581L118.5 84.4581L119.3 84.8581L118.7 87.7581C118.7 87.7581 119.3 88.3581 119.3 88.2581L121.2 86.7581C121.2 86.7581 122.3 88.0581 122.5 88.0581C122.6 88.0581 123.3 87.9581 124.1 87.7581C129.2 85.9581 130.9 80.2581 130.7 75.7581ZM90.2 89.7581C87.6 89.7581 85.5 86.2581 85.5 82.0581C85.5 77.7581 87.6 74.3581 90.2 74.3581C92.8 74.3581 94.9 77.8581 94.9 82.0581C94.8 86.3581 92.8 89.7581 90.2 89.7581ZM90.1 81.5581C89.9 81.5581 89.9 81.6581 89.8 81.7581H88.4C88.5 81.5581 88.6 81.3581 88.8 81.2581C89 81.1581 89.4 81.1581 89.8 81.1581C90.8 81.0581 91.1 81.5581 91.1 82.2581C91.1 82.6581 91 82.9581 90.9 83.2581C90.8 83.4581 90.6 83.6581 90.3 83.8581C90 84.0581 89.6 84.1581 89.3 84.1581C88.4 84.1581 88.2 82.8581 88.4 82.0581H89.8C89.8 82.5581 90 82.9581 90.3 82.9581C90.7 83.0581 90.9 81.5581 90.1 81.5581ZM89.7 87.9581C88.8 87.9581 88 87.2581 87.5 86.0581C87.9 86.6581 88.5 87.0581 89.1 87.0581C90.5 87.0581 91.7 85.1581 91.7 82.7581C91.7 80.3581 90.5 78.4581 89.1 78.4581C88.2 78.4581 87.4 79.2581 86.9 80.3581C87.3 78.2581 88.4 76.8581 89.6 76.8581C91.2 76.8581 92.5 79.3581 92.5 82.4581C92.7 85.4581 91.3 87.9581 89.7 87.9581ZM89.9 75.7581C92 75.7581 93.6 78.7581 93.6 82.4581C93.6 86.1581 91.9 89.1581 89.9 89.1581C87.8 89.1581 86.2 86.1581 86.2 82.4581C86.1 78.7581 87.8 75.7581 89.9 75.7581ZM79.9 78.0581C79.6 79.2581 79.4 80.8581 79.6 82.0581H78.4V78.0581H79.9ZM65.6 72.3581C63.8 72.9581 62.7 74.5581 62.1 75.7581C59.9 80.2581 61.7 85.7581 61.9 86.4581C61.6 86.3581 61.2 85.5581 61 84.9581C59.6 80.4581 60.3 74.3581 64.4 71.4581C60.1 73.4581 59.3 80.2581 60.3 84.4581C60.7 86.0581 60.8 86.2581 61.5 87.5581C59.6 85.5581 59.2 81.6581 59.3 79.8581C59.5 75.8581 61.3 71.6581 65.5 70.5581L65.6 72.3581ZM67.2 79.4581C67.4 79.3581 67.6 79.2581 67.8 79.2581C68.4 79.2581 69 79.7581 69.3 80.4581L71.3 80.8581L72.2 81.0581V79.8581C72.2 79.8581 71.7 79.7581 71.2 79.7581C70.9 79.7581 70.6 79.7581 70.6 79.7581L70.2 78.0581L66.9 77.6581C66.9 77.6581 66.4 76.3581 66.2 75.6581C66.1 75.6581 66.1 75.7581 66 75.7581C64.4 76.5581 63.3 78.8581 63.3 81.5581C63.3 84.9581 65.1 87.6581 67.3 87.6581C69 87.6581 70.4 86.0581 71 83.7581C70.6 83.4581 70.1 82.8581 70.1 82.8581C70.1 82.8581 69.1 85.9581 67.2 85.8581C65.6 85.7581 64.8 83.7581 64.8 82.5581C64.9 82.9581 65.6 85.0581 67.2 85.0581C68.8 84.9581 69.3 82.8581 69.3 82.8581L69.1 82.7581C68.8 83.2581 68.4 83.5581 67.8 83.5581C66.9 83.5581 66.2 82.6581 66.2 81.4581C66.2 80.5581 66.6 79.8581 67.2 79.4581ZM65 59.1581C65 59.8581 64.7 60.3581 64.3 60.3581C63.9 60.3581 63.6 59.8581 63.6 59.1581C63.6 58.4581 63.9 57.9581 64.3 57.9581C64.7 57.9581 65 58.4581 65 59.1581ZM79.5 59.1581C79.5 59.9581 79.2 60.5581 78.8 60.5581C78.4 60.5581 78.1 59.9581 78.1 59.1581C78.1 58.3581 78.4 57.7581 78.8 57.7581C79.2 57.7581 79.5 58.4581 79.5 59.1581ZM80.2 59.2581C80.2 58.8581 80.1 58.4581 79.9 58.0581C79.8 57.9581 80 57.8581 80.2 57.9581C80.6 58.1581 81 58.8581 81 59.2581C81 59.6581 80.6 60.3581 80.2 60.5581C80.1 60.6581 79.9 60.5581 79.9 60.4581C80.1 59.9581 80.1 59.6581 80.2 59.2581ZM80.9 66.9581H82.8L82.7 68.2581L81.9 68.9581L81.3 68.6581L80.9 66.9581ZM85.7 68.7581L84.8 66.7581L87.4 66.5581L91.1 66.9581V68.7581H85.7ZM82.3 63.5581C82.4 63.5581 83.2 62.7581 83.2 62.7581H89.4V63.7581H82.3V63.5581ZM122 74.2581C122 73.3581 122.4 72.6581 122.9 72.6581C123.4 72.6581 123.8 73.3581 123.8 74.2581C123.8 75.1581 123.4 75.8581 122.9 75.8581C122.4 75.8581 122 75.1581 122 74.2581ZM124 83.0581C123.6 83.0581 123.1 82.9581 122.7 82.6581C122.9 82.7581 123.1 82.7581 123.3 82.7581C125.6 82.7581 128 78.8581 128 75.0581C128 71.2581 126.8 67.0581 124.6 66.8581C126.3 67.8581 127.2 71.5581 127.2 74.8581C127.2 78.7581 125.1 81.8581 122.8 81.8581C122.1 81.8581 121.5 81.5581 121 81.1581C120.6 80.5581 120.3 79.7581 120 78.9581C120.6 80.2581 121.4 81.0581 122.4 81.0581C124.2 81.0581 125.6 78.1581 125.6 74.5581C125.6 70.9581 124.2 68.0581 122.4 68.0581C121.3 68.0581 120.4 69.1581 119.8 70.8581C120.5 67.8581 122.1 65.6581 124 65.6581C126.5 65.6581 128.6 69.5581 128.6 74.4581C128.6 79.1581 126.6 83.0581 124 83.0581ZM123.9 64.7581C126.9 64.7581 129.3 69.0581 129.3 74.3581C129.3 79.6581 126.9 83.9581 123.9 83.9581C120.9 83.9581 118.5 79.6581 118.5 74.3581C118.5 69.0581 120.9 64.7581 123.9 64.7581ZM104.6 56.5581L105.1 60.6581C105.1 60.6581 97 60.6581 94.9 60.6581V56.1581C94.9 55.7581 94.5 55.0581 93.6 54.6581L102.3 55.0581L104.6 56.5581ZM95.5 59.7581H104.3L104.4 60.1581H95.5V59.7581ZM93.3 60.8581L92.6 59.1581C83.9 59.1581 83.9 59.1581 83.8 59.1581L83.9 58.9581V58.7581C84.1 58.7581 89.3 58.7581 92.7 58.7581H92.8L93.2 59.7581V60.8581H93.3ZM98.1 66.2581C98.1 66.1581 98.1 66.0581 98.1 65.9581C98.7 64.1581 100.2 63.5581 100.2 63.5581H103.7C105.2 63.5581 106.5 65.4581 106.5 67.8581C106.5 70.2581 105.3 72.1581 103.7 72.1581C102.4 72.1581 101.3 70.7581 101 68.7581L100.9 68.2581H98C98 69.0581 98.2 69.7581 98.5 70.4581L95.3 72.6581H94.8L93.3 70.8581V62.4581L92.2 59.8581H82.1C82.1 59.8581 81.7 56.7581 79.4 56.7581C77.6 56.7581 77.4 58.3581 77.4 59.2581C77.4 59.8581 77.4 61.1581 79 61.8581L80.3 72.6581H82.7C82.6 72.6581 81.4 73.8581 80.7 75.7581H71L69.4 73.6581V72.8581H79.2V72.4581H78.2C78 70.2581 77.6 65.7581 77.3 63.0581C77.2 62.0581 77.1 61.3581 77.1 61.2581C77.1 60.9581 76.8 60.1581 76.4 59.6581C76 58.9581 75.5 58.8581 74.8 58.8581V59.2581C76.1 59.2581 76.6 60.7581 76.7 61.3581C76.7 61.5581 76.8 62.1581 76.9 63.2581C77.2 65.8581 77.6 70.3581 77.8 72.5581H69.4V71.1581H75.9V69.9581H69.4V68.8581H75.9V67.6581H69.3V66.5581H75.9V65.3581H69.3V64.2581H75.9V63.0581H69.3V61.7581H76V60.5581H69.3V59.1581H74.6V58.7581H68.9C68.5 58.3581 68.1 57.5581 68.2 56.3581C68.3 55.1581 69.1 54.3581 69.7 53.9581C70 53.7581 70.4 53.6581 70.8 53.6581L92.2 54.6581C93.8 54.8581 94.6 55.7581 94.6 56.2581V61.2581C94.6 62.6581 94.6 66.2581 94.6 66.2581H98.2H98.1ZM99.4 56.7581H100L100.3 57.0581V57.4581L99.8 57.6581C99.8 57.7581 99.4 56.8581 99.4 56.7581ZM102.5 56.8581H103.1L103.4 57.1581V57.5581L102.9 57.8581C102.9 57.7581 102.5 56.9581 102.5 56.8581ZM96.2 56.7581H96.8C96.8 56.7581 97.1 56.9581 97.1 57.0581V57.4581L96.6 57.6581L96.2 56.7581ZM81.8 56.1581H82.3L82.6 56.3581V56.6581L82.2 56.8581C82.2 56.9581 81.8 56.2581 81.8 56.1581ZM84.5 56.2581H85L85.3 56.4581V56.7581L84.9 56.9581C84.9 57.0581 84.5 56.3581 84.5 56.2581ZM87.1 56.3581H87.6L87.9 56.5581V56.8581L87.5 57.0581C87.4 57.1581 87.1 56.3581 87.1 56.3581ZM89.8 56.4581H90.3L90.6 56.6581V56.9581L90.2 57.1581C90.2 57.2581 89.8 56.4581 89.8 56.4581ZM92.6 56.5581H93.1L93.4 56.7581V57.0581L93 57.2581C93 57.2581 92.7 56.5581 92.6 56.5581ZM71.3 58.4581C71.3 58.4581 69.1 57.7581 69.1 56.0581C69.1 54.4581 70.5 54.1581 70.5 54.1581H71.2C71.2 54.1581 69.9 54.6581 70 56.1581C70.1 57.6581 71.3 58.4581 71.3 58.4581ZM104 66.6581C103.9 66.6581 103.9 66.7581 103.9 66.8581C104 67.2581 104.1 68.0581 104.1 68.7581C104.1 69.4581 103.8 70.6581 103.4 71.3581C103.3 71.5581 103.1 71.5581 102.9 71.4581C102.2 70.7581 101.7 69.3581 101.7 68.0581C101.7 66.0581 102.7 64.3581 103.9 64.3581C105.1 64.3581 106.1 65.9581 106.1 68.0581C106.1 68.5581 106.1 68.9581 106 69.3581C105.7 70.3581 105.3 70.9581 104.9 71.2581C104.7 71.4581 104.2 71.2581 104.3 70.9581C104.5 70.3581 104.7 69.4581 104.8 68.7581C104.8 67.8581 104.6 67.1581 104.4 66.8581C104.3 66.6581 104.2 66.6581 104 66.6581ZM96.7 79.8581L96.6 79.0581C99.8 78.7581 102.7 77.8581 104.4 76.4581L104.5 76.3581L104.9 76.7581L104.8 76.8581C103.1 78.3581 100.2 79.4581 96.7 79.8581ZM79.5 44.6581H81.4L81 52.8581H80.5L79.5 44.6581Z" fill="#232221"/>
<path fill-rule="evenodd" clip-rule="evenodd" d="M9.2 127.158C9.2 128.058 9.6 128.358 10.5 128.358H12.5C13.9 128.358 16.1 128.358 17.7 129.558C19.2 130.758 19.3 132.558 19.3 133.358C19.3 135.358 18.6 136.658 17.8 137.358C17 138.058 15.6 138.758 13.1 138.758C11.4 138.758 10 138.458 8.6 137.958V134.258C8.6 133.458 8.2 133.258 7.4 133.258H1.1C0.1 133.258 0 133.558 0 134.258V141.558C0 142.158 0.1 142.558 0.8 143.058C1.2 143.458 2.7 144.458 5.9 145.358C8.7 146.058 11.5 146.258 14.3 146.258C14.8 146.258 15.4 146.258 16 146.258C15.8 145.958 15.7 146.258 15.8 145.958H16C16.3 146.058 15.7 145.958 16.5 146.158C16.5 146.158 16.5 146.158 16.5 146.258C19 146.158 21.8 145.658 24.3 144.358C24.2 144.258 24.5 144.058 24.8 144.058C25.5 143.658 26.1 143.158 26.8 142.558C29.7 139.858 30.3 136.458 30.3 133.658C30.3 131.458 29.9 129.058 27.7 126.858C26.1 125.158 24.3 124.458 23 124.058C24.5 123.658 26.3 122.958 27.5 121.058C28.8 119.258 29.1 117.158 29.1 115.658C29.1 112.558 28.1 109.958 26 107.958C22.7 104.758 18.2 104.258 14.5 104.258C10.6 104.258 4.3 105.158 1.3 107.658C0.7 108.158 0.5 108.558 0.5 109.258V115.958C0.5 116.758 0.9 116.958 1.7 116.958H8C9 116.958 9 116.558 9 115.958V112.258C10.2 111.858 11.4 111.658 13 111.658C14.4 111.658 15.9 111.858 17.1 112.858C17.1 112.858 17.1 112.958 17.2 112.958L17.3 113.058C18 113.658 18.3 114.358 18.5 115.058C18.5 114.958 18.6 114.958 18.9 114.858C19.1 115.258 18.8 115.158 18.6 115.258C18.7 115.658 18.7 116.058 18.7 116.358C18.7 116.558 18.7 116.758 18.7 116.958C18.8 116.958 18.9 116.958 19 116.958C19.5 117.058 19.4 116.858 19.8 117.058C19.6 117.558 19.1 117.458 18.7 117.358C18.4 118.758 17.6 119.658 16.7 120.058C15.3 120.858 12.6 120.958 11.5 120.958H10.6C9.6 120.958 9.3 121.358 9.3 122.158V127.158H9.2ZM144.4 122.958C144.2 123.058 144.2 122.958 144 123.058V123.458C143.7 123.558 142.7 123.358 142.5 123.358C142.5 123.058 142.6 122.958 143 122.858C143.3 122.958 143.3 123.058 143.5 123.158L143.9 123.058C143.9 122.858 143.7 122.558 144.1 122.458C144.4 122.358 144.3 122.758 144.4 122.958ZM144.2 120.058C143.7 119.458 144 119.458 144 119.158C144 118.958 143.9 118.858 143.9 118.758C143.9 118.558 144.6 118.358 144.6 119.258C144.6 119.458 145.1 120.058 144.2 120.058ZM149.1 105.658C148.9 105.758 148.9 105.858 148.7 105.858C148.5 105.858 148.4 105.758 148.5 105.658C148.6 105.558 148.7 105.558 149 105.558C149.4 105.558 149 105.458 149.4 105.458C149.7 105.658 149.4 105.658 149.8 105.858C150.4 106.158 149.9 106.558 149.4 106.258C149.1 106.058 149.3 105.958 149.1 105.658ZM116.9 131.258C116.5 131.058 116.3 130.358 117.2 130.358C117.6 130.358 117.5 130.658 117.4 130.858C117.2 131.058 117.3 131.258 116.9 131.258ZM178.7 111.258C178.9 111.258 179 111.358 179.2 111.558H179.3C179.6 111.758 179.6 112.058 179.1 111.958C178.1 111.758 178.2 111.158 178.7 111.258ZM123.7 117.358C123.2 117.458 122.6 117.658 122.3 117.158C122.7 116.958 122.6 117.058 123.1 117.058C123.7 116.958 123.8 116.958 123.7 117.358ZM144.2 111.858C143.8 112.058 143.7 111.958 143.2 111.858C142.6 111.858 142.9 112.058 142.5 112.058C142.3 111.958 142.5 111.958 142.6 111.758C142.9 111.558 142.6 111.558 143.1 111.558C143.4 111.558 143.3 111.458 143.7 111.458C144.2 111.458 144.2 111.558 144.2 111.858ZM120.1 113.758C119.9 113.658 120 113.658 119.9 113.358C119.8 113.158 119.8 112.858 120.2 112.758C120.4 112.858 120.3 112.858 120.4 113.058C120.6 113.358 120.9 113.258 120.5 113.558C120.3 113.658 120.3 113.658 120.1 113.758ZM147.5 107.758C147.8 107.658 147.6 107.658 147.9 107.558C148.4 107.858 147.7 108.358 147.2 108.058L147.1 107.958C147 107.858 147 107.958 147 107.858C146.9 107.758 146.8 107.758 146.9 107.658C147 107.458 147.4 107.658 147.5 107.758ZM144.1 105.458C144.1 105.658 144 105.458 143.7 105.958C143.7 105.958 144.2 106.358 143.7 106.458C143.3 106.458 143.5 106.358 143.1 106.358C142.8 106.258 142.6 106.258 142.8 106.058C143.1 106.058 142.9 106.158 143.2 106.158C143.4 106.058 143.3 106.058 143.5 106.058C143.4 105.858 143.3 105.858 143.5 105.658C143.7 105.458 143.7 105.458 143.8 105.458C144.3 105.358 144 105.358 144.1 105.458ZM123.8 107.458C124 107.658 124.4 107.958 123.5 107.858C123.1 107.858 122.6 107.958 122.8 107.458C123.1 107.458 122.8 107.558 123.8 107.458ZM121.9 109.558C121.9 109.758 121.8 109.958 121.6 109.958C121.3 109.858 121.6 109.858 121.5 109.558C121.4 109.358 121.2 109.458 121.2 109.158C121.4 109.058 121.8 108.958 122.1 108.958C122 109.058 121.9 109.058 121.9 109.158C121.8 109.358 121.9 109.358 121.9 109.558ZM144 130.658C143.7 130.658 143.7 130.758 143.5 130.658C143.3 130.158 143.8 130.358 144 130.358C144.2 130.358 144 130.258 144.4 130.358C144.5 130.458 144.8 130.758 144.6 130.858C144.4 131.158 144.1 130.858 144 130.658ZM115.2 107.058C115.2 107.258 115.1 107.158 115.1 107.458C115.1 107.658 115.2 107.458 115.2 107.758L114.4 107.558C114.3 107.058 114.8 106.758 115.2 107.058ZM188 116.058C187.8 116.058 187.8 116.058 187.6 116.058C187 115.958 187.2 115.558 187.5 115.358C188 115.458 188.2 115.758 188 116.058ZM143.1 119.158C143.5 119.258 143.5 119.958 142.9 119.758C142.3 119.558 142.7 118.958 143.1 119.158ZM145 121.058C145 121.158 145 121.158 144.9 121.258C144.8 121.458 144.6 121.558 144.2 121.558C144.1 121.258 144.5 120.858 144.7 120.858C144.9 120.758 145 120.858 145 121.058ZM145 131.058C145.4 130.958 145 131.058 145.4 130.858C145.8 130.658 145.7 130.458 145.5 130.358C145 130.258 144.7 130.758 145 131.058ZM123.6 115.158C124.4 115.158 124 115.058 124.3 114.858C124.5 114.758 124.6 114.858 124.6 114.958C124.6 115.058 124.4 115.058 124.3 115.058C124.2 115.258 124.2 115.358 123.8 115.358C123.7 115.258 123.7 115.258 123.6 115.258C123.5 115.158 123.6 115.258 123.5 115.158C123.3 115.058 123 115.158 123.2 114.758C123.6 114.958 123.5 114.958 123.6 115.158ZM53.6 121.758L53.4 122.258C52.6 122.358 52.8 121.858 53.2 121.558C53.4 121.658 53.4 121.658 53.6 121.758ZM181.7 109.858C181.3 109.858 181.6 110.058 181 109.958C181 109.758 181 109.758 181.2 109.658C181.4 109.558 181.3 109.558 181.5 109.458C181.8 109.458 182 109.558 182.1 109.658C182.4 109.958 181.9 109.858 181.7 109.858ZM179.8 107.858C179.8 108.558 179.2 108.458 179.2 107.858C179.1 107.458 179.8 107.558 179.8 107.858ZM142.9 127.058C142.8 127.058 142.5 126.858 142.3 126.758L142.4 126.458C142.9 126.458 143.7 126.858 142.9 127.058ZM125.2 123.058C124.9 122.758 125.5 122.458 125.9 122.758C126.2 123.058 125.5 123.258 125.2 123.058ZM144.7 128.858C144.4 129.058 143.9 129.058 143.8 128.758C143.9 128.658 144 128.558 144.3 128.558C144.6 128.458 144.7 128.658 144.7 128.858ZM122.3 113.058C122.4 113.358 121.7 113.758 121.5 113.458C121.4 113.358 121.7 113.158 121.8 113.058C121.9 113.058 121.9 112.958 122.3 113.058ZM150 138.858C149.6 138.958 149.7 139.058 149.4 139.058C149.1 138.958 149.1 138.658 149.4 138.558C149.7 138.358 149.9 138.558 150 138.858ZM148.3 144.158C148.2 144.258 148.3 144.158 148.2 144.258C148.2 144.258 147.6 144.458 147.6 144.158C147.5 143.658 148.2 143.758 148.3 144.158ZM184.3 125.358C183.5 125.458 183.2 124.958 183.7 124.958H184.1C184.5 124.958 184.4 125.158 184.3 125.358ZM126.2 120.758C126.7 120.858 126.5 121.358 126.1 121.258C125.7 121.258 125.8 120.658 126.2 120.758ZM123.5 121.658C123.4 121.458 123.4 121.358 123.5 121.158C124.5 120.958 124.1 121.758 123.5 121.658ZM147.1 142.358C146.8 141.558 148.2 141.858 147.6 142.258C147.5 142.358 147.3 142.358 147.1 142.358ZM120.9 144.558C120.6 144.558 120.3 144.458 120.2 144.258C120.4 143.958 121.3 144.158 120.9 144.558ZM182 108.258C181.5 108.458 181.2 108.058 181.4 107.858C181.7 107.658 182.1 108.058 182 108.258ZM179.8 114.558C179.8 114.458 180 114.258 180.2 114.158C180.4 114.158 180.8 114.358 180.6 114.458C180.5 114.658 180 114.658 179.8 114.558ZM142.4 107.558C142.3 107.658 142.5 107.658 142.2 107.658C142.1 107.658 141.9 107.658 141.9 107.658C141.6 107.758 141.9 107.858 141.4 107.858C141.4 107.658 141.4 107.658 141.6 107.558L141.9 107.358C142.1 107.458 142.3 107.458 142.4 107.558ZM40.6 106.258C40.6 106.958 40.2 106.758 40.2 106.558C40.2 106.158 40.1 106.158 40.4 105.958C40.5 106.158 40.6 106.158 40.6 106.258ZM126.2 107.558C126.1 107.758 126 107.858 125.7 107.858C125.3 107.458 125.9 107.158 126.2 107.558ZM179 115.558C179 115.858 178.4 115.758 178.4 115.458C178.4 115.358 178.4 115.358 178.4 115.358C178.8 115.258 179 115.258 179 115.558ZM184 110.058C184.2 110.058 184.2 109.958 184.4 109.958C184.8 109.958 184.7 110.258 184.5 110.358C184.2 110.458 184 110.258 184 110.058ZM122.4 140.258C122.5 140.158 122.4 140.158 122.6 140.058C122.7 140.058 123.3 140.258 123.1 140.458C122.9 140.758 122.5 140.358 122.4 140.258ZM123.7 105.858V106.058C123.4 106.158 123.2 106.158 122.9 106.058C123 105.758 123.3 105.758 123.7 105.858ZM143.3 115.258C143.3 115.558 143.2 115.558 142.9 115.658C142.8 115.558 142.7 115.458 142.7 115.258C142.9 115.158 143.1 115.158 143.3 115.258ZM144.8 134.958C144.8 134.758 144.8 134.758 144.9 134.658H145.3C145.7 134.958 145.3 135.058 144.8 134.958ZM120.9 142.158C120.6 142.258 120.7 142.158 120.4 142.158C120 141.758 120.6 141.758 120.7 141.758C120.8 141.858 120.9 141.958 120.9 142.158ZM49.1 110.258C48.3 110.458 48.4 109.958 48.6 109.858C48.7 109.858 49.1 109.958 49.1 110.258ZM144.1 115.558C143.8 115.658 143.6 115.558 143.4 115.458C143.3 115.358 143.3 115.458 143.3 115.258C143.6 115.158 143.6 115.258 143.8 115.358C144 115.358 144.1 115.358 144.1 115.558ZM144.2 109.858L144.1 110.158C143.9 110.258 143.9 110.258 143.6 110.158C143.5 109.758 143.7 109.858 144.2 109.858ZM148.9 109.258C148.9 109.658 148.5 109.658 148.3 109.458C148.2 109.258 148.7 109.158 148.9 109.258ZM185.5 125.458C185.3 125.458 185.2 125.458 185.2 125.258C185.4 125.058 185.3 125.258 185.5 125.158C185.6 125.058 185.6 125.058 185.7 124.958C186 124.958 186.2 125.058 185.9 125.158L185.5 125.458ZM179.3 105.458C179.3 105.558 178.5 106.058 178.5 105.558C178.7 105.458 178.9 105.358 179.3 105.458ZM143.1 124.958C142.8 124.958 142.9 124.958 142.8 124.958C142.7 124.958 142.6 124.958 142.6 124.858C142.6 124.458 143.5 124.458 143.1 124.958ZM143 133.458C142.8 133.458 142.7 133.358 142.7 133.158C142.7 132.958 142.9 132.958 143.1 132.858C143.2 133.258 143.2 133.358 143 133.458ZM145 124.958C144.9 125.158 145 125.058 144.8 125.158C144.5 125.158 144.3 124.958 144.3 124.758C144.5 124.658 144.8 124.758 145 124.958ZM144.7 107.658C144.3 107.558 144.4 107.158 144.6 107.158C144.8 107.158 144.9 107.258 144.9 107.358C144.9 107.558 144.9 107.558 144.7 107.658ZM122.6 111.858C122.4 111.758 122.3 111.758 122.4 111.558C122.4 111.358 122.5 111.358 122.8 111.358C122.9 111.558 122.8 111.758 122.6 111.858ZM182 106.658C181.8 106.858 181.7 106.858 181.3 106.858V106.658C181.5 106.458 181.8 106.358 182 106.658ZM145.2 111.658C144.9 111.758 145 111.758 144.8 111.658C144.8 111.458 144.9 111.258 145.3 111.258C145.4 111.458 145.4 111.458 145.2 111.658ZM121.3 138.758C121.3 138.958 120.8 138.958 120.6 138.858C120.6 138.658 120.6 138.658 120.8 138.558C121 138.558 121.3 138.658 121.3 138.758ZM145.4 107.658C145.4 107.658 145.2 107.558 145.4 107.358C145.5 107.258 145.7 107.258 145.8 107.358C146.1 107.458 145.8 107.658 145.4 107.658ZM58.2 123.558C57.8 122.958 59 123.158 58.6 123.558C58.5 123.658 58.2 123.558 58.2 123.558ZM144.9 128.758L145 128.658C146.3 128.458 145 129.358 144.9 128.758ZM143 117.858C143 118.058 142.8 118.158 142.6 118.258C142.5 118.158 142.5 117.958 142.6 117.858C142.7 117.758 143 117.658 143 117.858ZM118.1 106.158V106.458C117.8 106.558 117.5 106.458 117.5 106.258C117.7 106.058 117.8 106.058 118.1 106.158ZM145.4 132.858C145.2 132.858 145.1 132.858 144.9 132.858C144.8 132.458 145.7 132.358 145.4 132.858ZM44.3 119.358C44.3 119.458 44.2 119.658 43.9 119.558C43.7 119.458 43.7 119.258 43.8 119.158C44.1 119.158 44.2 119.158 44.3 119.358ZM143.1 120.958C143.3 120.958 144 120.858 143.7 121.158C143.6 121.258 143.5 121.258 143.3 121.258C143.1 121.158 143.1 121.158 143.1 120.958ZM42.2 106.158C42.1 106.358 42.1 106.358 41.9 106.458C41.6 106.458 41.5 106.358 41.5 106.158C41.7 106.158 42 106.058 42.2 106.158ZM189.4 127.158C189.4 127.358 189.4 127.358 189.1 127.458C188.8 127.358 188.6 126.858 189.4 127.158ZM122.1 105.958C122.1 106.458 121.7 106.058 121.7 105.958C121.8 105.858 121.8 105.758 122 105.658C122.1 105.758 122.1 105.758 122.1 105.958ZM120.3 134.658C120.3 134.758 120.2 134.858 120.1 134.858C119.7 134.758 119.7 134.458 120 134.458C120.1 134.458 120.3 134.558 120.3 134.658ZM91.1 129.358C90.6 129.358 90.7 129.058 90.8 128.958C91 128.958 91 128.958 91.1 129.058C91.2 129.258 91.1 129.258 91.1 129.358ZM145.6 142.158C145.3 142.258 145.2 142.158 145.1 142.058C145.2 141.758 145.6 141.858 145.7 141.958C145.7 142.058 145.6 142.158 145.6 142.158ZM119.9 130.258C119.5 130.258 119.6 130.258 119.4 130.258C119.3 129.858 120.1 129.758 119.9 130.258ZM119 135.158L118.9 135.258C118.6 135.258 118.5 135.158 118.4 135.058C118.6 134.758 119 134.858 119 135.158ZM40.3 112.158C40.3 111.858 40.4 111.758 40.8 111.758C40.8 112.058 40.7 112.158 40.3 112.158ZM144.6 123.658C144.4 123.558 144.5 123.658 144.4 123.558L144.5 123.258C144.7 123.258 144.9 123.258 144.9 123.458C144.9 123.558 144.8 123.658 144.6 123.658ZM39 111.558C38.9 111.358 39 111.158 39.3 111.158C39.6 111.358 39.4 111.558 39 111.558ZM184.4 117.758C184.4 118.058 183.8 117.958 183.8 117.858C183.8 117.558 184.3 117.658 184.4 117.758ZM124.7 116.958C124.7 117.158 124.8 117.158 124.6 117.258C124.3 117.358 124.3 117.158 124.3 116.958C124.4 116.958 124.4 116.958 124.7 116.958ZM122.9 144.058C122.4 144.158 122.3 143.858 122.5 143.658C122.8 143.758 122.9 143.858 122.9 144.058ZM145.1 140.458C145.2 140.758 144.6 140.858 144.5 140.558C144.5 140.558 144.5 140.458 144.8 140.458C145 140.458 145 140.458 145.1 140.458ZM48.7 106.158C48.3 106.158 48.2 105.958 48.4 105.858C48.7 105.758 48.8 105.958 48.7 106.158ZM86.9 107.358C86.8 107.558 86.7 107.658 86.4 107.558L86.3 107.358L86.6 107.258C86.8 107.258 86.8 107.258 86.9 107.358ZM115.4 127.758H115.2C114.9 127.758 114.9 127.658 114.9 127.458C115.2 127.458 115.5 127.358 115.4 127.758ZM145.8 123.758H145.6C145.5 123.558 145.4 123.458 145.7 123.358C146 123.358 146 123.458 145.8 123.758ZM117.7 109.358C117.8 109.658 117.4 109.658 117.1 109.558C117.1 109.258 117.3 109.258 117.7 109.358ZM185.8 115.658V115.458C186 115.458 186.1 115.358 186.3 115.458C186.4 115.658 186.1 115.658 185.8 115.658ZM41.1 115.458C41.4 115.558 41.4 115.858 41.1 115.858C40.8 115.758 40.8 115.558 41.1 115.458ZM149.9 107.958C149.6 107.958 149.5 107.958 149.5 107.758C149.7 107.558 150 107.558 149.9 107.958ZM86.1 127.758C86 127.758 85.9 127.858 85.7 127.758C85.4 127.458 86.2 127.358 86.1 127.758ZM41.6 119.358C41.1 119.358 41.2 119.058 41.4 119.058C41.7 118.958 41.7 119.258 41.6 119.358ZM144.1 133.058C143.9 133.058 143.8 132.958 143.8 132.858V132.658C144.3 132.658 144.3 132.858 144.1 133.058ZM94.1 129.758C93.8 129.758 93.7 129.758 93.7 129.558C94.1 129.358 94.3 129.458 94.1 129.758ZM56.5 111.958C56.4 112.058 56.5 112.058 56.2 112.158C56 112.158 56 112.158 55.9 112.158C55.9 111.858 56.2 111.858 56.5 111.958ZM117.6 144.358C117.3 144.258 117.4 144.158 117.3 143.958C117.7 143.958 118 144.258 117.6 144.358ZM115.3 128.558C115 128.758 114.7 128.658 114.8 128.358H115.2L115.3 128.558ZM120.8 105.958C120.6 106.058 120.5 106.058 120.2 106.058C120.1 105.658 120.7 105.758 120.8 105.958ZM121 109.258C121 109.458 120.6 109.558 120.5 109.458C120.3 109.358 120.7 109.258 121 109.258ZM117 137.158C116.9 137.158 116.9 137.258 116.8 137.258C116.6 137.258 116.6 137.258 116.6 137.158C116.5 136.858 117.2 136.858 117 137.158ZM124 111.358C123.9 111.258 123.9 111.158 123.9 111.058C124.4 110.958 124.5 111.358 124 111.358ZM124.1 143.958C123.9 143.958 123.9 143.958 123.8 143.858C123.9 143.658 123.9 143.658 124.2 143.658C124.3 143.858 124.3 143.858 124.1 143.958ZM123.6 142.758C124 142.758 123.9 143.058 123.6 143.058C123.3 143.058 123.4 142.758 123.6 142.758ZM118.8 136.358C118.9 136.458 118.9 136.458 118.8 136.658C118.4 136.758 118.5 136.458 118.5 136.358C118.8 136.258 118.6 136.258 118.8 136.358ZM144.5 136.158C144.6 136.258 144.6 136.558 144.3 136.558C144 136.458 144.2 136.158 144.5 136.158ZM185.4 136.258C185.5 136.358 185.5 136.458 185.5 136.558C185.3 136.558 185.2 136.558 185.1 136.558C185.1 136.358 185 136.458 185.1 136.358L185.4 136.258ZM145.9 121.358C145.5 121.258 145.5 121.058 145.8 121.058C146.1 121.058 146 121.258 145.9 121.358ZM120 108.058C119.9 108.158 119.9 108.158 119.6 108.158C119.5 107.958 119.4 107.958 119.8 107.858C120 108.058 120 107.958 120 108.058ZM178 111.758C177.7 111.758 177.5 111.658 177.6 111.458C177.9 111.458 178.1 111.558 178 111.758ZM142.3 106.058C142.3 106.058 142.4 106.158 142.1 106.058C142.1 106.058 141.8 105.958 141.8 105.758C142 105.758 142.3 105.858 142.3 106.058ZM41.3 144.258C41.4 144.458 41.3 144.458 41.1 144.558C41 144.558 40.9 144.558 40.9 144.458C40.9 144.258 41.1 144.158 41.3 144.258ZM123.8 142.158C123.6 142.258 123.7 142.158 123.5 142.058V141.858C123.9 141.858 124 141.958 123.8 142.158ZM146.4 139.058C146.3 138.858 146.6 138.758 146.7 138.858C146.9 138.958 146.7 139.158 146.4 139.058ZM178.6 119.258C178.5 119.058 178.5 119.058 178.7 118.958C179.1 119.058 179.1 119.258 178.6 119.258ZM185.4 117.358C185.2 117.358 185.2 117.358 185.1 117.258C185.1 117.058 185.2 117.058 185.3 117.058C185.6 117.158 185.5 117.158 185.4 117.358ZM144.7 106.358C144.7 106.158 144.7 106.158 144.4 106.158C144.2 106.358 144.4 106.558 144.7 106.358ZM145.1 109.358H144.7C144.7 109.258 144.6 109.158 144.8 109.158C145.1 109.058 145.1 109.158 145.1 109.358ZM186.1 117.358C186.1 117.158 186.3 117.058 186.5 117.158C186.7 117.158 186.4 117.358 186.1 117.358ZM142.9 142.558C142.8 142.358 142.8 142.258 143.1 142.258C143.2 142.458 143.1 142.458 142.9 142.558ZM89.5 128.158C89.3 127.958 89.5 127.858 89.7 127.958C89.9 127.958 89.7 128.158 89.5 128.158ZM181.9 124.758C181.9 124.858 181.9 124.958 181.6 125.058C181.6 124.958 181.5 124.858 181.6 124.758C181.8 124.658 181.9 124.758 181.9 124.758ZM188 121.658C188 121.858 187.7 121.958 187.5 121.758C187.6 121.658 187.7 121.558 188 121.658ZM122.7 136.758C122.4 136.758 122.4 136.558 122.5 136.558C122.7 136.458 123 136.558 122.7 136.758ZM149.1 108.058C149 108.058 148.8 108.058 148.8 107.958C148.8 107.758 148.9 107.858 149 107.758C149.2 107.858 149.2 107.858 149.1 108.058ZM86.5 115.358C86.4 115.258 86.4 115.258 86.5 115.058C87 115.158 86.8 115.358 86.5 115.358ZM145.9 129.058C145.9 129.058 145.9 128.958 145.9 129.058C145.6 128.958 145.6 128.958 145.7 129.258C146 129.258 145.9 129.258 145.9 129.058ZM183.4 118.958C183.3 118.958 183.2 118.958 183.1 118.858C183 118.658 183.2 118.758 183.4 118.758C183.5 118.858 183.5 118.858 183.4 118.958ZM145.9 140.658H145.6C145.5 140.558 145.5 140.558 145.6 140.458C145.9 140.458 145.9 140.458 145.9 140.658ZM144.2 129.358C144.2 129.558 144.2 129.458 144 129.558C143.9 129.258 144 129.258 144 129.258C144.1 129.258 144.2 129.258 144.2 129.358ZM117.2 113.858C117.1 113.858 117.1 113.858 117.2 113.858C117.1 113.658 117.2 113.658 117.3 113.558C117.5 113.658 117.5 113.858 117.2 113.858ZM143.5 109.458C143.5 109.258 143.5 109.258 143.7 109.258C143.9 109.358 143.9 109.458 143.5 109.458ZM124 136.458V136.158C124.3 136.158 124.3 136.358 124 136.458ZM143.4 140.558C143.3 140.658 143.3 140.658 143 140.658C143.1 140.358 143.4 140.558 143.4 140.558ZM39.5 106.058C39.3 105.858 39.5 105.858 39.6 105.758C39.9 105.958 39.8 106.058 39.5 106.058ZM145.8 112.058C145.8 111.858 145.9 111.758 146.1 111.758C146.1 111.858 146 111.958 145.8 112.058ZM186.3 121.858C186.3 121.658 186.4 121.658 186.7 121.658C186.7 121.858 186.6 121.958 186.3 121.858ZM125.3 111.358C125.3 111.558 125.3 111.458 125.1 111.558C125 111.558 125 111.658 125 111.458C125 111.358 125 111.358 125 111.358H125.3ZM147.5 144.958C147.5 145.158 147.2 145.158 147.1 144.858C147.5 144.858 147.3 144.858 147.5 144.958ZM122.8 109.358C122.5 109.458 122.3 109.158 122.8 109.158C122.8 109.158 122.9 109.158 122.9 109.258C122.8 109.358 122.8 109.258 122.8 109.358ZM122.3 108.858C122.3 108.658 122.4 108.658 122.7 108.658C122.6 108.858 122.6 108.858 122.3 108.858ZM178.7 113.758C178.5 113.658 178.5 113.758 178.6 113.558C178.7 113.558 178.8 113.558 178.8 113.658C179 113.758 178.8 113.758 178.7 113.758ZM81.8 107.758C81.8 107.558 81.8 107.558 82 107.558C82.1 107.658 82.1 107.758 81.8 107.758ZM148.4 142.358C148.5 142.258 148.5 142.358 148.5 142.258C148.5 142.158 148.5 142.258 148.5 142.158H148.3C148.1 142.258 148.1 142.258 148.4 142.358ZM125.3 140.158C125.3 140.158 125.4 140.258 125.1 140.158C124.9 140.158 124.9 140.058 124.9 140.058C124.9 140.058 124.9 139.958 125.1 139.958C125.3 140.058 125.3 140.058 125.3 140.158ZM41.2 125.358C41.1 125.358 41.3 125.458 41.1 125.358C41 125.358 41 125.358 40.9 125.258C41 125.058 41.3 125.158 41.2 125.358ZM185.3 119.658C185.1 119.558 185.1 119.558 185.3 119.458C185.5 119.558 185.6 119.558 185.3 119.658ZM145.9 105.458C145.7 105.558 146.1 105.558 145.7 105.458C145.6 105.458 145.6 105.458 145.5 105.458C145.5 105.358 145.8 105.258 145.9 105.458ZM148.4 110.058C148.4 110.158 148.4 110.158 148.3 110.158C148.1 110.058 148.2 110.158 148.1 110.058L148.2 109.958C148.5 109.958 148.3 110.058 148.4 110.058ZM124.9 111.758C124.9 111.858 124.9 111.858 124.8 111.858C124.6 111.858 124.6 111.758 124.6 111.758C124.6 111.658 124.7 111.658 124.9 111.758ZM148.1 109.658C148 109.758 148 109.858 147.8 109.758C147.8 109.558 147.8 109.558 148.1 109.658ZM185.8 127.058C185.5 127.058 185.5 127.058 185.7 126.858C185.9 126.858 186 126.858 185.8 127.058ZM125.6 108.258C126.1 107.958 125.9 108.658 125.6 108.258V108.258ZM56.3 125.058C56.1 125.158 56 125.058 56 124.958C56.2 124.958 56.3 124.958 56.3 125.058ZM78.2 116.358C77.9 116.358 77.9 116.258 78.2 116.158C78.3 116.258 78.3 116.258 78.2 116.358ZM144.9 117.358C145 117.258 144.9 117.258 145 117.258C145.1 117.258 145.1 117.258 145.2 117.258C145.2 117.458 145.1 117.458 144.9 117.358ZM118.3 108.058C118.2 107.858 118.2 107.958 118.4 107.858C118.5 107.858 118.5 107.858 118.5 107.958C118.4 108.158 118.4 108.058 118.3 108.058ZM182.5 125.258C182.5 125.258 182.5 125.358 182.4 125.358C182.1 125.358 182.3 125.358 182.2 125.258C182.2 125.258 182.1 125.258 182.3 125.258C182.6 125.158 182.4 125.258 182.5 125.258ZM59.6 121.158C59.2 121.158 59.5 121.158 59.4 121.058C59.4 120.958 59.4 120.958 59.6 120.958C59.6 121.058 59.6 121.058 59.6 121.158ZM89.4 109.358C89.2 109.358 89.2 109.358 89.1 109.158C89.5 109.158 89.4 109.158 89.4 109.358ZM91.4 123.658H91.2V123.458C91.4 123.458 91.4 123.458 91.4 123.658ZM121.2 117.358C121 117.258 121 117.258 121.1 117.158L121.2 117.258C121.3 117.458 121.3 117.358 121.2 117.358ZM45 106.458C45 106.458 44.9 106.458 44.9 106.358C44.9 106.258 45 106.258 45 106.258C45 106.258 45.2 106.258 45 106.458ZM147.9 140.458C147.7 140.558 147.7 140.558 147.6 140.458C147.7 140.458 147.5 140.358 147.7 140.458C148 140.358 147.8 140.358 147.9 140.458ZM144 108.258C143.9 108.058 143.9 108.158 143.9 108.058C144.2 108.158 144.2 108.158 144 108.258ZM146.1 141.858C146 141.758 146 141.758 146.2 141.658C146.2 141.658 146.3 141.558 146.3 141.758C146.2 141.958 146.3 141.858 146.1 141.858ZM116.5 108.058C116.4 108.158 116.5 108.158 116.2 108.058C116.2 107.958 116.1 108.058 116.3 107.958C116.6 107.958 116.5 108.058 116.5 108.058ZM144.4 117.758C144.3 117.658 144.3 117.658 144.4 117.558C144.5 117.658 144.5 117.458 144.5 117.658C144.5 117.858 144.4 117.758 144.4 117.758ZM184.7 121.558C184.6 121.458 184.5 121.458 184.7 121.358C184.7 121.458 185 121.458 184.7 121.558ZM181.2 112.358C181.1 112.158 181.1 112.258 181.3 112.158C181.3 112.158 181.4 112.158 181.3 112.258C181.3 112.358 181.3 112.358 181.2 112.358ZM88.6 105.558C88.3 105.558 88.4 105.558 88.4 105.458C88.7 105.458 88.6 105.358 88.6 105.558ZM124.4 109.858C124.4 109.958 124.4 109.958 124.4 109.958C124.2 109.958 124.3 109.958 124.2 109.858H124.4ZM94.5 129.158C94.4 129.058 94.4 129.058 94.6 129.058C94.7 129.158 94.7 129.058 94.5 129.158ZM145 106.958C145.1 106.858 145 106.858 145.2 106.858C145.2 106.958 145.3 106.958 145 106.958ZM121.2 115.758C121.2 115.758 121 115.758 121.2 115.558C121.2 115.558 121.3 115.558 121.2 115.758ZM185.3 114.158V114.058C185.5 114.058 185.5 114.058 185.3 114.158ZM53 110.158V110.058C53.1 110.058 53.2 109.958 53.1 110.158C53.1 110.158 53.2 110.158 53 110.158ZM114.3 105.758C114.3 105.758 114.3 105.858 114.2 105.758C114.1 105.758 114.2 105.758 114.1 105.658C114.3 105.658 114.2 105.758 114.3 105.758ZM58.4 115.558C58.4 115.558 58.2 115.558 58.4 115.558C58.5 115.458 58.4 115.458 58.5 115.458C58.4 115.558 58.5 115.558 58.4 115.558ZM43.6 117.958C43.5 117.858 43.5 117.958 43.6 117.858C43.8 117.958 43.6 117.858 43.6 117.958ZM149.2 106.258C149.2 106.258 149.2 106.158 149 106.258C149.1 106.258 148.9 106.358 149.2 106.258ZM118.5 105.858C118.6 105.758 118.5 105.858 118.7 105.758C118.6 105.858 118.8 105.758 118.5 105.858ZM185.4 124.758C185.2 124.758 185.3 124.758 185.2 124.658C185.5 124.758 185.4 124.558 185.4 124.758ZM42.9 111.758C42.9 111.858 42.8 111.858 42.9 111.758C42.8 111.758 42.9 111.658 42.9 111.758ZM121.5 141.558C121.3 141.358 121.5 141.458 121.5 141.458C121.6 141.558 121.7 141.358 121.5 141.558C121.6 141.558 121.6 141.558 121.5 141.558ZM39.5 139.458C39.3 139.558 39.4 139.558 39.3 139.458H39.5ZM149 107.158C149 107.258 148.9 107.258 148.9 107.158C148.9 107.158 149 107.058 149 107.158ZM78 106.758C78 106.758 77.9 106.758 78 106.758C77.9 106.658 78 106.558 78 106.758ZM115.5 111.558C115.3 111.458 115.4 111.558 115.4 111.458C115.5 111.458 115.5 111.458 115.5 111.558C115.5 111.458 115.5 111.558 115.5 111.558ZM73.8 139.158C73.8 139.258 73.6 139.158 73.8 139.158C73.8 139.158 73.8 139.058 73.8 139.158ZM65.2 138.758C65.3 138.858 65.2 138.758 65.2 138.758C65.2 138.758 65.1 138.758 65.2 138.758C65.1 138.658 65.2 138.658 65.2 138.758ZM182.8 109.758C182.8 109.858 182.7 109.858 182.8 109.758C182.7 109.758 182.8 109.758 182.8 109.758ZM145.1 122.758C145.1 122.758 145 122.758 145.1 122.758C145 122.658 145.1 122.758 145.1 122.758ZM25.1 131.258C24.7 131.258 24.7 131.058 24.6 130.858C24.5 130.658 24.4 130.458 24.8 130.358C25.7 130.358 25.5 131.058 25.1 131.258ZM22 113.758C21.7 113.758 21.7 113.658 21.6 113.558C21.2 113.258 21.5 113.358 21.7 113.058C21.8 112.858 21.7 112.958 21.9 112.758C22.3 112.858 22.3 113.158 22.2 113.358C22.1 113.558 22.2 113.558 22 113.758ZM18.2 107.458C19.2 107.558 18.8 107.358 19.2 107.558C19.3 107.958 18.9 107.958 18.5 107.958C17.6 107.958 18 107.658 18.2 107.458ZM20.1 109.558C20.1 109.358 20.2 109.358 20.1 109.158C20.1 109.058 20 109.058 19.9 108.958C20.3 108.958 20.6 109.058 20.8 109.158C20.8 109.458 20.6 109.358 20.5 109.558C20.4 109.858 20.7 109.858 20.4 109.958C20.1 109.858 20.1 109.758 20.1 109.558ZM19.7 113.058C20 112.958 20.1 113.058 20.3 113.158C20.4 113.258 20.7 113.358 20.6 113.558C20.4 113.758 19.6 113.458 19.7 113.058ZM21.1 144.558C20.8 144.158 21.6 143.958 21.8 144.258C21.7 144.458 21.4 144.558 21.1 144.558ZM15.8 107.558C16.1 107.058 16.7 107.458 16.3 107.858C16 107.858 15.9 107.758 15.8 107.558ZM19.6 140.258C19.5 140.358 19.1 140.758 18.9 140.558C18.7 140.358 19.3 140.158 19.4 140.158C19.6 140.258 19.5 140.158 19.6 140.258ZM18.3 105.858C18.6 105.758 19 105.858 19 106.058C18.8 106.258 18.5 106.258 18.2 106.058L18.3 105.858ZM21.2 142.158C21.2 141.958 21.2 141.858 21.4 141.758C21.5 141.758 22.1 141.758 21.7 142.158C21.3 142.258 21.4 142.258 21.2 142.158ZM93.7 110.358C94.5 110.558 94.4 110.058 94.2 109.958C94 109.958 93.7 110.158 93.7 110.358ZM19.5 111.858C19.2 111.758 19.1 111.558 19.4 111.358C19.7 111.358 19.7 111.458 19.8 111.558C19.7 111.758 19.6 111.758 19.5 111.858ZM20.7 138.758C20.7 138.658 21 138.558 21.2 138.558C21.4 138.658 21.4 138.658 21.4 138.858C21.2 138.858 20.7 138.958 20.7 138.758ZM98.4 119.658C98.4 119.758 98.5 119.958 98.8 119.858C99 119.758 99 119.558 98.9 119.458C98.6 119.458 98.6 119.458 98.4 119.658ZM19.9 105.958C19.9 105.758 19.9 105.758 20.1 105.758C20.3 105.858 20.3 105.858 20.4 106.058C20.3 106.058 19.9 106.458 19.9 105.958ZM96.6 117.958C97 118.058 96.9 118.058 97.2 117.858C97.1 117.658 97 117.558 96.6 117.658C96.6 117.858 96.6 117.858 96.6 117.958ZM21.7 134.658C21.7 134.558 21.9 134.458 22 134.458C22.3 134.458 22.3 134.758 21.9 134.858C21.8 134.858 21.7 134.758 21.7 134.658ZM22.1 130.258C21.9 129.858 22.7 129.858 22.6 130.258C22.4 130.258 22.5 130.258 22.1 130.258ZM23 135.158C23 134.958 23.4 134.858 23.6 135.058C23.5 135.158 23.4 135.258 23.1 135.258C23.1 135.158 23 135.158 23 135.158ZM102.5 112.258C102.5 111.958 102.4 111.858 102 111.858C101.9 112.158 102.1 112.258 102.5 112.258ZM103.7 111.658C103.8 111.458 103.7 111.258 103.4 111.258C103.2 111.458 103.3 111.758 103.7 111.658ZM19.1 144.058C19.1 143.858 19.2 143.758 19.5 143.658C19.7 143.958 19.6 144.258 19.1 144.058ZM94.1 106.258C94.5 106.258 94.6 106.058 94.4 105.958C94 105.758 93.9 106.058 94.1 106.258ZM55.7 107.258C55.8 107.458 55.9 107.458 56.2 107.458L56.3 107.258L56 107.158C55.8 107.258 55.8 107.258 55.7 107.258ZM26.6 127.758C26.5 127.458 26.8 127.458 27.1 127.558C27.1 127.758 27.1 127.858 26.8 127.858L26.6 127.758ZM24.3 109.358C24.7 109.258 24.8 109.358 24.9 109.558C24.6 109.558 24.3 109.658 24.3 109.358ZM85.7 113.258C86 113.258 86.1 112.958 85.8 112.758C85.7 112.858 85.5 113.058 85.7 113.258ZM101.6 115.658C101.3 115.758 101.3 116.058 101.6 116.058C101.9 116.058 101.9 115.758 101.6 115.658ZM56.4 127.258C56.5 127.258 56.6 127.358 56.8 127.258C57.1 126.958 56.3 126.858 56.4 127.258ZM101.2 119.658C101.7 119.658 101.6 119.358 101.4 119.358C101 119.258 101.1 119.558 101.2 119.658ZM48.6 129.158C48.9 129.158 49 129.158 49 128.958C48.7 128.758 48.4 128.958 48.6 129.158ZM86.1 112.158C86.2 112.258 86.1 112.258 86.4 112.358C86.6 112.358 86.6 112.358 86.8 112.358C86.6 111.958 86.3 111.958 86.1 112.158ZM26.7 128.558L26.8 128.358H27.2C27.3 128.658 27 128.758 26.7 128.558ZM21.2 105.958C21.2 105.758 21.8 105.658 21.8 106.058C21.5 106.058 21.4 106.058 21.2 105.958ZM21 109.258C21.3 109.258 21.7 109.358 21.5 109.458C21.4 109.658 21 109.558 21 109.258ZM25 137.158C24.9 136.858 25.5 136.858 25.5 137.158C25.5 137.158 25.4 137.258 25.3 137.258C25 137.258 25 137.258 25 137.158ZM18 111.358C17.5 111.358 17.5 110.958 18.1 111.058C18.1 111.158 18.1 111.258 18 111.358ZM17.9 143.958C17.7 143.858 17.7 143.858 17.8 143.658C18.1 143.658 18.1 143.658 18.2 143.858C18.1 143.958 18.2 143.958 17.9 143.958ZM18.4 142.758C18.6 142.758 18.7 143.058 18.4 143.058C18.1 143.058 18 142.758 18.4 142.758ZM23.2 136.358C23.4 136.358 23.3 136.258 23.5 136.358C23.5 136.458 23.6 136.658 23.2 136.658C23 136.458 23.1 136.458 23.2 136.358ZM22 108.058C22.1 107.858 22 107.958 22.2 107.858C22.6 107.858 22.6 107.958 22.4 108.158C22.1 108.158 22.1 108.158 22 108.058ZM96.6 115.758C96.7 115.658 96.7 115.758 96.7 115.558C96.7 115.458 96.7 115.458 96.6 115.358C96.4 115.458 96.3 115.658 96.6 115.758ZM18.2 142.158C18 141.958 18.2 141.858 18.5 141.958V142.158C18.3 142.158 18.4 142.158 18.2 142.158ZM60.2 121.158C60.5 121.158 60.5 120.958 60.3 120.858C60 120.858 60 120.958 60.2 121.158ZM53.5 127.658C53.7 127.458 53.5 127.358 53.3 127.458C53 127.558 53.2 127.658 53.5 127.658ZM19.3 136.758C19 136.558 19.3 136.458 19.5 136.558C19.6 136.658 19.6 136.758 19.3 136.758ZM102.5 113.958C102.9 113.958 102.9 113.958 102.9 113.758C102.5 113.658 102.5 113.758 102.5 113.958ZM86.6 113.258C86.8 113.158 86.9 113.058 86.6 112.958C86.5 112.958 86.4 112.958 86.4 113.058C86.5 113.258 86.6 113.258 86.6 113.258ZM24.9 113.858C24.6 113.758 24.5 113.658 24.8 113.558C24.9 113.658 24.9 113.658 24.9 113.858ZM16.7 111.358H16.9C16.9 111.358 17 111.458 16.9 111.458C16.9 111.658 16.8 111.558 16.8 111.558C16.7 111.458 16.7 111.458 16.7 111.358ZM19.2 109.358C19.2 109.358 19.2 109.358 19.2 109.258C19.2 109.158 19.2 109.258 19.3 109.158C19.7 109.158 19.5 109.358 19.2 109.358ZM19.7 108.858C19.4 108.858 19.4 108.858 19.3 108.658C19.6 108.658 19.7 108.658 19.7 108.858ZM99.2 123.558C99.2 123.658 99.3 123.658 99.4 123.758C99.6 123.658 99.5 123.558 99.3 123.458L99.2 123.558ZM60.8 107.758C60.8 107.558 60.8 107.558 60.6 107.558C60.4 107.658 60.5 107.758 60.8 107.758ZM16.7 140.158C16.7 140.058 16.8 140.058 16.9 140.058C17.2 140.058 17.1 140.058 17.1 140.158C17.1 140.158 17.1 140.258 16.9 140.258C16.6 140.258 16.7 140.158 16.7 140.158ZM101.6 125.758C101.7 125.758 101.5 125.858 101.7 125.758C101.8 125.758 101.8 125.758 101.9 125.658C101.7 125.458 101.5 125.558 101.6 125.758ZM16.6 104.558C16.6 104.558 16.4 104.458 16.6 104.358C16.7 104.258 16.7 104.358 16.9 104.358C16.8 104.558 16.8 104.458 16.6 104.558ZM17.1 111.758C17.3 111.658 17.4 111.758 17.5 111.758C17.5 111.758 17.5 111.858 17.3 111.858C17.1 111.858 17.2 111.858 17.1 111.758ZM102.4 115.858C102.5 115.758 102.5 115.658 102.3 115.558C102.2 115.658 102.2 115.758 102.4 115.858ZM16.4 108.258C16.1 108.658 15.9 107.958 16.4 108.258V108.258ZM64.4 116.358C64.7 116.358 64.7 116.258 64.4 116.158C64.3 116.258 64.3 116.258 64.4 116.358ZM86.2 115.058C86.2 115.058 86.4 115.158 86.3 114.958C86.2 114.758 86.3 114.958 86.1 114.858C86.1 115.058 86.1 114.958 86.2 115.058ZM23.7 108.058C23.6 108.058 23.6 108.158 23.5 107.958C23.5 107.858 23.6 107.858 23.6 107.858C23.8 107.958 23.8 107.958 23.7 108.058ZM53.5 109.258C53.7 109.258 53.7 109.258 53.8 109.058C53.5 109.058 53.5 109.058 53.5 109.258ZM51.4 123.258H51.6V123.058C51.4 123.058 51.4 123.058 51.4 123.258ZM20.8 117.358C20.7 117.258 20.7 117.458 20.7 117.258L20.8 117.158C21 117.358 21 117.358 20.8 117.358ZM97.7 106.458C97.7 106.458 97.8 106.458 97.8 106.358C97.8 106.258 97.7 106.258 97.7 106.258C97.7 106.258 97.5 106.258 97.7 106.458ZM50.3 130.658C50.4 130.658 50.5 130.658 50.5 130.558C50.5 130.358 50.5 130.458 50.3 130.458V130.658ZM25.5 108.058C25.5 108.058 25.4 107.958 25.7 108.058C25.8 108.058 25.7 108.058 25.8 108.158C25.5 108.158 25.6 108.158 25.5 108.058ZM65.4 113.058C65.6 112.958 65.8 112.958 65.5 112.858C65.4 112.958 65.4 112.958 65.4 113.058ZM54.3 105.558C54.6 105.558 54.5 105.558 54.5 105.458C54.2 105.458 54.4 105.358 54.3 105.558ZM17.6 109.858H17.8C17.8 109.958 17.9 109.958 17.6 109.958C17.6 109.958 17.6 109.958 17.6 109.858ZM48.2 128.558C48.3 128.458 48.3 128.458 48.1 128.458C48 128.558 48.1 128.558 48.2 128.558ZM20.8 115.758C20.7 115.558 20.8 115.558 20.8 115.558C21 115.758 20.8 115.758 20.8 115.758ZM90 110.258V110.158C89.9 110.158 89.8 110.058 89.9 110.258C89.9 110.258 89.8 110.258 90 110.258ZM84.1 115.758C84.1 115.758 84.3 115.758 84.1 115.758C84 115.658 84.1 115.658 84 115.658C84.1 115.858 84.1 115.758 84.1 115.758ZM99.1 118.158C99.2 118.058 99.2 118.158 99.1 118.058C98.9 118.258 99.1 118.158 99.1 118.158ZM99.8 111.958C99.8 111.958 99.9 111.958 99.8 111.958C99.9 111.858 99.8 111.758 99.8 111.958ZM20.5 141.558C20.5 141.558 20.4 141.558 20.5 141.558C20.3 141.358 20.4 141.558 20.5 141.458C20.5 141.458 20.7 141.358 20.5 141.558ZM64.5 106.758C64.5 106.758 64.6 106.758 64.5 106.758C64.6 106.658 64.5 106.558 64.5 106.758ZM26.5 111.558C26.5 111.558 26.5 111.458 26.5 111.558C26.5 111.458 26.6 111.458 26.6 111.458C26.6 111.558 26.7 111.458 26.5 111.558ZM77.3 138.758C77.3 138.858 77.3 138.758 77.3 138.758C77.4 138.758 77.4 138.758 77.3 138.758C77.4 138.658 77.4 138.658 77.3 138.758ZM96.6 115.058C96.6 115.058 96.7 115.158 96.6 115.058C96.7 114.958 96.6 114.958 96.6 115.058ZM66 134.358C66 133.558 65.8 133.258 64.9 133.258H58.8C57.9 133.258 57.8 133.458 57.8 134.358V137.558H50.8V128.258H61.3C62.4 128.258 62.6 128.058 62.6 127.058V122.058C62.6 120.958 62.3 120.858 61.3 120.858H58.9H58.8H50.8V113.858C50.8 113.858 50.8 113.858 50.7 113.858C50.7 113.858 50.6 113.758 50.6 113.658C50.6 113.558 50.7 113.558 50.8 113.558V112.858H55.9H56.5C56.5 112.758 56.5 112.658 56.7 112.558C56.8 112.658 56.9 112.758 56.9 112.858H57.6V115.558C57.6 116.358 57.8 116.558 58.6 116.558H64.8C65.6 116.558 65.8 116.358 65.8 115.558V106.158C65.8 105.358 65.6 105.158 64.8 105.158H37.7C36.5 105.158 36.4 105.358 36.4 106.358V111.058C36.4 112.058 36.5 112.258 37.7 112.258H40.3V115.458L40.4 115.358C40.5 115.458 40.5 115.558 40.3 115.658L40.2 115.558V138.258H37.6C36.4 138.258 36.3 138.358 36.3 139.458V144.058C36.3 145.158 36.4 145.258 37.6 145.258H64.8C65.8 145.258 66 145.058 66 144.058V134.358ZM74.4 105.158C73.2 105.158 73.1 105.358 73.1 106.358V111.058C73.1 112.058 73.2 112.258 74.4 112.258H77V112.958C77.1 112.958 77 112.958 77.1 113.058H77V138.258H74.4C73.2 138.258 73.1 138.358 73.1 139.458V140.058C73.1 140.058 73.1 140.058 73.2 140.058C73.5 140.058 73.4 140.258 73.4 140.458C73.3 140.458 73.2 140.458 73.2 140.458V144.058C73.2 145.158 73.2 145.258 74.4 145.258H91.3C92.5 145.258 92.5 145.158 92.5 144.058V139.458C92.5 138.358 92.4 138.258 91.2 138.258H87.6V130.358H90.8C95.3 130.358 99.2 129.258 101.9 127.058C104.5 124.858 105.9 121.458 106 117.858C106.2 114.158 105 110.158 102.3 107.958C99.8 105.958 96.5 105.258 90.3 105.258H74.4V105.158ZM87.5 122.658V117.858C87.5 117.758 87.5 117.758 87.5 117.758V112.458H89.7C90.8 112.458 91.7 112.558 92.5 112.758C97.3 113.858 97 120.458 93.6 122.058C92.6 122.558 91.2 122.758 89.5 122.758C89.4 122.758 89.7 122.858 89.5 122.758H87.5V122.658ZM150.1 139.358C150.1 138.258 149.9 138.158 148.8 138.158H147V138.258C147 138.458 147 138.358 146.9 138.458C146.6 138.458 146.6 138.258 146.8 138.158H146.1C146 138.158 145.9 138.058 145.9 137.858C145.9 137.658 146 137.658 146.1 137.658V132.958H146C145.9 132.758 145.9 132.758 146 132.558V127.058C145.6 127.158 145.2 126.958 144.9 127.258C144.7 127.458 144.8 127.558 144.3 127.558C144.2 127.358 144.3 127.258 144.1 127.158C143.8 126.958 143.7 127.158 143.8 126.758C144.1 126.658 144.1 126.758 144.5 126.558C144.9 126.458 144.9 126.558 145.1 126.658C145.4 126.758 145.7 126.558 146 126.558V125.558C145.8 125.558 145.7 125.458 145.8 125.358C146 125.358 145.6 125.358 146 125.358V119.558L145.9 119.658C145.6 119.658 145.6 119.658 145.4 119.558C145.5 119.258 145.7 119.458 146 118.958C145.9 118.858 145.7 118.758 145.7 118.558C145.9 118.558 146 118.558 146 118.658V116.058C145.7 116.058 145.6 115.658 146 115.658V114.258H145.9C145.8 114.158 145.7 113.858 145.7 113.758C145.6 113.558 145.8 113.358 146 113.458V112.358H147.4C147.4 112.258 147.4 112.258 147.5 112.158C147.1 112.158 146.8 112.258 146.6 112.058C146.4 111.958 146.6 111.858 146.7 111.758C146.9 111.558 146.8 111.658 146.7 111.358C147.1 111.258 147 111.458 147.5 111.458C147.9 111.258 147.4 111.058 147.8 111.058C148.2 111.058 148.3 111.258 148.5 111.358C149.7 111.258 149.1 111.958 148.2 111.858C148.3 111.558 148.5 111.758 148.5 111.358L147.9 111.458C147.8 111.658 147.9 112.158 147.9 112.258H148.6C148.9 112.258 149.1 112.258 149.3 112.258C149.3 112.158 149.4 112.158 149.4 112.058H149.7C149.8 111.958 149.8 111.958 149.8 111.758C149.6 111.758 149.5 111.758 149.3 111.558L149.7 111.058C149.8 111.058 149.8 111.058 149.9 111.058V110.958V109.858C149.6 109.758 149.5 109.458 149.8 109.258C149.9 109.258 149.9 109.258 149.9 109.258V106.258C149.9 105.158 149.7 105.058 148.6 105.058H133.1C131.9 105.058 131.8 105.258 131.8 106.258V110.958C131.8 111.958 131.9 112.158 133.1 112.158H135.4V120.658H125V118.058C124.7 118.058 124.7 117.858 124.8 117.658C124.9 117.458 124.5 117.158 125 117.058H125.1V113.458C124.7 113.458 124.5 113.158 124.9 112.858H125.1V112.258H127.4C128.6 112.258 128.7 112.158 128.7 111.058V106.358C128.7 105.258 128.5 105.158 127.4 105.158H114.1V105.258C114 105.258 113.9 105.258 113.9 105.158C113.9 105.158 113.9 105.158 113.9 105.058H112C110.8 105.058 110.7 105.258 110.7 106.258V110.958C110.7 111.958 110.8 112.158 112 112.158H114.6V138.158H112C110.8 138.158 110.7 138.258 110.7 139.358V143.958C110.7 145.058 110.8 145.158 112 145.158H127.5C128.7 145.158 128.8 145.058 128.8 143.958V139.358C128.8 138.258 128.6 138.158 127.5 138.158H125.2V128.458H135.6V138.158H133.3C132.1 138.158 132 138.258 132 139.358V143.958C132 145.058 132.1 145.158 133.3 145.158H148.8C149.8 145.158 150.1 145.058 150.1 144.458C149.8 144.358 150 144.358 149.9 144.258C149.8 144.158 149.7 144.158 149.5 144.058C149.7 143.758 150 143.858 150.1 143.958V140.458C150 140.458 149.9 140.458 149.7 140.458C149.8 140.258 149.8 140.158 150.1 140.158V139.358ZM189.9 124.658C189.9 123.758 189.9 122.858 189.8 121.958C189.7 121.958 189.6 121.958 189.5 121.958C189.4 121.758 189.5 121.658 189.7 121.658C189.5 118.958 189 116.558 188.3 114.458C188.2 114.458 188.1 114.458 188 114.458C187.9 114.258 188 114.158 188.2 114.058C187.6 112.358 186.8 110.958 185.8 109.658C185.7 109.758 185.6 109.758 185.5 109.658C185.7 109.558 185.6 109.558 185.8 109.658C185.4 109.158 185 108.758 184.5 108.258C184.3 108.258 184.3 108.158 184.3 108.058C181.5 105.558 177.6 104.158 172.6 104.158C159 104.158 155.1 114.158 155.1 124.558C155.1 138.658 160.5 146.158 172.3 146.158C182.3 146.158 187.9 140.758 189.5 130.858H189.4C189.3 130.858 189.3 130.858 189.3 130.758C189.4 130.758 189.4 130.658 189.5 130.758C189.7 129.658 189.8 128.458 189.9 127.258C189.8 127.258 189.8 127.258 189.7 127.158C189.7 127.058 189.7 126.958 189.9 126.958C189.9 126.258 189.9 125.458 189.9 124.658ZM178.8 125.158C178.8 123.158 178.7 121.458 178.5 119.958C178.6 119.958 178.7 119.958 178.8 119.958C178.9 119.858 179 119.658 178.8 119.558C178.7 119.458 178.5 119.458 178.4 119.458C178.2 117.858 177.9 116.558 177.4 115.458C177.6 115.558 177.6 115.458 177.6 115.358C177.3 115.358 177.4 115.258 177.4 115.458C177.2 114.958 177 114.558 176.8 114.158C177 114.258 177.5 114.158 177.6 114.158C177.9 114.158 177.7 114.258 178 114.158C177.9 113.958 177.9 114.058 177.7 113.958C177.6 113.858 177.6 113.858 177.4 113.758C177.2 113.658 176.8 113.658 176.7 113.858V113.958C175.6 112.258 174.2 111.558 172.5 111.558C168.8 111.558 166.3 115.758 166.3 125.458C166.3 135.158 168.7 138.958 172.5 138.958C176.3 138.958 178.8 135.058 178.8 125.158Z" fill="#232221"/>
</g>
<defs>
<clipPath id="clip0">
<rect width="189.9" height="145.6" fill="white" transform="translate(0 0.658203)"/>
</clipPath>
</defs>
</svg>
